G75*
%MOIN*%
%OFA0B0*%
%FSLAX25Y25*%
%IPPOS*%
%LPD*%
%AMOC8*
5,1,8,0,0,1.08239X$1,22.5*
%
%ADD10C,0.00000*%
%ADD11C,0.00400*%
%ADD12C,0.00500*%
%ADD13C,0.00800*%
%ADD14C,0.00600*%
%ADD15C,0.00200*%
D10*
X0021300Y0021600D02*
X0021300Y0291600D01*
X0021304Y0291962D01*
X0021318Y0292325D01*
X0021339Y0292687D01*
X0021370Y0293048D01*
X0021409Y0293408D01*
X0021457Y0293767D01*
X0021514Y0294125D01*
X0021579Y0294482D01*
X0021653Y0294837D01*
X0021736Y0295190D01*
X0021827Y0295541D01*
X0021926Y0295889D01*
X0022034Y0296235D01*
X0022150Y0296579D01*
X0022275Y0296919D01*
X0022407Y0297256D01*
X0022548Y0297590D01*
X0022697Y0297921D01*
X0022854Y0298248D01*
X0023018Y0298571D01*
X0023190Y0298890D01*
X0023370Y0299204D01*
X0023558Y0299515D01*
X0023753Y0299820D01*
X0023955Y0300121D01*
X0024165Y0300417D01*
X0024381Y0300707D01*
X0024605Y0300993D01*
X0024835Y0301273D01*
X0025072Y0301547D01*
X0025316Y0301815D01*
X0025566Y0302078D01*
X0025822Y0302334D01*
X0026085Y0302584D01*
X0026353Y0302828D01*
X0026627Y0303065D01*
X0026907Y0303295D01*
X0027193Y0303519D01*
X0027483Y0303735D01*
X0027779Y0303945D01*
X0028080Y0304147D01*
X0028385Y0304342D01*
X0028696Y0304530D01*
X0029010Y0304710D01*
X0029329Y0304882D01*
X0029652Y0305046D01*
X0029979Y0305203D01*
X0030310Y0305352D01*
X0030644Y0305493D01*
X0030981Y0305625D01*
X0031321Y0305750D01*
X0031665Y0305866D01*
X0032011Y0305974D01*
X0032359Y0306073D01*
X0032710Y0306164D01*
X0033063Y0306247D01*
X0033418Y0306321D01*
X0033775Y0306386D01*
X0034133Y0306443D01*
X0034492Y0306491D01*
X0034852Y0306530D01*
X0035213Y0306561D01*
X0035575Y0306582D01*
X0035938Y0306596D01*
X0036300Y0306600D01*
X0066300Y0306600D01*
X0066398Y0306598D01*
X0066496Y0306592D01*
X0066594Y0306583D01*
X0066691Y0306569D01*
X0066788Y0306552D01*
X0066884Y0306531D01*
X0066979Y0306506D01*
X0067073Y0306478D01*
X0067165Y0306445D01*
X0067257Y0306410D01*
X0067347Y0306370D01*
X0067435Y0306328D01*
X0067522Y0306281D01*
X0067606Y0306232D01*
X0067689Y0306179D01*
X0067769Y0306123D01*
X0067848Y0306063D01*
X0067924Y0306001D01*
X0067997Y0305936D01*
X0068068Y0305868D01*
X0068136Y0305797D01*
X0068201Y0305724D01*
X0068263Y0305648D01*
X0068323Y0305569D01*
X0068379Y0305489D01*
X0068432Y0305406D01*
X0068481Y0305322D01*
X0068528Y0305235D01*
X0068570Y0305147D01*
X0068610Y0305057D01*
X0068645Y0304965D01*
X0068678Y0304873D01*
X0068706Y0304779D01*
X0068731Y0304684D01*
X0068752Y0304588D01*
X0068769Y0304491D01*
X0068783Y0304394D01*
X0068792Y0304296D01*
X0068798Y0304198D01*
X0068800Y0304100D01*
X0068800Y0276600D01*
X0068802Y0276502D01*
X0068808Y0276404D01*
X0068817Y0276306D01*
X0068831Y0276209D01*
X0068848Y0276112D01*
X0068869Y0276016D01*
X0068894Y0275921D01*
X0068922Y0275827D01*
X0068955Y0275735D01*
X0068990Y0275643D01*
X0069030Y0275553D01*
X0069072Y0275465D01*
X0069119Y0275378D01*
X0069168Y0275294D01*
X0069221Y0275211D01*
X0069277Y0275131D01*
X0069337Y0275052D01*
X0069399Y0274976D01*
X0069464Y0274903D01*
X0069532Y0274832D01*
X0069603Y0274764D01*
X0069676Y0274699D01*
X0069752Y0274637D01*
X0069831Y0274577D01*
X0069911Y0274521D01*
X0069994Y0274468D01*
X0070078Y0274419D01*
X0070165Y0274372D01*
X0070253Y0274330D01*
X0070343Y0274290D01*
X0070435Y0274255D01*
X0070527Y0274222D01*
X0070621Y0274194D01*
X0070716Y0274169D01*
X0070812Y0274148D01*
X0070909Y0274131D01*
X0071006Y0274117D01*
X0071104Y0274108D01*
X0071202Y0274102D01*
X0071300Y0274100D01*
X0131300Y0274100D01*
X0131398Y0274102D01*
X0131496Y0274108D01*
X0131594Y0274117D01*
X0131691Y0274131D01*
X0131788Y0274148D01*
X0131884Y0274169D01*
X0131979Y0274194D01*
X0132073Y0274222D01*
X0132165Y0274255D01*
X0132257Y0274290D01*
X0132347Y0274330D01*
X0132435Y0274372D01*
X0132522Y0274419D01*
X0132606Y0274468D01*
X0132689Y0274521D01*
X0132769Y0274577D01*
X0132848Y0274637D01*
X0132924Y0274699D01*
X0132997Y0274764D01*
X0133068Y0274832D01*
X0133136Y0274903D01*
X0133201Y0274976D01*
X0133263Y0275052D01*
X0133323Y0275131D01*
X0133379Y0275211D01*
X0133432Y0275294D01*
X0133481Y0275378D01*
X0133528Y0275465D01*
X0133570Y0275553D01*
X0133610Y0275643D01*
X0133645Y0275735D01*
X0133678Y0275827D01*
X0133706Y0275921D01*
X0133731Y0276016D01*
X0133752Y0276112D01*
X0133769Y0276209D01*
X0133783Y0276306D01*
X0133792Y0276404D01*
X0133798Y0276502D01*
X0133800Y0276600D01*
X0133800Y0304100D01*
X0133802Y0304198D01*
X0133808Y0304296D01*
X0133817Y0304394D01*
X0133831Y0304491D01*
X0133848Y0304588D01*
X0133869Y0304684D01*
X0133894Y0304779D01*
X0133922Y0304873D01*
X0133955Y0304965D01*
X0133990Y0305057D01*
X0134030Y0305147D01*
X0134072Y0305235D01*
X0134119Y0305322D01*
X0134168Y0305406D01*
X0134221Y0305489D01*
X0134277Y0305569D01*
X0134337Y0305648D01*
X0134399Y0305724D01*
X0134464Y0305797D01*
X0134532Y0305868D01*
X0134603Y0305936D01*
X0134676Y0306001D01*
X0134752Y0306063D01*
X0134831Y0306123D01*
X0134911Y0306179D01*
X0134994Y0306232D01*
X0135078Y0306281D01*
X0135165Y0306328D01*
X0135253Y0306370D01*
X0135343Y0306410D01*
X0135435Y0306445D01*
X0135527Y0306478D01*
X0135621Y0306506D01*
X0135716Y0306531D01*
X0135812Y0306552D01*
X0135909Y0306569D01*
X0136006Y0306583D01*
X0136104Y0306592D01*
X0136202Y0306598D01*
X0136300Y0306600D01*
X0206300Y0306600D01*
X0206662Y0306596D01*
X0207025Y0306582D01*
X0207387Y0306561D01*
X0207748Y0306530D01*
X0208108Y0306491D01*
X0208467Y0306443D01*
X0208825Y0306386D01*
X0209182Y0306321D01*
X0209537Y0306247D01*
X0209890Y0306164D01*
X0210241Y0306073D01*
X0210589Y0305974D01*
X0210935Y0305866D01*
X0211279Y0305750D01*
X0211619Y0305625D01*
X0211956Y0305493D01*
X0212290Y0305352D01*
X0212621Y0305203D01*
X0212948Y0305046D01*
X0213271Y0304882D01*
X0213590Y0304710D01*
X0213904Y0304530D01*
X0214215Y0304342D01*
X0214520Y0304147D01*
X0214821Y0303945D01*
X0215117Y0303735D01*
X0215407Y0303519D01*
X0215693Y0303295D01*
X0215973Y0303065D01*
X0216247Y0302828D01*
X0216515Y0302584D01*
X0216778Y0302334D01*
X0217034Y0302078D01*
X0217284Y0301815D01*
X0217528Y0301547D01*
X0217765Y0301273D01*
X0217995Y0300993D01*
X0218219Y0300707D01*
X0218435Y0300417D01*
X0218645Y0300121D01*
X0218847Y0299820D01*
X0219042Y0299515D01*
X0219230Y0299204D01*
X0219410Y0298890D01*
X0219582Y0298571D01*
X0219746Y0298248D01*
X0219903Y0297921D01*
X0220052Y0297590D01*
X0220193Y0297256D01*
X0220325Y0296919D01*
X0220450Y0296579D01*
X0220566Y0296235D01*
X0220674Y0295889D01*
X0220773Y0295541D01*
X0220864Y0295190D01*
X0220947Y0294837D01*
X0221021Y0294482D01*
X0221086Y0294125D01*
X0221143Y0293767D01*
X0221191Y0293408D01*
X0221230Y0293048D01*
X0221261Y0292687D01*
X0221282Y0292325D01*
X0221296Y0291962D01*
X0221300Y0291600D01*
X0221300Y0231600D01*
X0221302Y0231502D01*
X0221308Y0231404D01*
X0221317Y0231306D01*
X0221331Y0231209D01*
X0221348Y0231112D01*
X0221369Y0231016D01*
X0221394Y0230921D01*
X0221422Y0230827D01*
X0221455Y0230735D01*
X0221490Y0230643D01*
X0221530Y0230553D01*
X0221572Y0230465D01*
X0221619Y0230378D01*
X0221668Y0230294D01*
X0221721Y0230211D01*
X0221777Y0230131D01*
X0221837Y0230052D01*
X0221899Y0229976D01*
X0221964Y0229903D01*
X0222032Y0229832D01*
X0222103Y0229764D01*
X0222176Y0229699D01*
X0222252Y0229637D01*
X0222331Y0229577D01*
X0222411Y0229521D01*
X0222494Y0229468D01*
X0222578Y0229419D01*
X0222665Y0229372D01*
X0222753Y0229330D01*
X0222843Y0229290D01*
X0222935Y0229255D01*
X0223027Y0229222D01*
X0223121Y0229194D01*
X0223216Y0229169D01*
X0223312Y0229148D01*
X0223409Y0229131D01*
X0223506Y0229117D01*
X0223604Y0229108D01*
X0223702Y0229102D01*
X0223800Y0229100D01*
X0223898Y0229102D01*
X0223996Y0229108D01*
X0224094Y0229117D01*
X0224191Y0229131D01*
X0224288Y0229148D01*
X0224384Y0229169D01*
X0224479Y0229194D01*
X0224573Y0229222D01*
X0224665Y0229255D01*
X0224757Y0229290D01*
X0224847Y0229330D01*
X0224935Y0229372D01*
X0225022Y0229419D01*
X0225106Y0229468D01*
X0225189Y0229521D01*
X0225269Y0229577D01*
X0225348Y0229637D01*
X0225424Y0229699D01*
X0225497Y0229764D01*
X0225568Y0229832D01*
X0225636Y0229903D01*
X0225701Y0229976D01*
X0225763Y0230052D01*
X0225823Y0230131D01*
X0225879Y0230211D01*
X0225932Y0230294D01*
X0225981Y0230378D01*
X0226028Y0230465D01*
X0226070Y0230553D01*
X0226110Y0230643D01*
X0226145Y0230735D01*
X0226178Y0230827D01*
X0226206Y0230921D01*
X0226231Y0231016D01*
X0226252Y0231112D01*
X0226269Y0231209D01*
X0226283Y0231306D01*
X0226292Y0231404D01*
X0226298Y0231502D01*
X0226300Y0231600D01*
X0226300Y0291600D01*
X0226304Y0291962D01*
X0226318Y0292325D01*
X0226339Y0292687D01*
X0226370Y0293048D01*
X0226409Y0293408D01*
X0226457Y0293767D01*
X0226514Y0294125D01*
X0226579Y0294482D01*
X0226653Y0294837D01*
X0226736Y0295190D01*
X0226827Y0295541D01*
X0226926Y0295889D01*
X0227034Y0296235D01*
X0227150Y0296579D01*
X0227275Y0296919D01*
X0227407Y0297256D01*
X0227548Y0297590D01*
X0227697Y0297921D01*
X0227854Y0298248D01*
X0228018Y0298571D01*
X0228190Y0298890D01*
X0228370Y0299204D01*
X0228558Y0299515D01*
X0228753Y0299820D01*
X0228955Y0300121D01*
X0229165Y0300417D01*
X0229381Y0300707D01*
X0229605Y0300993D01*
X0229835Y0301273D01*
X0230072Y0301547D01*
X0230316Y0301815D01*
X0230566Y0302078D01*
X0230822Y0302334D01*
X0231085Y0302584D01*
X0231353Y0302828D01*
X0231627Y0303065D01*
X0231907Y0303295D01*
X0232193Y0303519D01*
X0232483Y0303735D01*
X0232779Y0303945D01*
X0233080Y0304147D01*
X0233385Y0304342D01*
X0233696Y0304530D01*
X0234010Y0304710D01*
X0234329Y0304882D01*
X0234652Y0305046D01*
X0234979Y0305203D01*
X0235310Y0305352D01*
X0235644Y0305493D01*
X0235981Y0305625D01*
X0236321Y0305750D01*
X0236665Y0305866D01*
X0237011Y0305974D01*
X0237359Y0306073D01*
X0237710Y0306164D01*
X0238063Y0306247D01*
X0238418Y0306321D01*
X0238775Y0306386D01*
X0239133Y0306443D01*
X0239492Y0306491D01*
X0239852Y0306530D01*
X0240213Y0306561D01*
X0240575Y0306582D01*
X0240938Y0306596D01*
X0241300Y0306600D01*
X0411300Y0306600D01*
X0411662Y0306596D01*
X0412025Y0306582D01*
X0412387Y0306561D01*
X0412748Y0306530D01*
X0413108Y0306491D01*
X0413467Y0306443D01*
X0413825Y0306386D01*
X0414182Y0306321D01*
X0414537Y0306247D01*
X0414890Y0306164D01*
X0415241Y0306073D01*
X0415589Y0305974D01*
X0415935Y0305866D01*
X0416279Y0305750D01*
X0416619Y0305625D01*
X0416956Y0305493D01*
X0417290Y0305352D01*
X0417621Y0305203D01*
X0417948Y0305046D01*
X0418271Y0304882D01*
X0418590Y0304710D01*
X0418904Y0304530D01*
X0419215Y0304342D01*
X0419520Y0304147D01*
X0419821Y0303945D01*
X0420117Y0303735D01*
X0420407Y0303519D01*
X0420693Y0303295D01*
X0420973Y0303065D01*
X0421247Y0302828D01*
X0421515Y0302584D01*
X0421778Y0302334D01*
X0422034Y0302078D01*
X0422284Y0301815D01*
X0422528Y0301547D01*
X0422765Y0301273D01*
X0422995Y0300993D01*
X0423219Y0300707D01*
X0423435Y0300417D01*
X0423645Y0300121D01*
X0423847Y0299820D01*
X0424042Y0299515D01*
X0424230Y0299204D01*
X0424410Y0298890D01*
X0424582Y0298571D01*
X0424746Y0298248D01*
X0424903Y0297921D01*
X0425052Y0297590D01*
X0425193Y0297256D01*
X0425325Y0296919D01*
X0425450Y0296579D01*
X0425566Y0296235D01*
X0425674Y0295889D01*
X0425773Y0295541D01*
X0425864Y0295190D01*
X0425947Y0294837D01*
X0426021Y0294482D01*
X0426086Y0294125D01*
X0426143Y0293767D01*
X0426191Y0293408D01*
X0426230Y0293048D01*
X0426261Y0292687D01*
X0426282Y0292325D01*
X0426296Y0291962D01*
X0426300Y0291600D01*
X0426300Y0021600D01*
X0426296Y0021238D01*
X0426282Y0020875D01*
X0426261Y0020513D01*
X0426230Y0020152D01*
X0426191Y0019792D01*
X0426143Y0019433D01*
X0426086Y0019075D01*
X0426021Y0018718D01*
X0425947Y0018363D01*
X0425864Y0018010D01*
X0425773Y0017659D01*
X0425674Y0017311D01*
X0425566Y0016965D01*
X0425450Y0016621D01*
X0425325Y0016281D01*
X0425193Y0015944D01*
X0425052Y0015610D01*
X0424903Y0015279D01*
X0424746Y0014952D01*
X0424582Y0014629D01*
X0424410Y0014310D01*
X0424230Y0013996D01*
X0424042Y0013685D01*
X0423847Y0013380D01*
X0423645Y0013079D01*
X0423435Y0012783D01*
X0423219Y0012493D01*
X0422995Y0012207D01*
X0422765Y0011927D01*
X0422528Y0011653D01*
X0422284Y0011385D01*
X0422034Y0011122D01*
X0421778Y0010866D01*
X0421515Y0010616D01*
X0421247Y0010372D01*
X0420973Y0010135D01*
X0420693Y0009905D01*
X0420407Y0009681D01*
X0420117Y0009465D01*
X0419821Y0009255D01*
X0419520Y0009053D01*
X0419215Y0008858D01*
X0418904Y0008670D01*
X0418590Y0008490D01*
X0418271Y0008318D01*
X0417948Y0008154D01*
X0417621Y0007997D01*
X0417290Y0007848D01*
X0416956Y0007707D01*
X0416619Y0007575D01*
X0416279Y0007450D01*
X0415935Y0007334D01*
X0415589Y0007226D01*
X0415241Y0007127D01*
X0414890Y0007036D01*
X0414537Y0006953D01*
X0414182Y0006879D01*
X0413825Y0006814D01*
X0413467Y0006757D01*
X0413108Y0006709D01*
X0412748Y0006670D01*
X0412387Y0006639D01*
X0412025Y0006618D01*
X0411662Y0006604D01*
X0411300Y0006600D01*
X0381300Y0006600D01*
X0381202Y0006602D01*
X0381104Y0006608D01*
X0381006Y0006617D01*
X0380909Y0006631D01*
X0380812Y0006648D01*
X0380716Y0006669D01*
X0380621Y0006694D01*
X0380527Y0006722D01*
X0380435Y0006755D01*
X0380343Y0006790D01*
X0380253Y0006830D01*
X0380165Y0006872D01*
X0380078Y0006919D01*
X0379994Y0006968D01*
X0379911Y0007021D01*
X0379831Y0007077D01*
X0379752Y0007137D01*
X0379676Y0007199D01*
X0379603Y0007264D01*
X0379532Y0007332D01*
X0379464Y0007403D01*
X0379399Y0007476D01*
X0379337Y0007552D01*
X0379277Y0007631D01*
X0379221Y0007711D01*
X0379168Y0007794D01*
X0379119Y0007878D01*
X0379072Y0007965D01*
X0379030Y0008053D01*
X0378990Y0008143D01*
X0378955Y0008235D01*
X0378922Y0008327D01*
X0378894Y0008421D01*
X0378869Y0008516D01*
X0378848Y0008612D01*
X0378831Y0008709D01*
X0378817Y0008806D01*
X0378808Y0008904D01*
X0378802Y0009002D01*
X0378800Y0009100D01*
X0378800Y0036600D01*
X0378798Y0036698D01*
X0378792Y0036796D01*
X0378783Y0036894D01*
X0378769Y0036991D01*
X0378752Y0037088D01*
X0378731Y0037184D01*
X0378706Y0037279D01*
X0378678Y0037373D01*
X0378645Y0037465D01*
X0378610Y0037557D01*
X0378570Y0037647D01*
X0378528Y0037735D01*
X0378481Y0037822D01*
X0378432Y0037906D01*
X0378379Y0037989D01*
X0378323Y0038069D01*
X0378263Y0038148D01*
X0378201Y0038224D01*
X0378136Y0038297D01*
X0378068Y0038368D01*
X0377997Y0038436D01*
X0377924Y0038501D01*
X0377848Y0038563D01*
X0377769Y0038623D01*
X0377689Y0038679D01*
X0377606Y0038732D01*
X0377522Y0038781D01*
X0377435Y0038828D01*
X0377347Y0038870D01*
X0377257Y0038910D01*
X0377165Y0038945D01*
X0377073Y0038978D01*
X0376979Y0039006D01*
X0376884Y0039031D01*
X0376788Y0039052D01*
X0376691Y0039069D01*
X0376594Y0039083D01*
X0376496Y0039092D01*
X0376398Y0039098D01*
X0376300Y0039100D01*
X0316300Y0039100D01*
X0316202Y0039098D01*
X0316104Y0039092D01*
X0316006Y0039083D01*
X0315909Y0039069D01*
X0315812Y0039052D01*
X0315716Y0039031D01*
X0315621Y0039006D01*
X0315527Y0038978D01*
X0315435Y0038945D01*
X0315343Y0038910D01*
X0315253Y0038870D01*
X0315165Y0038828D01*
X0315078Y0038781D01*
X0314994Y0038732D01*
X0314911Y0038679D01*
X0314831Y0038623D01*
X0314752Y0038563D01*
X0314676Y0038501D01*
X0314603Y0038436D01*
X0314532Y0038368D01*
X0314464Y0038297D01*
X0314399Y0038224D01*
X0314337Y0038148D01*
X0314277Y0038069D01*
X0314221Y0037989D01*
X0314168Y0037906D01*
X0314119Y0037822D01*
X0314072Y0037735D01*
X0314030Y0037647D01*
X0313990Y0037557D01*
X0313955Y0037465D01*
X0313922Y0037373D01*
X0313894Y0037279D01*
X0313869Y0037184D01*
X0313848Y0037088D01*
X0313831Y0036991D01*
X0313817Y0036894D01*
X0313808Y0036796D01*
X0313802Y0036698D01*
X0313800Y0036600D01*
X0313800Y0009100D01*
X0313798Y0009002D01*
X0313792Y0008904D01*
X0313783Y0008806D01*
X0313769Y0008709D01*
X0313752Y0008612D01*
X0313731Y0008516D01*
X0313706Y0008421D01*
X0313678Y0008327D01*
X0313645Y0008235D01*
X0313610Y0008143D01*
X0313570Y0008053D01*
X0313528Y0007965D01*
X0313481Y0007878D01*
X0313432Y0007794D01*
X0313379Y0007711D01*
X0313323Y0007631D01*
X0313263Y0007552D01*
X0313201Y0007476D01*
X0313136Y0007403D01*
X0313068Y0007332D01*
X0312997Y0007264D01*
X0312924Y0007199D01*
X0312848Y0007137D01*
X0312769Y0007077D01*
X0312689Y0007021D01*
X0312606Y0006968D01*
X0312522Y0006919D01*
X0312435Y0006872D01*
X0312347Y0006830D01*
X0312257Y0006790D01*
X0312165Y0006755D01*
X0312073Y0006722D01*
X0311979Y0006694D01*
X0311884Y0006669D01*
X0311788Y0006648D01*
X0311691Y0006631D01*
X0311594Y0006617D01*
X0311496Y0006608D01*
X0311398Y0006602D01*
X0311300Y0006600D01*
X0241300Y0006600D01*
X0240938Y0006604D01*
X0240575Y0006618D01*
X0240213Y0006639D01*
X0239852Y0006670D01*
X0239492Y0006709D01*
X0239133Y0006757D01*
X0238775Y0006814D01*
X0238418Y0006879D01*
X0238063Y0006953D01*
X0237710Y0007036D01*
X0237359Y0007127D01*
X0237011Y0007226D01*
X0236665Y0007334D01*
X0236321Y0007450D01*
X0235981Y0007575D01*
X0235644Y0007707D01*
X0235310Y0007848D01*
X0234979Y0007997D01*
X0234652Y0008154D01*
X0234329Y0008318D01*
X0234010Y0008490D01*
X0233696Y0008670D01*
X0233385Y0008858D01*
X0233080Y0009053D01*
X0232779Y0009255D01*
X0232483Y0009465D01*
X0232193Y0009681D01*
X0231907Y0009905D01*
X0231627Y0010135D01*
X0231353Y0010372D01*
X0231085Y0010616D01*
X0230822Y0010866D01*
X0230566Y0011122D01*
X0230316Y0011385D01*
X0230072Y0011653D01*
X0229835Y0011927D01*
X0229605Y0012207D01*
X0229381Y0012493D01*
X0229165Y0012783D01*
X0228955Y0013079D01*
X0228753Y0013380D01*
X0228558Y0013685D01*
X0228370Y0013996D01*
X0228190Y0014310D01*
X0228018Y0014629D01*
X0227854Y0014952D01*
X0227697Y0015279D01*
X0227548Y0015610D01*
X0227407Y0015944D01*
X0227275Y0016281D01*
X0227150Y0016621D01*
X0227034Y0016965D01*
X0226926Y0017311D01*
X0226827Y0017659D01*
X0226736Y0018010D01*
X0226653Y0018363D01*
X0226579Y0018718D01*
X0226514Y0019075D01*
X0226457Y0019433D01*
X0226409Y0019792D01*
X0226370Y0020152D01*
X0226339Y0020513D01*
X0226318Y0020875D01*
X0226304Y0021238D01*
X0226300Y0021600D01*
X0226300Y0081600D01*
X0226298Y0081698D01*
X0226292Y0081796D01*
X0226283Y0081894D01*
X0226269Y0081991D01*
X0226252Y0082088D01*
X0226231Y0082184D01*
X0226206Y0082279D01*
X0226178Y0082373D01*
X0226145Y0082465D01*
X0226110Y0082557D01*
X0226070Y0082647D01*
X0226028Y0082735D01*
X0225981Y0082822D01*
X0225932Y0082906D01*
X0225879Y0082989D01*
X0225823Y0083069D01*
X0225763Y0083148D01*
X0225701Y0083224D01*
X0225636Y0083297D01*
X0225568Y0083368D01*
X0225497Y0083436D01*
X0225424Y0083501D01*
X0225348Y0083563D01*
X0225269Y0083623D01*
X0225189Y0083679D01*
X0225106Y0083732D01*
X0225022Y0083781D01*
X0224935Y0083828D01*
X0224847Y0083870D01*
X0224757Y0083910D01*
X0224665Y0083945D01*
X0224573Y0083978D01*
X0224479Y0084006D01*
X0224384Y0084031D01*
X0224288Y0084052D01*
X0224191Y0084069D01*
X0224094Y0084083D01*
X0223996Y0084092D01*
X0223898Y0084098D01*
X0223800Y0084100D01*
X0223702Y0084098D01*
X0223604Y0084092D01*
X0223506Y0084083D01*
X0223409Y0084069D01*
X0223312Y0084052D01*
X0223216Y0084031D01*
X0223121Y0084006D01*
X0223027Y0083978D01*
X0222935Y0083945D01*
X0222843Y0083910D01*
X0222753Y0083870D01*
X0222665Y0083828D01*
X0222578Y0083781D01*
X0222494Y0083732D01*
X0222411Y0083679D01*
X0222331Y0083623D01*
X0222252Y0083563D01*
X0222176Y0083501D01*
X0222103Y0083436D01*
X0222032Y0083368D01*
X0221964Y0083297D01*
X0221899Y0083224D01*
X0221837Y0083148D01*
X0221777Y0083069D01*
X0221721Y0082989D01*
X0221668Y0082906D01*
X0221619Y0082822D01*
X0221572Y0082735D01*
X0221530Y0082647D01*
X0221490Y0082557D01*
X0221455Y0082465D01*
X0221422Y0082373D01*
X0221394Y0082279D01*
X0221369Y0082184D01*
X0221348Y0082088D01*
X0221331Y0081991D01*
X0221317Y0081894D01*
X0221308Y0081796D01*
X0221302Y0081698D01*
X0221300Y0081600D01*
X0221300Y0021600D01*
X0221296Y0021238D01*
X0221282Y0020875D01*
X0221261Y0020513D01*
X0221230Y0020152D01*
X0221191Y0019792D01*
X0221143Y0019433D01*
X0221086Y0019075D01*
X0221021Y0018718D01*
X0220947Y0018363D01*
X0220864Y0018010D01*
X0220773Y0017659D01*
X0220674Y0017311D01*
X0220566Y0016965D01*
X0220450Y0016621D01*
X0220325Y0016281D01*
X0220193Y0015944D01*
X0220052Y0015610D01*
X0219903Y0015279D01*
X0219746Y0014952D01*
X0219582Y0014629D01*
X0219410Y0014310D01*
X0219230Y0013996D01*
X0219042Y0013685D01*
X0218847Y0013380D01*
X0218645Y0013079D01*
X0218435Y0012783D01*
X0218219Y0012493D01*
X0217995Y0012207D01*
X0217765Y0011927D01*
X0217528Y0011653D01*
X0217284Y0011385D01*
X0217034Y0011122D01*
X0216778Y0010866D01*
X0216515Y0010616D01*
X0216247Y0010372D01*
X0215973Y0010135D01*
X0215693Y0009905D01*
X0215407Y0009681D01*
X0215117Y0009465D01*
X0214821Y0009255D01*
X0214520Y0009053D01*
X0214215Y0008858D01*
X0213904Y0008670D01*
X0213590Y0008490D01*
X0213271Y0008318D01*
X0212948Y0008154D01*
X0212621Y0007997D01*
X0212290Y0007848D01*
X0211956Y0007707D01*
X0211619Y0007575D01*
X0211279Y0007450D01*
X0210935Y0007334D01*
X0210589Y0007226D01*
X0210241Y0007127D01*
X0209890Y0007036D01*
X0209537Y0006953D01*
X0209182Y0006879D01*
X0208825Y0006814D01*
X0208467Y0006757D01*
X0208108Y0006709D01*
X0207748Y0006670D01*
X0207387Y0006639D01*
X0207025Y0006618D01*
X0206662Y0006604D01*
X0206300Y0006600D01*
X0036300Y0006600D01*
X0035938Y0006604D01*
X0035575Y0006618D01*
X0035213Y0006639D01*
X0034852Y0006670D01*
X0034492Y0006709D01*
X0034133Y0006757D01*
X0033775Y0006814D01*
X0033418Y0006879D01*
X0033063Y0006953D01*
X0032710Y0007036D01*
X0032359Y0007127D01*
X0032011Y0007226D01*
X0031665Y0007334D01*
X0031321Y0007450D01*
X0030981Y0007575D01*
X0030644Y0007707D01*
X0030310Y0007848D01*
X0029979Y0007997D01*
X0029652Y0008154D01*
X0029329Y0008318D01*
X0029010Y0008490D01*
X0028696Y0008670D01*
X0028385Y0008858D01*
X0028080Y0009053D01*
X0027779Y0009255D01*
X0027483Y0009465D01*
X0027193Y0009681D01*
X0026907Y0009905D01*
X0026627Y0010135D01*
X0026353Y0010372D01*
X0026085Y0010616D01*
X0025822Y0010866D01*
X0025566Y0011122D01*
X0025316Y0011385D01*
X0025072Y0011653D01*
X0024835Y0011927D01*
X0024605Y0012207D01*
X0024381Y0012493D01*
X0024165Y0012783D01*
X0023955Y0013079D01*
X0023753Y0013380D01*
X0023558Y0013685D01*
X0023370Y0013996D01*
X0023190Y0014310D01*
X0023018Y0014629D01*
X0022854Y0014952D01*
X0022697Y0015279D01*
X0022548Y0015610D01*
X0022407Y0015944D01*
X0022275Y0016281D01*
X0022150Y0016621D01*
X0022034Y0016965D01*
X0021926Y0017311D01*
X0021827Y0017659D01*
X0021736Y0018010D01*
X0021653Y0018363D01*
X0021579Y0018718D01*
X0021514Y0019075D01*
X0021457Y0019433D01*
X0021409Y0019792D01*
X0021370Y0020152D01*
X0021339Y0020513D01*
X0021318Y0020875D01*
X0021304Y0021238D01*
X0021300Y0021600D01*
X0221300Y0101600D02*
X0221300Y0146600D01*
X0221302Y0146698D01*
X0221308Y0146796D01*
X0221317Y0146894D01*
X0221331Y0146991D01*
X0221348Y0147088D01*
X0221369Y0147184D01*
X0221394Y0147279D01*
X0221422Y0147373D01*
X0221455Y0147465D01*
X0221490Y0147557D01*
X0221530Y0147647D01*
X0221572Y0147735D01*
X0221619Y0147822D01*
X0221668Y0147906D01*
X0221721Y0147989D01*
X0221777Y0148069D01*
X0221837Y0148148D01*
X0221899Y0148224D01*
X0221964Y0148297D01*
X0222032Y0148368D01*
X0222103Y0148436D01*
X0222176Y0148501D01*
X0222252Y0148563D01*
X0222331Y0148623D01*
X0222411Y0148679D01*
X0222494Y0148732D01*
X0222578Y0148781D01*
X0222665Y0148828D01*
X0222753Y0148870D01*
X0222843Y0148910D01*
X0222935Y0148945D01*
X0223027Y0148978D01*
X0223121Y0149006D01*
X0223216Y0149031D01*
X0223312Y0149052D01*
X0223409Y0149069D01*
X0223506Y0149083D01*
X0223604Y0149092D01*
X0223702Y0149098D01*
X0223800Y0149100D01*
X0223898Y0149098D01*
X0223996Y0149092D01*
X0224094Y0149083D01*
X0224191Y0149069D01*
X0224288Y0149052D01*
X0224384Y0149031D01*
X0224479Y0149006D01*
X0224573Y0148978D01*
X0224665Y0148945D01*
X0224757Y0148910D01*
X0224847Y0148870D01*
X0224935Y0148828D01*
X0225022Y0148781D01*
X0225106Y0148732D01*
X0225189Y0148679D01*
X0225269Y0148623D01*
X0225348Y0148563D01*
X0225424Y0148501D01*
X0225497Y0148436D01*
X0225568Y0148368D01*
X0225636Y0148297D01*
X0225701Y0148224D01*
X0225763Y0148148D01*
X0225823Y0148069D01*
X0225879Y0147989D01*
X0225932Y0147906D01*
X0225981Y0147822D01*
X0226028Y0147735D01*
X0226070Y0147647D01*
X0226110Y0147557D01*
X0226145Y0147465D01*
X0226178Y0147373D01*
X0226206Y0147279D01*
X0226231Y0147184D01*
X0226252Y0147088D01*
X0226269Y0146991D01*
X0226283Y0146894D01*
X0226292Y0146796D01*
X0226298Y0146698D01*
X0226300Y0146600D01*
X0226300Y0101600D01*
X0226298Y0101502D01*
X0226292Y0101404D01*
X0226283Y0101306D01*
X0226269Y0101209D01*
X0226252Y0101112D01*
X0226231Y0101016D01*
X0226206Y0100921D01*
X0226178Y0100827D01*
X0226145Y0100735D01*
X0226110Y0100643D01*
X0226070Y0100553D01*
X0226028Y0100465D01*
X0225981Y0100378D01*
X0225932Y0100294D01*
X0225879Y0100211D01*
X0225823Y0100131D01*
X0225763Y0100052D01*
X0225701Y0099976D01*
X0225636Y0099903D01*
X0225568Y0099832D01*
X0225497Y0099764D01*
X0225424Y0099699D01*
X0225348Y0099637D01*
X0225269Y0099577D01*
X0225189Y0099521D01*
X0225106Y0099468D01*
X0225022Y0099419D01*
X0224935Y0099372D01*
X0224847Y0099330D01*
X0224757Y0099290D01*
X0224665Y0099255D01*
X0224573Y0099222D01*
X0224479Y0099194D01*
X0224384Y0099169D01*
X0224288Y0099148D01*
X0224191Y0099131D01*
X0224094Y0099117D01*
X0223996Y0099108D01*
X0223898Y0099102D01*
X0223800Y0099100D01*
X0223702Y0099102D01*
X0223604Y0099108D01*
X0223506Y0099117D01*
X0223409Y0099131D01*
X0223312Y0099148D01*
X0223216Y0099169D01*
X0223121Y0099194D01*
X0223027Y0099222D01*
X0222935Y0099255D01*
X0222843Y0099290D01*
X0222753Y0099330D01*
X0222665Y0099372D01*
X0222578Y0099419D01*
X0222494Y0099468D01*
X0222411Y0099521D01*
X0222331Y0099577D01*
X0222252Y0099637D01*
X0222176Y0099699D01*
X0222103Y0099764D01*
X0222032Y0099832D01*
X0221964Y0099903D01*
X0221899Y0099976D01*
X0221837Y0100052D01*
X0221777Y0100131D01*
X0221721Y0100211D01*
X0221668Y0100294D01*
X0221619Y0100378D01*
X0221572Y0100465D01*
X0221530Y0100553D01*
X0221490Y0100643D01*
X0221455Y0100735D01*
X0221422Y0100827D01*
X0221394Y0100921D01*
X0221369Y0101016D01*
X0221348Y0101112D01*
X0221331Y0101209D01*
X0221317Y0101306D01*
X0221308Y0101404D01*
X0221302Y0101502D01*
X0221300Y0101600D01*
X0222619Y0096600D02*
X0222621Y0096669D01*
X0222627Y0096737D01*
X0222637Y0096805D01*
X0222651Y0096872D01*
X0222669Y0096939D01*
X0222690Y0097004D01*
X0222716Y0097068D01*
X0222745Y0097130D01*
X0222777Y0097190D01*
X0222813Y0097249D01*
X0222853Y0097305D01*
X0222895Y0097359D01*
X0222941Y0097410D01*
X0222990Y0097459D01*
X0223041Y0097505D01*
X0223095Y0097547D01*
X0223151Y0097587D01*
X0223209Y0097623D01*
X0223270Y0097655D01*
X0223332Y0097684D01*
X0223396Y0097710D01*
X0223461Y0097731D01*
X0223528Y0097749D01*
X0223595Y0097763D01*
X0223663Y0097773D01*
X0223731Y0097779D01*
X0223800Y0097781D01*
X0223869Y0097779D01*
X0223937Y0097773D01*
X0224005Y0097763D01*
X0224072Y0097749D01*
X0224139Y0097731D01*
X0224204Y0097710D01*
X0224268Y0097684D01*
X0224330Y0097655D01*
X0224390Y0097623D01*
X0224449Y0097587D01*
X0224505Y0097547D01*
X0224559Y0097505D01*
X0224610Y0097459D01*
X0224659Y0097410D01*
X0224705Y0097359D01*
X0224747Y0097305D01*
X0224787Y0097249D01*
X0224823Y0097190D01*
X0224855Y0097130D01*
X0224884Y0097068D01*
X0224910Y0097004D01*
X0224931Y0096939D01*
X0224949Y0096872D01*
X0224963Y0096805D01*
X0224973Y0096737D01*
X0224979Y0096669D01*
X0224981Y0096600D01*
X0224979Y0096531D01*
X0224973Y0096463D01*
X0224963Y0096395D01*
X0224949Y0096328D01*
X0224931Y0096261D01*
X0224910Y0096196D01*
X0224884Y0096132D01*
X0224855Y0096070D01*
X0224823Y0096009D01*
X0224787Y0095951D01*
X0224747Y0095895D01*
X0224705Y0095841D01*
X0224659Y0095790D01*
X0224610Y0095741D01*
X0224559Y0095695D01*
X0224505Y0095653D01*
X0224449Y0095613D01*
X0224391Y0095577D01*
X0224330Y0095545D01*
X0224268Y0095516D01*
X0224204Y0095490D01*
X0224139Y0095469D01*
X0224072Y0095451D01*
X0224005Y0095437D01*
X0223937Y0095427D01*
X0223869Y0095421D01*
X0223800Y0095419D01*
X0223731Y0095421D01*
X0223663Y0095427D01*
X0223595Y0095437D01*
X0223528Y0095451D01*
X0223461Y0095469D01*
X0223396Y0095490D01*
X0223332Y0095516D01*
X0223270Y0095545D01*
X0223209Y0095577D01*
X0223151Y0095613D01*
X0223095Y0095653D01*
X0223041Y0095695D01*
X0222990Y0095741D01*
X0222941Y0095790D01*
X0222895Y0095841D01*
X0222853Y0095895D01*
X0222813Y0095951D01*
X0222777Y0096009D01*
X0222745Y0096070D01*
X0222716Y0096132D01*
X0222690Y0096196D01*
X0222669Y0096261D01*
X0222651Y0096328D01*
X0222637Y0096395D01*
X0222627Y0096463D01*
X0222621Y0096531D01*
X0222619Y0096600D01*
X0222619Y0091600D02*
X0222621Y0091669D01*
X0222627Y0091737D01*
X0222637Y0091805D01*
X0222651Y0091872D01*
X0222669Y0091939D01*
X0222690Y0092004D01*
X0222716Y0092068D01*
X0222745Y0092130D01*
X0222777Y0092190D01*
X0222813Y0092249D01*
X0222853Y0092305D01*
X0222895Y0092359D01*
X0222941Y0092410D01*
X0222990Y0092459D01*
X0223041Y0092505D01*
X0223095Y0092547D01*
X0223151Y0092587D01*
X0223209Y0092623D01*
X0223270Y0092655D01*
X0223332Y0092684D01*
X0223396Y0092710D01*
X0223461Y0092731D01*
X0223528Y0092749D01*
X0223595Y0092763D01*
X0223663Y0092773D01*
X0223731Y0092779D01*
X0223800Y0092781D01*
X0223869Y0092779D01*
X0223937Y0092773D01*
X0224005Y0092763D01*
X0224072Y0092749D01*
X0224139Y0092731D01*
X0224204Y0092710D01*
X0224268Y0092684D01*
X0224330Y0092655D01*
X0224390Y0092623D01*
X0224449Y0092587D01*
X0224505Y0092547D01*
X0224559Y0092505D01*
X0224610Y0092459D01*
X0224659Y0092410D01*
X0224705Y0092359D01*
X0224747Y0092305D01*
X0224787Y0092249D01*
X0224823Y0092190D01*
X0224855Y0092130D01*
X0224884Y0092068D01*
X0224910Y0092004D01*
X0224931Y0091939D01*
X0224949Y0091872D01*
X0224963Y0091805D01*
X0224973Y0091737D01*
X0224979Y0091669D01*
X0224981Y0091600D01*
X0224979Y0091531D01*
X0224973Y0091463D01*
X0224963Y0091395D01*
X0224949Y0091328D01*
X0224931Y0091261D01*
X0224910Y0091196D01*
X0224884Y0091132D01*
X0224855Y0091070D01*
X0224823Y0091009D01*
X0224787Y0090951D01*
X0224747Y0090895D01*
X0224705Y0090841D01*
X0224659Y0090790D01*
X0224610Y0090741D01*
X0224559Y0090695D01*
X0224505Y0090653D01*
X0224449Y0090613D01*
X0224391Y0090577D01*
X0224330Y0090545D01*
X0224268Y0090516D01*
X0224204Y0090490D01*
X0224139Y0090469D01*
X0224072Y0090451D01*
X0224005Y0090437D01*
X0223937Y0090427D01*
X0223869Y0090421D01*
X0223800Y0090419D01*
X0223731Y0090421D01*
X0223663Y0090427D01*
X0223595Y0090437D01*
X0223528Y0090451D01*
X0223461Y0090469D01*
X0223396Y0090490D01*
X0223332Y0090516D01*
X0223270Y0090545D01*
X0223209Y0090577D01*
X0223151Y0090613D01*
X0223095Y0090653D01*
X0223041Y0090695D01*
X0222990Y0090741D01*
X0222941Y0090790D01*
X0222895Y0090841D01*
X0222853Y0090895D01*
X0222813Y0090951D01*
X0222777Y0091009D01*
X0222745Y0091070D01*
X0222716Y0091132D01*
X0222690Y0091196D01*
X0222669Y0091261D01*
X0222651Y0091328D01*
X0222637Y0091395D01*
X0222627Y0091463D01*
X0222621Y0091531D01*
X0222619Y0091600D01*
X0222619Y0086600D02*
X0222621Y0086669D01*
X0222627Y0086737D01*
X0222637Y0086805D01*
X0222651Y0086872D01*
X0222669Y0086939D01*
X0222690Y0087004D01*
X0222716Y0087068D01*
X0222745Y0087130D01*
X0222777Y0087190D01*
X0222813Y0087249D01*
X0222853Y0087305D01*
X0222895Y0087359D01*
X0222941Y0087410D01*
X0222990Y0087459D01*
X0223041Y0087505D01*
X0223095Y0087547D01*
X0223151Y0087587D01*
X0223209Y0087623D01*
X0223270Y0087655D01*
X0223332Y0087684D01*
X0223396Y0087710D01*
X0223461Y0087731D01*
X0223528Y0087749D01*
X0223595Y0087763D01*
X0223663Y0087773D01*
X0223731Y0087779D01*
X0223800Y0087781D01*
X0223869Y0087779D01*
X0223937Y0087773D01*
X0224005Y0087763D01*
X0224072Y0087749D01*
X0224139Y0087731D01*
X0224204Y0087710D01*
X0224268Y0087684D01*
X0224330Y0087655D01*
X0224390Y0087623D01*
X0224449Y0087587D01*
X0224505Y0087547D01*
X0224559Y0087505D01*
X0224610Y0087459D01*
X0224659Y0087410D01*
X0224705Y0087359D01*
X0224747Y0087305D01*
X0224787Y0087249D01*
X0224823Y0087190D01*
X0224855Y0087130D01*
X0224884Y0087068D01*
X0224910Y0087004D01*
X0224931Y0086939D01*
X0224949Y0086872D01*
X0224963Y0086805D01*
X0224973Y0086737D01*
X0224979Y0086669D01*
X0224981Y0086600D01*
X0224979Y0086531D01*
X0224973Y0086463D01*
X0224963Y0086395D01*
X0224949Y0086328D01*
X0224931Y0086261D01*
X0224910Y0086196D01*
X0224884Y0086132D01*
X0224855Y0086070D01*
X0224823Y0086009D01*
X0224787Y0085951D01*
X0224747Y0085895D01*
X0224705Y0085841D01*
X0224659Y0085790D01*
X0224610Y0085741D01*
X0224559Y0085695D01*
X0224505Y0085653D01*
X0224449Y0085613D01*
X0224391Y0085577D01*
X0224330Y0085545D01*
X0224268Y0085516D01*
X0224204Y0085490D01*
X0224139Y0085469D01*
X0224072Y0085451D01*
X0224005Y0085437D01*
X0223937Y0085427D01*
X0223869Y0085421D01*
X0223800Y0085419D01*
X0223731Y0085421D01*
X0223663Y0085427D01*
X0223595Y0085437D01*
X0223528Y0085451D01*
X0223461Y0085469D01*
X0223396Y0085490D01*
X0223332Y0085516D01*
X0223270Y0085545D01*
X0223209Y0085577D01*
X0223151Y0085613D01*
X0223095Y0085653D01*
X0223041Y0085695D01*
X0222990Y0085741D01*
X0222941Y0085790D01*
X0222895Y0085841D01*
X0222853Y0085895D01*
X0222813Y0085951D01*
X0222777Y0086009D01*
X0222745Y0086070D01*
X0222716Y0086132D01*
X0222690Y0086196D01*
X0222669Y0086261D01*
X0222651Y0086328D01*
X0222637Y0086395D01*
X0222627Y0086463D01*
X0222621Y0086531D01*
X0222619Y0086600D01*
X0222619Y0151600D02*
X0222621Y0151669D01*
X0222627Y0151737D01*
X0222637Y0151805D01*
X0222651Y0151872D01*
X0222669Y0151939D01*
X0222690Y0152004D01*
X0222716Y0152068D01*
X0222745Y0152130D01*
X0222777Y0152190D01*
X0222813Y0152249D01*
X0222853Y0152305D01*
X0222895Y0152359D01*
X0222941Y0152410D01*
X0222990Y0152459D01*
X0223041Y0152505D01*
X0223095Y0152547D01*
X0223151Y0152587D01*
X0223209Y0152623D01*
X0223270Y0152655D01*
X0223332Y0152684D01*
X0223396Y0152710D01*
X0223461Y0152731D01*
X0223528Y0152749D01*
X0223595Y0152763D01*
X0223663Y0152773D01*
X0223731Y0152779D01*
X0223800Y0152781D01*
X0223869Y0152779D01*
X0223937Y0152773D01*
X0224005Y0152763D01*
X0224072Y0152749D01*
X0224139Y0152731D01*
X0224204Y0152710D01*
X0224268Y0152684D01*
X0224330Y0152655D01*
X0224390Y0152623D01*
X0224449Y0152587D01*
X0224505Y0152547D01*
X0224559Y0152505D01*
X0224610Y0152459D01*
X0224659Y0152410D01*
X0224705Y0152359D01*
X0224747Y0152305D01*
X0224787Y0152249D01*
X0224823Y0152190D01*
X0224855Y0152130D01*
X0224884Y0152068D01*
X0224910Y0152004D01*
X0224931Y0151939D01*
X0224949Y0151872D01*
X0224963Y0151805D01*
X0224973Y0151737D01*
X0224979Y0151669D01*
X0224981Y0151600D01*
X0224979Y0151531D01*
X0224973Y0151463D01*
X0224963Y0151395D01*
X0224949Y0151328D01*
X0224931Y0151261D01*
X0224910Y0151196D01*
X0224884Y0151132D01*
X0224855Y0151070D01*
X0224823Y0151009D01*
X0224787Y0150951D01*
X0224747Y0150895D01*
X0224705Y0150841D01*
X0224659Y0150790D01*
X0224610Y0150741D01*
X0224559Y0150695D01*
X0224505Y0150653D01*
X0224449Y0150613D01*
X0224391Y0150577D01*
X0224330Y0150545D01*
X0224268Y0150516D01*
X0224204Y0150490D01*
X0224139Y0150469D01*
X0224072Y0150451D01*
X0224005Y0150437D01*
X0223937Y0150427D01*
X0223869Y0150421D01*
X0223800Y0150419D01*
X0223731Y0150421D01*
X0223663Y0150427D01*
X0223595Y0150437D01*
X0223528Y0150451D01*
X0223461Y0150469D01*
X0223396Y0150490D01*
X0223332Y0150516D01*
X0223270Y0150545D01*
X0223209Y0150577D01*
X0223151Y0150613D01*
X0223095Y0150653D01*
X0223041Y0150695D01*
X0222990Y0150741D01*
X0222941Y0150790D01*
X0222895Y0150841D01*
X0222853Y0150895D01*
X0222813Y0150951D01*
X0222777Y0151009D01*
X0222745Y0151070D01*
X0222716Y0151132D01*
X0222690Y0151196D01*
X0222669Y0151261D01*
X0222651Y0151328D01*
X0222637Y0151395D01*
X0222627Y0151463D01*
X0222621Y0151531D01*
X0222619Y0151600D01*
X0222619Y0156600D02*
X0222621Y0156669D01*
X0222627Y0156737D01*
X0222637Y0156805D01*
X0222651Y0156872D01*
X0222669Y0156939D01*
X0222690Y0157004D01*
X0222716Y0157068D01*
X0222745Y0157130D01*
X0222777Y0157190D01*
X0222813Y0157249D01*
X0222853Y0157305D01*
X0222895Y0157359D01*
X0222941Y0157410D01*
X0222990Y0157459D01*
X0223041Y0157505D01*
X0223095Y0157547D01*
X0223151Y0157587D01*
X0223209Y0157623D01*
X0223270Y0157655D01*
X0223332Y0157684D01*
X0223396Y0157710D01*
X0223461Y0157731D01*
X0223528Y0157749D01*
X0223595Y0157763D01*
X0223663Y0157773D01*
X0223731Y0157779D01*
X0223800Y0157781D01*
X0223869Y0157779D01*
X0223937Y0157773D01*
X0224005Y0157763D01*
X0224072Y0157749D01*
X0224139Y0157731D01*
X0224204Y0157710D01*
X0224268Y0157684D01*
X0224330Y0157655D01*
X0224390Y0157623D01*
X0224449Y0157587D01*
X0224505Y0157547D01*
X0224559Y0157505D01*
X0224610Y0157459D01*
X0224659Y0157410D01*
X0224705Y0157359D01*
X0224747Y0157305D01*
X0224787Y0157249D01*
X0224823Y0157190D01*
X0224855Y0157130D01*
X0224884Y0157068D01*
X0224910Y0157004D01*
X0224931Y0156939D01*
X0224949Y0156872D01*
X0224963Y0156805D01*
X0224973Y0156737D01*
X0224979Y0156669D01*
X0224981Y0156600D01*
X0224979Y0156531D01*
X0224973Y0156463D01*
X0224963Y0156395D01*
X0224949Y0156328D01*
X0224931Y0156261D01*
X0224910Y0156196D01*
X0224884Y0156132D01*
X0224855Y0156070D01*
X0224823Y0156009D01*
X0224787Y0155951D01*
X0224747Y0155895D01*
X0224705Y0155841D01*
X0224659Y0155790D01*
X0224610Y0155741D01*
X0224559Y0155695D01*
X0224505Y0155653D01*
X0224449Y0155613D01*
X0224391Y0155577D01*
X0224330Y0155545D01*
X0224268Y0155516D01*
X0224204Y0155490D01*
X0224139Y0155469D01*
X0224072Y0155451D01*
X0224005Y0155437D01*
X0223937Y0155427D01*
X0223869Y0155421D01*
X0223800Y0155419D01*
X0223731Y0155421D01*
X0223663Y0155427D01*
X0223595Y0155437D01*
X0223528Y0155451D01*
X0223461Y0155469D01*
X0223396Y0155490D01*
X0223332Y0155516D01*
X0223270Y0155545D01*
X0223209Y0155577D01*
X0223151Y0155613D01*
X0223095Y0155653D01*
X0223041Y0155695D01*
X0222990Y0155741D01*
X0222941Y0155790D01*
X0222895Y0155841D01*
X0222853Y0155895D01*
X0222813Y0155951D01*
X0222777Y0156009D01*
X0222745Y0156070D01*
X0222716Y0156132D01*
X0222690Y0156196D01*
X0222669Y0156261D01*
X0222651Y0156328D01*
X0222637Y0156395D01*
X0222627Y0156463D01*
X0222621Y0156531D01*
X0222619Y0156600D01*
X0222619Y0161600D02*
X0222621Y0161669D01*
X0222627Y0161737D01*
X0222637Y0161805D01*
X0222651Y0161872D01*
X0222669Y0161939D01*
X0222690Y0162004D01*
X0222716Y0162068D01*
X0222745Y0162130D01*
X0222777Y0162190D01*
X0222813Y0162249D01*
X0222853Y0162305D01*
X0222895Y0162359D01*
X0222941Y0162410D01*
X0222990Y0162459D01*
X0223041Y0162505D01*
X0223095Y0162547D01*
X0223151Y0162587D01*
X0223209Y0162623D01*
X0223270Y0162655D01*
X0223332Y0162684D01*
X0223396Y0162710D01*
X0223461Y0162731D01*
X0223528Y0162749D01*
X0223595Y0162763D01*
X0223663Y0162773D01*
X0223731Y0162779D01*
X0223800Y0162781D01*
X0223869Y0162779D01*
X0223937Y0162773D01*
X0224005Y0162763D01*
X0224072Y0162749D01*
X0224139Y0162731D01*
X0224204Y0162710D01*
X0224268Y0162684D01*
X0224330Y0162655D01*
X0224390Y0162623D01*
X0224449Y0162587D01*
X0224505Y0162547D01*
X0224559Y0162505D01*
X0224610Y0162459D01*
X0224659Y0162410D01*
X0224705Y0162359D01*
X0224747Y0162305D01*
X0224787Y0162249D01*
X0224823Y0162190D01*
X0224855Y0162130D01*
X0224884Y0162068D01*
X0224910Y0162004D01*
X0224931Y0161939D01*
X0224949Y0161872D01*
X0224963Y0161805D01*
X0224973Y0161737D01*
X0224979Y0161669D01*
X0224981Y0161600D01*
X0224979Y0161531D01*
X0224973Y0161463D01*
X0224963Y0161395D01*
X0224949Y0161328D01*
X0224931Y0161261D01*
X0224910Y0161196D01*
X0224884Y0161132D01*
X0224855Y0161070D01*
X0224823Y0161009D01*
X0224787Y0160951D01*
X0224747Y0160895D01*
X0224705Y0160841D01*
X0224659Y0160790D01*
X0224610Y0160741D01*
X0224559Y0160695D01*
X0224505Y0160653D01*
X0224449Y0160613D01*
X0224391Y0160577D01*
X0224330Y0160545D01*
X0224268Y0160516D01*
X0224204Y0160490D01*
X0224139Y0160469D01*
X0224072Y0160451D01*
X0224005Y0160437D01*
X0223937Y0160427D01*
X0223869Y0160421D01*
X0223800Y0160419D01*
X0223731Y0160421D01*
X0223663Y0160427D01*
X0223595Y0160437D01*
X0223528Y0160451D01*
X0223461Y0160469D01*
X0223396Y0160490D01*
X0223332Y0160516D01*
X0223270Y0160545D01*
X0223209Y0160577D01*
X0223151Y0160613D01*
X0223095Y0160653D01*
X0223041Y0160695D01*
X0222990Y0160741D01*
X0222941Y0160790D01*
X0222895Y0160841D01*
X0222853Y0160895D01*
X0222813Y0160951D01*
X0222777Y0161009D01*
X0222745Y0161070D01*
X0222716Y0161132D01*
X0222690Y0161196D01*
X0222669Y0161261D01*
X0222651Y0161328D01*
X0222637Y0161395D01*
X0222627Y0161463D01*
X0222621Y0161531D01*
X0222619Y0161600D01*
X0221300Y0166600D02*
X0221302Y0166502D01*
X0221308Y0166404D01*
X0221317Y0166306D01*
X0221331Y0166209D01*
X0221348Y0166112D01*
X0221369Y0166016D01*
X0221394Y0165921D01*
X0221422Y0165827D01*
X0221455Y0165735D01*
X0221490Y0165643D01*
X0221530Y0165553D01*
X0221572Y0165465D01*
X0221619Y0165378D01*
X0221668Y0165294D01*
X0221721Y0165211D01*
X0221777Y0165131D01*
X0221837Y0165052D01*
X0221899Y0164976D01*
X0221964Y0164903D01*
X0222032Y0164832D01*
X0222103Y0164764D01*
X0222176Y0164699D01*
X0222252Y0164637D01*
X0222331Y0164577D01*
X0222411Y0164521D01*
X0222494Y0164468D01*
X0222578Y0164419D01*
X0222665Y0164372D01*
X0222753Y0164330D01*
X0222843Y0164290D01*
X0222935Y0164255D01*
X0223027Y0164222D01*
X0223121Y0164194D01*
X0223216Y0164169D01*
X0223312Y0164148D01*
X0223409Y0164131D01*
X0223506Y0164117D01*
X0223604Y0164108D01*
X0223702Y0164102D01*
X0223800Y0164100D01*
X0223898Y0164102D01*
X0223996Y0164108D01*
X0224094Y0164117D01*
X0224191Y0164131D01*
X0224288Y0164148D01*
X0224384Y0164169D01*
X0224479Y0164194D01*
X0224573Y0164222D01*
X0224665Y0164255D01*
X0224757Y0164290D01*
X0224847Y0164330D01*
X0224935Y0164372D01*
X0225022Y0164419D01*
X0225106Y0164468D01*
X0225189Y0164521D01*
X0225269Y0164577D01*
X0225348Y0164637D01*
X0225424Y0164699D01*
X0225497Y0164764D01*
X0225568Y0164832D01*
X0225636Y0164903D01*
X0225701Y0164976D01*
X0225763Y0165052D01*
X0225823Y0165131D01*
X0225879Y0165211D01*
X0225932Y0165294D01*
X0225981Y0165378D01*
X0226028Y0165465D01*
X0226070Y0165553D01*
X0226110Y0165643D01*
X0226145Y0165735D01*
X0226178Y0165827D01*
X0226206Y0165921D01*
X0226231Y0166016D01*
X0226252Y0166112D01*
X0226269Y0166209D01*
X0226283Y0166306D01*
X0226292Y0166404D01*
X0226298Y0166502D01*
X0226300Y0166600D01*
X0226300Y0211600D01*
X0226298Y0211698D01*
X0226292Y0211796D01*
X0226283Y0211894D01*
X0226269Y0211991D01*
X0226252Y0212088D01*
X0226231Y0212184D01*
X0226206Y0212279D01*
X0226178Y0212373D01*
X0226145Y0212465D01*
X0226110Y0212557D01*
X0226070Y0212647D01*
X0226028Y0212735D01*
X0225981Y0212822D01*
X0225932Y0212906D01*
X0225879Y0212989D01*
X0225823Y0213069D01*
X0225763Y0213148D01*
X0225701Y0213224D01*
X0225636Y0213297D01*
X0225568Y0213368D01*
X0225497Y0213436D01*
X0225424Y0213501D01*
X0225348Y0213563D01*
X0225269Y0213623D01*
X0225189Y0213679D01*
X0225106Y0213732D01*
X0225022Y0213781D01*
X0224935Y0213828D01*
X0224847Y0213870D01*
X0224757Y0213910D01*
X0224665Y0213945D01*
X0224573Y0213978D01*
X0224479Y0214006D01*
X0224384Y0214031D01*
X0224288Y0214052D01*
X0224191Y0214069D01*
X0224094Y0214083D01*
X0223996Y0214092D01*
X0223898Y0214098D01*
X0223800Y0214100D01*
X0223702Y0214098D01*
X0223604Y0214092D01*
X0223506Y0214083D01*
X0223409Y0214069D01*
X0223312Y0214052D01*
X0223216Y0214031D01*
X0223121Y0214006D01*
X0223027Y0213978D01*
X0222935Y0213945D01*
X0222843Y0213910D01*
X0222753Y0213870D01*
X0222665Y0213828D01*
X0222578Y0213781D01*
X0222494Y0213732D01*
X0222411Y0213679D01*
X0222331Y0213623D01*
X0222252Y0213563D01*
X0222176Y0213501D01*
X0222103Y0213436D01*
X0222032Y0213368D01*
X0221964Y0213297D01*
X0221899Y0213224D01*
X0221837Y0213148D01*
X0221777Y0213069D01*
X0221721Y0212989D01*
X0221668Y0212906D01*
X0221619Y0212822D01*
X0221572Y0212735D01*
X0221530Y0212647D01*
X0221490Y0212557D01*
X0221455Y0212465D01*
X0221422Y0212373D01*
X0221394Y0212279D01*
X0221369Y0212184D01*
X0221348Y0212088D01*
X0221331Y0211991D01*
X0221317Y0211894D01*
X0221308Y0211796D01*
X0221302Y0211698D01*
X0221300Y0211600D01*
X0221300Y0166600D01*
X0222619Y0216600D02*
X0222621Y0216669D01*
X0222627Y0216737D01*
X0222637Y0216805D01*
X0222651Y0216872D01*
X0222669Y0216939D01*
X0222690Y0217004D01*
X0222716Y0217068D01*
X0222745Y0217130D01*
X0222777Y0217190D01*
X0222813Y0217249D01*
X0222853Y0217305D01*
X0222895Y0217359D01*
X0222941Y0217410D01*
X0222990Y0217459D01*
X0223041Y0217505D01*
X0223095Y0217547D01*
X0223151Y0217587D01*
X0223209Y0217623D01*
X0223270Y0217655D01*
X0223332Y0217684D01*
X0223396Y0217710D01*
X0223461Y0217731D01*
X0223528Y0217749D01*
X0223595Y0217763D01*
X0223663Y0217773D01*
X0223731Y0217779D01*
X0223800Y0217781D01*
X0223869Y0217779D01*
X0223937Y0217773D01*
X0224005Y0217763D01*
X0224072Y0217749D01*
X0224139Y0217731D01*
X0224204Y0217710D01*
X0224268Y0217684D01*
X0224330Y0217655D01*
X0224390Y0217623D01*
X0224449Y0217587D01*
X0224505Y0217547D01*
X0224559Y0217505D01*
X0224610Y0217459D01*
X0224659Y0217410D01*
X0224705Y0217359D01*
X0224747Y0217305D01*
X0224787Y0217249D01*
X0224823Y0217190D01*
X0224855Y0217130D01*
X0224884Y0217068D01*
X0224910Y0217004D01*
X0224931Y0216939D01*
X0224949Y0216872D01*
X0224963Y0216805D01*
X0224973Y0216737D01*
X0224979Y0216669D01*
X0224981Y0216600D01*
X0224979Y0216531D01*
X0224973Y0216463D01*
X0224963Y0216395D01*
X0224949Y0216328D01*
X0224931Y0216261D01*
X0224910Y0216196D01*
X0224884Y0216132D01*
X0224855Y0216070D01*
X0224823Y0216009D01*
X0224787Y0215951D01*
X0224747Y0215895D01*
X0224705Y0215841D01*
X0224659Y0215790D01*
X0224610Y0215741D01*
X0224559Y0215695D01*
X0224505Y0215653D01*
X0224449Y0215613D01*
X0224391Y0215577D01*
X0224330Y0215545D01*
X0224268Y0215516D01*
X0224204Y0215490D01*
X0224139Y0215469D01*
X0224072Y0215451D01*
X0224005Y0215437D01*
X0223937Y0215427D01*
X0223869Y0215421D01*
X0223800Y0215419D01*
X0223731Y0215421D01*
X0223663Y0215427D01*
X0223595Y0215437D01*
X0223528Y0215451D01*
X0223461Y0215469D01*
X0223396Y0215490D01*
X0223332Y0215516D01*
X0223270Y0215545D01*
X0223209Y0215577D01*
X0223151Y0215613D01*
X0223095Y0215653D01*
X0223041Y0215695D01*
X0222990Y0215741D01*
X0222941Y0215790D01*
X0222895Y0215841D01*
X0222853Y0215895D01*
X0222813Y0215951D01*
X0222777Y0216009D01*
X0222745Y0216070D01*
X0222716Y0216132D01*
X0222690Y0216196D01*
X0222669Y0216261D01*
X0222651Y0216328D01*
X0222637Y0216395D01*
X0222627Y0216463D01*
X0222621Y0216531D01*
X0222619Y0216600D01*
X0222619Y0221600D02*
X0222621Y0221669D01*
X0222627Y0221737D01*
X0222637Y0221805D01*
X0222651Y0221872D01*
X0222669Y0221939D01*
X0222690Y0222004D01*
X0222716Y0222068D01*
X0222745Y0222130D01*
X0222777Y0222190D01*
X0222813Y0222249D01*
X0222853Y0222305D01*
X0222895Y0222359D01*
X0222941Y0222410D01*
X0222990Y0222459D01*
X0223041Y0222505D01*
X0223095Y0222547D01*
X0223151Y0222587D01*
X0223209Y0222623D01*
X0223270Y0222655D01*
X0223332Y0222684D01*
X0223396Y0222710D01*
X0223461Y0222731D01*
X0223528Y0222749D01*
X0223595Y0222763D01*
X0223663Y0222773D01*
X0223731Y0222779D01*
X0223800Y0222781D01*
X0223869Y0222779D01*
X0223937Y0222773D01*
X0224005Y0222763D01*
X0224072Y0222749D01*
X0224139Y0222731D01*
X0224204Y0222710D01*
X0224268Y0222684D01*
X0224330Y0222655D01*
X0224390Y0222623D01*
X0224449Y0222587D01*
X0224505Y0222547D01*
X0224559Y0222505D01*
X0224610Y0222459D01*
X0224659Y0222410D01*
X0224705Y0222359D01*
X0224747Y0222305D01*
X0224787Y0222249D01*
X0224823Y0222190D01*
X0224855Y0222130D01*
X0224884Y0222068D01*
X0224910Y0222004D01*
X0224931Y0221939D01*
X0224949Y0221872D01*
X0224963Y0221805D01*
X0224973Y0221737D01*
X0224979Y0221669D01*
X0224981Y0221600D01*
X0224979Y0221531D01*
X0224973Y0221463D01*
X0224963Y0221395D01*
X0224949Y0221328D01*
X0224931Y0221261D01*
X0224910Y0221196D01*
X0224884Y0221132D01*
X0224855Y0221070D01*
X0224823Y0221009D01*
X0224787Y0220951D01*
X0224747Y0220895D01*
X0224705Y0220841D01*
X0224659Y0220790D01*
X0224610Y0220741D01*
X0224559Y0220695D01*
X0224505Y0220653D01*
X0224449Y0220613D01*
X0224391Y0220577D01*
X0224330Y0220545D01*
X0224268Y0220516D01*
X0224204Y0220490D01*
X0224139Y0220469D01*
X0224072Y0220451D01*
X0224005Y0220437D01*
X0223937Y0220427D01*
X0223869Y0220421D01*
X0223800Y0220419D01*
X0223731Y0220421D01*
X0223663Y0220427D01*
X0223595Y0220437D01*
X0223528Y0220451D01*
X0223461Y0220469D01*
X0223396Y0220490D01*
X0223332Y0220516D01*
X0223270Y0220545D01*
X0223209Y0220577D01*
X0223151Y0220613D01*
X0223095Y0220653D01*
X0223041Y0220695D01*
X0222990Y0220741D01*
X0222941Y0220790D01*
X0222895Y0220841D01*
X0222853Y0220895D01*
X0222813Y0220951D01*
X0222777Y0221009D01*
X0222745Y0221070D01*
X0222716Y0221132D01*
X0222690Y0221196D01*
X0222669Y0221261D01*
X0222651Y0221328D01*
X0222637Y0221395D01*
X0222627Y0221463D01*
X0222621Y0221531D01*
X0222619Y0221600D01*
X0222619Y0226600D02*
X0222621Y0226669D01*
X0222627Y0226737D01*
X0222637Y0226805D01*
X0222651Y0226872D01*
X0222669Y0226939D01*
X0222690Y0227004D01*
X0222716Y0227068D01*
X0222745Y0227130D01*
X0222777Y0227190D01*
X0222813Y0227249D01*
X0222853Y0227305D01*
X0222895Y0227359D01*
X0222941Y0227410D01*
X0222990Y0227459D01*
X0223041Y0227505D01*
X0223095Y0227547D01*
X0223151Y0227587D01*
X0223209Y0227623D01*
X0223270Y0227655D01*
X0223332Y0227684D01*
X0223396Y0227710D01*
X0223461Y0227731D01*
X0223528Y0227749D01*
X0223595Y0227763D01*
X0223663Y0227773D01*
X0223731Y0227779D01*
X0223800Y0227781D01*
X0223869Y0227779D01*
X0223937Y0227773D01*
X0224005Y0227763D01*
X0224072Y0227749D01*
X0224139Y0227731D01*
X0224204Y0227710D01*
X0224268Y0227684D01*
X0224330Y0227655D01*
X0224390Y0227623D01*
X0224449Y0227587D01*
X0224505Y0227547D01*
X0224559Y0227505D01*
X0224610Y0227459D01*
X0224659Y0227410D01*
X0224705Y0227359D01*
X0224747Y0227305D01*
X0224787Y0227249D01*
X0224823Y0227190D01*
X0224855Y0227130D01*
X0224884Y0227068D01*
X0224910Y0227004D01*
X0224931Y0226939D01*
X0224949Y0226872D01*
X0224963Y0226805D01*
X0224973Y0226737D01*
X0224979Y0226669D01*
X0224981Y0226600D01*
X0224979Y0226531D01*
X0224973Y0226463D01*
X0224963Y0226395D01*
X0224949Y0226328D01*
X0224931Y0226261D01*
X0224910Y0226196D01*
X0224884Y0226132D01*
X0224855Y0226070D01*
X0224823Y0226009D01*
X0224787Y0225951D01*
X0224747Y0225895D01*
X0224705Y0225841D01*
X0224659Y0225790D01*
X0224610Y0225741D01*
X0224559Y0225695D01*
X0224505Y0225653D01*
X0224449Y0225613D01*
X0224391Y0225577D01*
X0224330Y0225545D01*
X0224268Y0225516D01*
X0224204Y0225490D01*
X0224139Y0225469D01*
X0224072Y0225451D01*
X0224005Y0225437D01*
X0223937Y0225427D01*
X0223869Y0225421D01*
X0223800Y0225419D01*
X0223731Y0225421D01*
X0223663Y0225427D01*
X0223595Y0225437D01*
X0223528Y0225451D01*
X0223461Y0225469D01*
X0223396Y0225490D01*
X0223332Y0225516D01*
X0223270Y0225545D01*
X0223209Y0225577D01*
X0223151Y0225613D01*
X0223095Y0225653D01*
X0223041Y0225695D01*
X0222990Y0225741D01*
X0222941Y0225790D01*
X0222895Y0225841D01*
X0222853Y0225895D01*
X0222813Y0225951D01*
X0222777Y0226009D01*
X0222745Y0226070D01*
X0222716Y0226132D01*
X0222690Y0226196D01*
X0222669Y0226261D01*
X0222651Y0226328D01*
X0222637Y0226395D01*
X0222627Y0226463D01*
X0222621Y0226531D01*
X0222619Y0226600D01*
D11*
X0389000Y0227065D02*
X0389000Y0228599D01*
X0389767Y0229367D01*
X0393604Y0229367D01*
X0393604Y0230901D02*
X0393604Y0233970D01*
X0393604Y0232436D02*
X0389000Y0232436D01*
X0389000Y0227065D02*
X0389767Y0226297D01*
X0393604Y0226297D01*
X0392837Y0224763D02*
X0393604Y0223995D01*
X0393604Y0222461D01*
X0392837Y0221693D01*
X0389767Y0221693D01*
X0389000Y0222461D01*
X0389000Y0223995D01*
X0389767Y0224763D01*
X0392837Y0224763D01*
X0396500Y0224498D02*
X0397267Y0225265D01*
X0400337Y0225265D01*
X0401104Y0224498D01*
X0401104Y0222963D01*
X0400337Y0222196D01*
X0397267Y0222196D01*
X0396500Y0222963D01*
X0396500Y0224498D01*
X0397267Y0226800D02*
X0396500Y0227567D01*
X0396500Y0229102D01*
X0397267Y0229869D01*
X0401104Y0229869D01*
X0401104Y0231404D02*
X0401104Y0234473D01*
X0401104Y0232939D02*
X0396500Y0232939D01*
X0397267Y0226800D02*
X0401104Y0226800D01*
X0401104Y0220661D02*
X0398035Y0220661D01*
X0396500Y0219127D01*
X0398035Y0217592D01*
X0401104Y0217592D01*
X0400337Y0207567D02*
X0398802Y0207567D01*
X0398035Y0206800D01*
X0398035Y0204498D01*
X0398035Y0206033D02*
X0396500Y0207567D01*
X0396500Y0204498D02*
X0401104Y0204498D01*
X0401104Y0206800D01*
X0400337Y0207567D01*
X0400337Y0187567D02*
X0401104Y0186800D01*
X0401104Y0185265D01*
X0400337Y0184498D01*
X0397267Y0184498D01*
X0396500Y0185265D01*
X0396500Y0186800D01*
X0397267Y0187567D01*
X0398802Y0187567D01*
X0398802Y0186033D01*
X0398035Y0167567D02*
X0397267Y0167567D01*
X0396500Y0166800D01*
X0396500Y0164498D01*
X0401104Y0164498D01*
X0401104Y0166800D01*
X0400337Y0167567D01*
X0399569Y0167567D01*
X0398802Y0166800D01*
X0398802Y0164498D01*
X0398802Y0166800D02*
X0398035Y0167567D01*
X0398035Y0240661D02*
X0396500Y0242196D01*
X0398035Y0243731D01*
X0401104Y0243731D01*
X0401104Y0245265D02*
X0401104Y0246800D01*
X0401104Y0246033D02*
X0396500Y0246033D01*
X0396500Y0246800D02*
X0396500Y0245265D01*
X0396500Y0248335D02*
X0401104Y0248335D01*
X0396500Y0251404D01*
X0401104Y0251404D01*
X0400337Y0259894D02*
X0397267Y0259894D01*
X0396500Y0260661D01*
X0396500Y0262196D01*
X0397267Y0262963D01*
X0398802Y0262963D01*
X0398802Y0261429D01*
X0400337Y0262963D02*
X0401104Y0262196D01*
X0401104Y0260661D01*
X0400337Y0259894D01*
X0401104Y0264498D02*
X0396500Y0264498D01*
X0393604Y0263995D02*
X0393604Y0261693D01*
X0389000Y0261693D01*
X0390535Y0261693D02*
X0390535Y0263995D01*
X0391302Y0264763D01*
X0392837Y0264763D01*
X0393604Y0263995D01*
X0393604Y0266297D02*
X0389000Y0266297D01*
X0390535Y0267832D01*
X0389000Y0269367D01*
X0393604Y0269367D01*
X0393604Y0270901D02*
X0393604Y0273203D01*
X0392837Y0273970D01*
X0391302Y0273970D01*
X0390535Y0273203D01*
X0390535Y0270901D01*
X0390535Y0272436D02*
X0389000Y0273970D01*
X0389000Y0270901D02*
X0393604Y0270901D01*
X0396500Y0271404D02*
X0396500Y0269102D01*
X0401104Y0269102D01*
X0401104Y0271404D01*
X0400337Y0272171D01*
X0397267Y0272171D01*
X0396500Y0271404D01*
X0396500Y0267567D02*
X0401104Y0267567D01*
X0401104Y0264498D02*
X0396500Y0267567D01*
X0398035Y0240661D02*
X0401104Y0240661D01*
X0058604Y0090372D02*
X0058604Y0087303D01*
X0058604Y0088837D02*
X0054000Y0088837D01*
X0051104Y0089869D02*
X0047267Y0089869D01*
X0046500Y0089102D01*
X0046500Y0087567D01*
X0047267Y0086800D01*
X0051104Y0086800D01*
X0050337Y0085265D02*
X0051104Y0084498D01*
X0051104Y0082963D01*
X0050337Y0082196D01*
X0047267Y0082196D01*
X0046500Y0082963D01*
X0046500Y0084498D01*
X0047267Y0085265D01*
X0050337Y0085265D01*
X0054000Y0085001D02*
X0054000Y0083466D01*
X0054767Y0082699D01*
X0058604Y0082699D01*
X0057837Y0081164D02*
X0058604Y0080397D01*
X0058604Y0078862D01*
X0057837Y0078095D01*
X0054767Y0078095D01*
X0054000Y0078862D01*
X0054000Y0080397D01*
X0054767Y0081164D01*
X0057837Y0081164D01*
X0051104Y0080661D02*
X0048035Y0080661D01*
X0046500Y0079127D01*
X0048035Y0077592D01*
X0051104Y0077592D01*
X0051104Y0071404D02*
X0046500Y0071404D01*
X0051104Y0068335D01*
X0046500Y0068335D01*
X0046500Y0066800D02*
X0046500Y0065265D01*
X0046500Y0066033D02*
X0051104Y0066033D01*
X0051104Y0066800D02*
X0051104Y0065265D01*
X0051104Y0063731D02*
X0048035Y0063731D01*
X0046500Y0062196D01*
X0048035Y0060661D01*
X0051104Y0060661D01*
X0050337Y0052171D02*
X0047267Y0052171D01*
X0046500Y0051404D01*
X0046500Y0049102D01*
X0051104Y0049102D01*
X0051104Y0051404D01*
X0050337Y0052171D01*
X0054000Y0050372D02*
X0055535Y0048837D01*
X0055535Y0049605D02*
X0055535Y0047303D01*
X0054000Y0047303D02*
X0058604Y0047303D01*
X0058604Y0049605D01*
X0057837Y0050372D01*
X0056302Y0050372D01*
X0055535Y0049605D01*
X0054000Y0045768D02*
X0058604Y0045768D01*
X0058604Y0042699D02*
X0054000Y0042699D01*
X0055535Y0044233D01*
X0054000Y0045768D01*
X0051104Y0044498D02*
X0046500Y0047567D01*
X0051104Y0047567D01*
X0051104Y0044498D02*
X0046500Y0044498D01*
X0047267Y0042963D02*
X0048802Y0042963D01*
X0048802Y0041429D01*
X0050337Y0042963D02*
X0051104Y0042196D01*
X0051104Y0040661D01*
X0050337Y0039894D01*
X0047267Y0039894D01*
X0046500Y0040661D01*
X0046500Y0042196D01*
X0047267Y0042963D01*
X0054000Y0038095D02*
X0058604Y0038095D01*
X0058604Y0040397D01*
X0057837Y0041164D01*
X0056302Y0041164D01*
X0055535Y0040397D01*
X0055535Y0038095D01*
X0054000Y0085001D02*
X0054767Y0085768D01*
X0058604Y0085768D01*
X0051104Y0091404D02*
X0051104Y0094473D01*
X0051104Y0092939D02*
X0046500Y0092939D01*
X0046500Y0104498D02*
X0051104Y0104498D01*
X0051104Y0106800D01*
X0050337Y0107567D01*
X0048802Y0107567D01*
X0048035Y0106800D01*
X0048035Y0104498D01*
X0048035Y0106033D02*
X0046500Y0107567D01*
X0047267Y0124498D02*
X0046500Y0125265D01*
X0046500Y0126800D01*
X0047267Y0127567D01*
X0048802Y0127567D01*
X0048802Y0126033D01*
X0050337Y0127567D02*
X0051104Y0126800D01*
X0051104Y0125265D01*
X0050337Y0124498D01*
X0047267Y0124498D01*
X0046500Y0144498D02*
X0046500Y0146800D01*
X0047267Y0147567D01*
X0048035Y0147567D01*
X0048802Y0146800D01*
X0048802Y0144498D01*
X0046500Y0144498D02*
X0051104Y0144498D01*
X0051104Y0146800D01*
X0050337Y0147567D01*
X0049569Y0147567D01*
X0048802Y0146800D01*
D12*
X0026050Y0164101D02*
X0025299Y0163350D01*
X0023798Y0163350D01*
X0023047Y0164101D01*
X0023047Y0165602D01*
X0023798Y0166353D01*
X0024549Y0166353D01*
X0026050Y0165602D01*
X0026050Y0167854D01*
X0023047Y0167854D01*
X0023798Y0173850D02*
X0023798Y0178354D01*
X0026050Y0176102D01*
X0023047Y0176102D01*
X0023798Y0183850D02*
X0025299Y0183850D01*
X0026050Y0184601D01*
X0024549Y0186102D02*
X0023798Y0186102D01*
X0023047Y0185351D01*
X0023047Y0184601D01*
X0023798Y0183850D01*
X0023798Y0186102D02*
X0023047Y0186853D01*
X0023047Y0187603D01*
X0023798Y0188354D01*
X0025299Y0188354D01*
X0026050Y0187603D01*
X0026050Y0193850D02*
X0023047Y0196853D01*
X0023047Y0197603D01*
X0023798Y0198354D01*
X0025299Y0198354D01*
X0026050Y0197603D01*
X0026050Y0193850D02*
X0023047Y0193850D01*
X0041550Y0198789D02*
X0042301Y0198038D01*
X0041550Y0198789D02*
X0041550Y0200290D01*
X0042301Y0201041D01*
X0043051Y0201041D01*
X0043802Y0200290D01*
X0043802Y0198789D01*
X0044553Y0198038D01*
X0045303Y0198038D01*
X0046054Y0198789D01*
X0046054Y0200290D01*
X0045303Y0201041D01*
X0046054Y0202642D02*
X0043051Y0202642D01*
X0041550Y0204143D01*
X0043051Y0205645D01*
X0046054Y0205645D01*
X0044553Y0207246D02*
X0046054Y0208747D01*
X0041550Y0208747D01*
X0041550Y0207246D02*
X0041550Y0210249D01*
X0401550Y0114060D02*
X0401550Y0111058D01*
X0401550Y0112559D02*
X0406054Y0112559D01*
X0404553Y0111058D01*
X0403051Y0109456D02*
X0406054Y0109456D01*
X0406054Y0106454D02*
X0403051Y0106454D01*
X0401550Y0107955D01*
X0403051Y0109456D01*
X0403051Y0104853D02*
X0402301Y0104853D01*
X0401550Y0104102D01*
X0401550Y0102601D01*
X0402301Y0101850D01*
X0403802Y0102601D02*
X0403802Y0104102D01*
X0403051Y0104853D01*
X0405303Y0104853D02*
X0406054Y0104102D01*
X0406054Y0102601D01*
X0405303Y0101850D01*
X0404553Y0101850D01*
X0403802Y0102601D01*
X0422651Y0114850D02*
X0425654Y0114850D01*
X0422651Y0117853D01*
X0422651Y0118603D01*
X0423402Y0119354D01*
X0424903Y0119354D01*
X0425654Y0118603D01*
X0424903Y0124850D02*
X0425654Y0125601D01*
X0424903Y0124850D02*
X0423402Y0124850D01*
X0422651Y0125601D01*
X0422651Y0126351D01*
X0423402Y0127102D01*
X0424153Y0127102D01*
X0423402Y0127102D02*
X0422651Y0127853D01*
X0422651Y0128603D01*
X0423402Y0129354D01*
X0424903Y0129354D01*
X0425654Y0128603D01*
X0423402Y0134850D02*
X0423402Y0139354D01*
X0425654Y0137102D01*
X0422651Y0137102D01*
X0423402Y0145350D02*
X0424903Y0145350D01*
X0425654Y0146101D01*
X0425654Y0147602D02*
X0424153Y0148353D01*
X0423402Y0148353D01*
X0422651Y0147602D01*
X0422651Y0146101D01*
X0423402Y0145350D01*
X0425654Y0147602D02*
X0425654Y0149854D01*
X0422651Y0149854D01*
D13*
X0423615Y0156683D02*
X0426064Y0156683D01*
X0427245Y0156683D01*
X0427245Y0236683D01*
X0426064Y0236683D01*
X0426064Y0276683D01*
X0427245Y0276683D01*
X0427245Y0236683D01*
X0426064Y0236683D01*
X0423615Y0236683D01*
X0420937Y0236683D01*
X0418999Y0236683D01*
X0403263Y0236683D01*
X0401362Y0236683D01*
X0395355Y0236683D01*
X0395355Y0276683D01*
X0401362Y0276683D01*
X0403263Y0276683D01*
X0418999Y0276683D01*
X0420937Y0276683D01*
X0420937Y0236683D01*
X0420937Y0156683D01*
X0423615Y0156683D01*
X0423615Y0236683D01*
X0423615Y0276683D01*
X0424398Y0276683D01*
X0426064Y0276683D01*
X0424989Y0277892D02*
X0424989Y0278927D01*
X0422178Y0278927D01*
X0422178Y0277892D01*
X0422769Y0277190D01*
X0422769Y0276683D01*
X0420937Y0276683D01*
X0422769Y0276683D02*
X0423615Y0276683D01*
X0424398Y0276683D02*
X0424398Y0277190D01*
X0424989Y0277892D01*
X0403663Y0266683D02*
X0403665Y0266868D01*
X0403672Y0267053D01*
X0403683Y0267238D01*
X0403699Y0267422D01*
X0403720Y0267606D01*
X0403745Y0267789D01*
X0403774Y0267972D01*
X0403808Y0268154D01*
X0403846Y0268335D01*
X0403889Y0268515D01*
X0403936Y0268694D01*
X0403988Y0268871D01*
X0404044Y0269048D01*
X0404104Y0269223D01*
X0404168Y0269396D01*
X0404237Y0269568D01*
X0404310Y0269738D01*
X0404387Y0269906D01*
X0404468Y0270073D01*
X0404553Y0270237D01*
X0404642Y0270399D01*
X0404736Y0270559D01*
X0404833Y0270716D01*
X0404934Y0270871D01*
X0405038Y0271024D01*
X0405147Y0271174D01*
X0405259Y0271321D01*
X0405374Y0271466D01*
X0405493Y0271607D01*
X0405616Y0271746D01*
X0405742Y0271881D01*
X0405871Y0272014D01*
X0406004Y0272143D01*
X0406139Y0272269D01*
X0406278Y0272392D01*
X0406419Y0272511D01*
X0406564Y0272626D01*
X0406711Y0272738D01*
X0406861Y0272847D01*
X0407014Y0272951D01*
X0407169Y0273052D01*
X0407326Y0273149D01*
X0407486Y0273243D01*
X0407648Y0273332D01*
X0407812Y0273417D01*
X0407979Y0273498D01*
X0408147Y0273575D01*
X0408317Y0273648D01*
X0408489Y0273717D01*
X0408662Y0273781D01*
X0408837Y0273841D01*
X0409014Y0273897D01*
X0409191Y0273949D01*
X0409370Y0273996D01*
X0409550Y0274039D01*
X0409731Y0274077D01*
X0409913Y0274111D01*
X0410096Y0274140D01*
X0410279Y0274165D01*
X0410463Y0274186D01*
X0410647Y0274202D01*
X0410832Y0274213D01*
X0411017Y0274220D01*
X0411202Y0274222D01*
X0411387Y0274220D01*
X0411572Y0274213D01*
X0411757Y0274202D01*
X0411941Y0274186D01*
X0412125Y0274165D01*
X0412308Y0274140D01*
X0412491Y0274111D01*
X0412673Y0274077D01*
X0412854Y0274039D01*
X0413034Y0273996D01*
X0413213Y0273949D01*
X0413390Y0273897D01*
X0413567Y0273841D01*
X0413742Y0273781D01*
X0413915Y0273717D01*
X0414087Y0273648D01*
X0414257Y0273575D01*
X0414425Y0273498D01*
X0414592Y0273417D01*
X0414756Y0273332D01*
X0414918Y0273243D01*
X0415078Y0273149D01*
X0415235Y0273052D01*
X0415390Y0272951D01*
X0415543Y0272847D01*
X0415693Y0272738D01*
X0415840Y0272626D01*
X0415985Y0272511D01*
X0416126Y0272392D01*
X0416265Y0272269D01*
X0416400Y0272143D01*
X0416533Y0272014D01*
X0416662Y0271881D01*
X0416788Y0271746D01*
X0416911Y0271607D01*
X0417030Y0271466D01*
X0417145Y0271321D01*
X0417257Y0271174D01*
X0417366Y0271024D01*
X0417470Y0270871D01*
X0417571Y0270716D01*
X0417668Y0270559D01*
X0417762Y0270399D01*
X0417851Y0270237D01*
X0417936Y0270073D01*
X0418017Y0269906D01*
X0418094Y0269738D01*
X0418167Y0269568D01*
X0418236Y0269396D01*
X0418300Y0269223D01*
X0418360Y0269048D01*
X0418416Y0268871D01*
X0418468Y0268694D01*
X0418515Y0268515D01*
X0418558Y0268335D01*
X0418596Y0268154D01*
X0418630Y0267972D01*
X0418659Y0267789D01*
X0418684Y0267606D01*
X0418705Y0267422D01*
X0418721Y0267238D01*
X0418732Y0267053D01*
X0418739Y0266868D01*
X0418741Y0266683D01*
X0418739Y0266498D01*
X0418732Y0266313D01*
X0418721Y0266128D01*
X0418705Y0265944D01*
X0418684Y0265760D01*
X0418659Y0265577D01*
X0418630Y0265394D01*
X0418596Y0265212D01*
X0418558Y0265031D01*
X0418515Y0264851D01*
X0418468Y0264672D01*
X0418416Y0264495D01*
X0418360Y0264318D01*
X0418300Y0264143D01*
X0418236Y0263970D01*
X0418167Y0263798D01*
X0418094Y0263628D01*
X0418017Y0263460D01*
X0417936Y0263293D01*
X0417851Y0263129D01*
X0417762Y0262967D01*
X0417668Y0262807D01*
X0417571Y0262650D01*
X0417470Y0262495D01*
X0417366Y0262342D01*
X0417257Y0262192D01*
X0417145Y0262045D01*
X0417030Y0261900D01*
X0416911Y0261759D01*
X0416788Y0261620D01*
X0416662Y0261485D01*
X0416533Y0261352D01*
X0416400Y0261223D01*
X0416265Y0261097D01*
X0416126Y0260974D01*
X0415985Y0260855D01*
X0415840Y0260740D01*
X0415693Y0260628D01*
X0415543Y0260519D01*
X0415390Y0260415D01*
X0415235Y0260314D01*
X0415078Y0260217D01*
X0414918Y0260123D01*
X0414756Y0260034D01*
X0414592Y0259949D01*
X0414425Y0259868D01*
X0414257Y0259791D01*
X0414087Y0259718D01*
X0413915Y0259649D01*
X0413742Y0259585D01*
X0413567Y0259525D01*
X0413390Y0259469D01*
X0413213Y0259417D01*
X0413034Y0259370D01*
X0412854Y0259327D01*
X0412673Y0259289D01*
X0412491Y0259255D01*
X0412308Y0259226D01*
X0412125Y0259201D01*
X0411941Y0259180D01*
X0411757Y0259164D01*
X0411572Y0259153D01*
X0411387Y0259146D01*
X0411202Y0259144D01*
X0411017Y0259146D01*
X0410832Y0259153D01*
X0410647Y0259164D01*
X0410463Y0259180D01*
X0410279Y0259201D01*
X0410096Y0259226D01*
X0409913Y0259255D01*
X0409731Y0259289D01*
X0409550Y0259327D01*
X0409370Y0259370D01*
X0409191Y0259417D01*
X0409014Y0259469D01*
X0408837Y0259525D01*
X0408662Y0259585D01*
X0408489Y0259649D01*
X0408317Y0259718D01*
X0408147Y0259791D01*
X0407979Y0259868D01*
X0407812Y0259949D01*
X0407648Y0260034D01*
X0407486Y0260123D01*
X0407326Y0260217D01*
X0407169Y0260314D01*
X0407014Y0260415D01*
X0406861Y0260519D01*
X0406711Y0260628D01*
X0406564Y0260740D01*
X0406419Y0260855D01*
X0406278Y0260974D01*
X0406139Y0261097D01*
X0406004Y0261223D01*
X0405871Y0261352D01*
X0405742Y0261485D01*
X0405616Y0261620D01*
X0405493Y0261759D01*
X0405374Y0261900D01*
X0405259Y0262045D01*
X0405147Y0262192D01*
X0405038Y0262342D01*
X0404934Y0262495D01*
X0404833Y0262650D01*
X0404736Y0262807D01*
X0404642Y0262967D01*
X0404553Y0263129D01*
X0404468Y0263293D01*
X0404387Y0263460D01*
X0404310Y0263628D01*
X0404237Y0263798D01*
X0404168Y0263970D01*
X0404104Y0264143D01*
X0404044Y0264318D01*
X0403988Y0264495D01*
X0403936Y0264672D01*
X0403889Y0264851D01*
X0403846Y0265031D01*
X0403808Y0265212D01*
X0403774Y0265394D01*
X0403745Y0265577D01*
X0403720Y0265760D01*
X0403699Y0265944D01*
X0403683Y0266128D01*
X0403672Y0266313D01*
X0403665Y0266498D01*
X0403663Y0266683D01*
X0401362Y0276683D02*
X0401362Y0236683D01*
X0395355Y0236683D01*
X0395355Y0156683D01*
X0401362Y0156683D01*
X0403263Y0156683D01*
X0418999Y0156683D01*
X0420937Y0156683D01*
X0426064Y0156683D02*
X0426064Y0236683D01*
X0424398Y0236683D01*
X0423615Y0236683D01*
X0422769Y0236683D01*
X0420937Y0236683D01*
X0418999Y0236683D01*
X0403263Y0236683D01*
X0401362Y0236683D01*
X0401362Y0156683D01*
X0403663Y0166683D02*
X0403665Y0166868D01*
X0403672Y0167053D01*
X0403683Y0167238D01*
X0403699Y0167422D01*
X0403720Y0167606D01*
X0403745Y0167789D01*
X0403774Y0167972D01*
X0403808Y0168154D01*
X0403846Y0168335D01*
X0403889Y0168515D01*
X0403936Y0168694D01*
X0403988Y0168871D01*
X0404044Y0169048D01*
X0404104Y0169223D01*
X0404168Y0169396D01*
X0404237Y0169568D01*
X0404310Y0169738D01*
X0404387Y0169906D01*
X0404468Y0170073D01*
X0404553Y0170237D01*
X0404642Y0170399D01*
X0404736Y0170559D01*
X0404833Y0170716D01*
X0404934Y0170871D01*
X0405038Y0171024D01*
X0405147Y0171174D01*
X0405259Y0171321D01*
X0405374Y0171466D01*
X0405493Y0171607D01*
X0405616Y0171746D01*
X0405742Y0171881D01*
X0405871Y0172014D01*
X0406004Y0172143D01*
X0406139Y0172269D01*
X0406278Y0172392D01*
X0406419Y0172511D01*
X0406564Y0172626D01*
X0406711Y0172738D01*
X0406861Y0172847D01*
X0407014Y0172951D01*
X0407169Y0173052D01*
X0407326Y0173149D01*
X0407486Y0173243D01*
X0407648Y0173332D01*
X0407812Y0173417D01*
X0407979Y0173498D01*
X0408147Y0173575D01*
X0408317Y0173648D01*
X0408489Y0173717D01*
X0408662Y0173781D01*
X0408837Y0173841D01*
X0409014Y0173897D01*
X0409191Y0173949D01*
X0409370Y0173996D01*
X0409550Y0174039D01*
X0409731Y0174077D01*
X0409913Y0174111D01*
X0410096Y0174140D01*
X0410279Y0174165D01*
X0410463Y0174186D01*
X0410647Y0174202D01*
X0410832Y0174213D01*
X0411017Y0174220D01*
X0411202Y0174222D01*
X0411387Y0174220D01*
X0411572Y0174213D01*
X0411757Y0174202D01*
X0411941Y0174186D01*
X0412125Y0174165D01*
X0412308Y0174140D01*
X0412491Y0174111D01*
X0412673Y0174077D01*
X0412854Y0174039D01*
X0413034Y0173996D01*
X0413213Y0173949D01*
X0413390Y0173897D01*
X0413567Y0173841D01*
X0413742Y0173781D01*
X0413915Y0173717D01*
X0414087Y0173648D01*
X0414257Y0173575D01*
X0414425Y0173498D01*
X0414592Y0173417D01*
X0414756Y0173332D01*
X0414918Y0173243D01*
X0415078Y0173149D01*
X0415235Y0173052D01*
X0415390Y0172951D01*
X0415543Y0172847D01*
X0415693Y0172738D01*
X0415840Y0172626D01*
X0415985Y0172511D01*
X0416126Y0172392D01*
X0416265Y0172269D01*
X0416400Y0172143D01*
X0416533Y0172014D01*
X0416662Y0171881D01*
X0416788Y0171746D01*
X0416911Y0171607D01*
X0417030Y0171466D01*
X0417145Y0171321D01*
X0417257Y0171174D01*
X0417366Y0171024D01*
X0417470Y0170871D01*
X0417571Y0170716D01*
X0417668Y0170559D01*
X0417762Y0170399D01*
X0417851Y0170237D01*
X0417936Y0170073D01*
X0418017Y0169906D01*
X0418094Y0169738D01*
X0418167Y0169568D01*
X0418236Y0169396D01*
X0418300Y0169223D01*
X0418360Y0169048D01*
X0418416Y0168871D01*
X0418468Y0168694D01*
X0418515Y0168515D01*
X0418558Y0168335D01*
X0418596Y0168154D01*
X0418630Y0167972D01*
X0418659Y0167789D01*
X0418684Y0167606D01*
X0418705Y0167422D01*
X0418721Y0167238D01*
X0418732Y0167053D01*
X0418739Y0166868D01*
X0418741Y0166683D01*
X0418739Y0166498D01*
X0418732Y0166313D01*
X0418721Y0166128D01*
X0418705Y0165944D01*
X0418684Y0165760D01*
X0418659Y0165577D01*
X0418630Y0165394D01*
X0418596Y0165212D01*
X0418558Y0165031D01*
X0418515Y0164851D01*
X0418468Y0164672D01*
X0418416Y0164495D01*
X0418360Y0164318D01*
X0418300Y0164143D01*
X0418236Y0163970D01*
X0418167Y0163798D01*
X0418094Y0163628D01*
X0418017Y0163460D01*
X0417936Y0163293D01*
X0417851Y0163129D01*
X0417762Y0162967D01*
X0417668Y0162807D01*
X0417571Y0162650D01*
X0417470Y0162495D01*
X0417366Y0162342D01*
X0417257Y0162192D01*
X0417145Y0162045D01*
X0417030Y0161900D01*
X0416911Y0161759D01*
X0416788Y0161620D01*
X0416662Y0161485D01*
X0416533Y0161352D01*
X0416400Y0161223D01*
X0416265Y0161097D01*
X0416126Y0160974D01*
X0415985Y0160855D01*
X0415840Y0160740D01*
X0415693Y0160628D01*
X0415543Y0160519D01*
X0415390Y0160415D01*
X0415235Y0160314D01*
X0415078Y0160217D01*
X0414918Y0160123D01*
X0414756Y0160034D01*
X0414592Y0159949D01*
X0414425Y0159868D01*
X0414257Y0159791D01*
X0414087Y0159718D01*
X0413915Y0159649D01*
X0413742Y0159585D01*
X0413567Y0159525D01*
X0413390Y0159469D01*
X0413213Y0159417D01*
X0413034Y0159370D01*
X0412854Y0159327D01*
X0412673Y0159289D01*
X0412491Y0159255D01*
X0412308Y0159226D01*
X0412125Y0159201D01*
X0411941Y0159180D01*
X0411757Y0159164D01*
X0411572Y0159153D01*
X0411387Y0159146D01*
X0411202Y0159144D01*
X0411017Y0159146D01*
X0410832Y0159153D01*
X0410647Y0159164D01*
X0410463Y0159180D01*
X0410279Y0159201D01*
X0410096Y0159226D01*
X0409913Y0159255D01*
X0409731Y0159289D01*
X0409550Y0159327D01*
X0409370Y0159370D01*
X0409191Y0159417D01*
X0409014Y0159469D01*
X0408837Y0159525D01*
X0408662Y0159585D01*
X0408489Y0159649D01*
X0408317Y0159718D01*
X0408147Y0159791D01*
X0407979Y0159868D01*
X0407812Y0159949D01*
X0407648Y0160034D01*
X0407486Y0160123D01*
X0407326Y0160217D01*
X0407169Y0160314D01*
X0407014Y0160415D01*
X0406861Y0160519D01*
X0406711Y0160628D01*
X0406564Y0160740D01*
X0406419Y0160855D01*
X0406278Y0160974D01*
X0406139Y0161097D01*
X0406004Y0161223D01*
X0405871Y0161352D01*
X0405742Y0161485D01*
X0405616Y0161620D01*
X0405493Y0161759D01*
X0405374Y0161900D01*
X0405259Y0162045D01*
X0405147Y0162192D01*
X0405038Y0162342D01*
X0404934Y0162495D01*
X0404833Y0162650D01*
X0404736Y0162807D01*
X0404642Y0162967D01*
X0404553Y0163129D01*
X0404468Y0163293D01*
X0404387Y0163460D01*
X0404310Y0163628D01*
X0404237Y0163798D01*
X0404168Y0163970D01*
X0404104Y0164143D01*
X0404044Y0164318D01*
X0403988Y0164495D01*
X0403936Y0164672D01*
X0403889Y0164851D01*
X0403846Y0165031D01*
X0403808Y0165212D01*
X0403774Y0165394D01*
X0403745Y0165577D01*
X0403720Y0165760D01*
X0403699Y0165944D01*
X0403683Y0166128D01*
X0403672Y0166313D01*
X0403665Y0166498D01*
X0403663Y0166683D01*
X0403663Y0186683D02*
X0403665Y0186868D01*
X0403672Y0187053D01*
X0403683Y0187238D01*
X0403699Y0187422D01*
X0403720Y0187606D01*
X0403745Y0187789D01*
X0403774Y0187972D01*
X0403808Y0188154D01*
X0403846Y0188335D01*
X0403889Y0188515D01*
X0403936Y0188694D01*
X0403988Y0188871D01*
X0404044Y0189048D01*
X0404104Y0189223D01*
X0404168Y0189396D01*
X0404237Y0189568D01*
X0404310Y0189738D01*
X0404387Y0189906D01*
X0404468Y0190073D01*
X0404553Y0190237D01*
X0404642Y0190399D01*
X0404736Y0190559D01*
X0404833Y0190716D01*
X0404934Y0190871D01*
X0405038Y0191024D01*
X0405147Y0191174D01*
X0405259Y0191321D01*
X0405374Y0191466D01*
X0405493Y0191607D01*
X0405616Y0191746D01*
X0405742Y0191881D01*
X0405871Y0192014D01*
X0406004Y0192143D01*
X0406139Y0192269D01*
X0406278Y0192392D01*
X0406419Y0192511D01*
X0406564Y0192626D01*
X0406711Y0192738D01*
X0406861Y0192847D01*
X0407014Y0192951D01*
X0407169Y0193052D01*
X0407326Y0193149D01*
X0407486Y0193243D01*
X0407648Y0193332D01*
X0407812Y0193417D01*
X0407979Y0193498D01*
X0408147Y0193575D01*
X0408317Y0193648D01*
X0408489Y0193717D01*
X0408662Y0193781D01*
X0408837Y0193841D01*
X0409014Y0193897D01*
X0409191Y0193949D01*
X0409370Y0193996D01*
X0409550Y0194039D01*
X0409731Y0194077D01*
X0409913Y0194111D01*
X0410096Y0194140D01*
X0410279Y0194165D01*
X0410463Y0194186D01*
X0410647Y0194202D01*
X0410832Y0194213D01*
X0411017Y0194220D01*
X0411202Y0194222D01*
X0411387Y0194220D01*
X0411572Y0194213D01*
X0411757Y0194202D01*
X0411941Y0194186D01*
X0412125Y0194165D01*
X0412308Y0194140D01*
X0412491Y0194111D01*
X0412673Y0194077D01*
X0412854Y0194039D01*
X0413034Y0193996D01*
X0413213Y0193949D01*
X0413390Y0193897D01*
X0413567Y0193841D01*
X0413742Y0193781D01*
X0413915Y0193717D01*
X0414087Y0193648D01*
X0414257Y0193575D01*
X0414425Y0193498D01*
X0414592Y0193417D01*
X0414756Y0193332D01*
X0414918Y0193243D01*
X0415078Y0193149D01*
X0415235Y0193052D01*
X0415390Y0192951D01*
X0415543Y0192847D01*
X0415693Y0192738D01*
X0415840Y0192626D01*
X0415985Y0192511D01*
X0416126Y0192392D01*
X0416265Y0192269D01*
X0416400Y0192143D01*
X0416533Y0192014D01*
X0416662Y0191881D01*
X0416788Y0191746D01*
X0416911Y0191607D01*
X0417030Y0191466D01*
X0417145Y0191321D01*
X0417257Y0191174D01*
X0417366Y0191024D01*
X0417470Y0190871D01*
X0417571Y0190716D01*
X0417668Y0190559D01*
X0417762Y0190399D01*
X0417851Y0190237D01*
X0417936Y0190073D01*
X0418017Y0189906D01*
X0418094Y0189738D01*
X0418167Y0189568D01*
X0418236Y0189396D01*
X0418300Y0189223D01*
X0418360Y0189048D01*
X0418416Y0188871D01*
X0418468Y0188694D01*
X0418515Y0188515D01*
X0418558Y0188335D01*
X0418596Y0188154D01*
X0418630Y0187972D01*
X0418659Y0187789D01*
X0418684Y0187606D01*
X0418705Y0187422D01*
X0418721Y0187238D01*
X0418732Y0187053D01*
X0418739Y0186868D01*
X0418741Y0186683D01*
X0418739Y0186498D01*
X0418732Y0186313D01*
X0418721Y0186128D01*
X0418705Y0185944D01*
X0418684Y0185760D01*
X0418659Y0185577D01*
X0418630Y0185394D01*
X0418596Y0185212D01*
X0418558Y0185031D01*
X0418515Y0184851D01*
X0418468Y0184672D01*
X0418416Y0184495D01*
X0418360Y0184318D01*
X0418300Y0184143D01*
X0418236Y0183970D01*
X0418167Y0183798D01*
X0418094Y0183628D01*
X0418017Y0183460D01*
X0417936Y0183293D01*
X0417851Y0183129D01*
X0417762Y0182967D01*
X0417668Y0182807D01*
X0417571Y0182650D01*
X0417470Y0182495D01*
X0417366Y0182342D01*
X0417257Y0182192D01*
X0417145Y0182045D01*
X0417030Y0181900D01*
X0416911Y0181759D01*
X0416788Y0181620D01*
X0416662Y0181485D01*
X0416533Y0181352D01*
X0416400Y0181223D01*
X0416265Y0181097D01*
X0416126Y0180974D01*
X0415985Y0180855D01*
X0415840Y0180740D01*
X0415693Y0180628D01*
X0415543Y0180519D01*
X0415390Y0180415D01*
X0415235Y0180314D01*
X0415078Y0180217D01*
X0414918Y0180123D01*
X0414756Y0180034D01*
X0414592Y0179949D01*
X0414425Y0179868D01*
X0414257Y0179791D01*
X0414087Y0179718D01*
X0413915Y0179649D01*
X0413742Y0179585D01*
X0413567Y0179525D01*
X0413390Y0179469D01*
X0413213Y0179417D01*
X0413034Y0179370D01*
X0412854Y0179327D01*
X0412673Y0179289D01*
X0412491Y0179255D01*
X0412308Y0179226D01*
X0412125Y0179201D01*
X0411941Y0179180D01*
X0411757Y0179164D01*
X0411572Y0179153D01*
X0411387Y0179146D01*
X0411202Y0179144D01*
X0411017Y0179146D01*
X0410832Y0179153D01*
X0410647Y0179164D01*
X0410463Y0179180D01*
X0410279Y0179201D01*
X0410096Y0179226D01*
X0409913Y0179255D01*
X0409731Y0179289D01*
X0409550Y0179327D01*
X0409370Y0179370D01*
X0409191Y0179417D01*
X0409014Y0179469D01*
X0408837Y0179525D01*
X0408662Y0179585D01*
X0408489Y0179649D01*
X0408317Y0179718D01*
X0408147Y0179791D01*
X0407979Y0179868D01*
X0407812Y0179949D01*
X0407648Y0180034D01*
X0407486Y0180123D01*
X0407326Y0180217D01*
X0407169Y0180314D01*
X0407014Y0180415D01*
X0406861Y0180519D01*
X0406711Y0180628D01*
X0406564Y0180740D01*
X0406419Y0180855D01*
X0406278Y0180974D01*
X0406139Y0181097D01*
X0406004Y0181223D01*
X0405871Y0181352D01*
X0405742Y0181485D01*
X0405616Y0181620D01*
X0405493Y0181759D01*
X0405374Y0181900D01*
X0405259Y0182045D01*
X0405147Y0182192D01*
X0405038Y0182342D01*
X0404934Y0182495D01*
X0404833Y0182650D01*
X0404736Y0182807D01*
X0404642Y0182967D01*
X0404553Y0183129D01*
X0404468Y0183293D01*
X0404387Y0183460D01*
X0404310Y0183628D01*
X0404237Y0183798D01*
X0404168Y0183970D01*
X0404104Y0184143D01*
X0404044Y0184318D01*
X0403988Y0184495D01*
X0403936Y0184672D01*
X0403889Y0184851D01*
X0403846Y0185031D01*
X0403808Y0185212D01*
X0403774Y0185394D01*
X0403745Y0185577D01*
X0403720Y0185760D01*
X0403699Y0185944D01*
X0403683Y0186128D01*
X0403672Y0186313D01*
X0403665Y0186498D01*
X0403663Y0186683D01*
X0403663Y0206683D02*
X0403665Y0206868D01*
X0403672Y0207053D01*
X0403683Y0207238D01*
X0403699Y0207422D01*
X0403720Y0207606D01*
X0403745Y0207789D01*
X0403774Y0207972D01*
X0403808Y0208154D01*
X0403846Y0208335D01*
X0403889Y0208515D01*
X0403936Y0208694D01*
X0403988Y0208871D01*
X0404044Y0209048D01*
X0404104Y0209223D01*
X0404168Y0209396D01*
X0404237Y0209568D01*
X0404310Y0209738D01*
X0404387Y0209906D01*
X0404468Y0210073D01*
X0404553Y0210237D01*
X0404642Y0210399D01*
X0404736Y0210559D01*
X0404833Y0210716D01*
X0404934Y0210871D01*
X0405038Y0211024D01*
X0405147Y0211174D01*
X0405259Y0211321D01*
X0405374Y0211466D01*
X0405493Y0211607D01*
X0405616Y0211746D01*
X0405742Y0211881D01*
X0405871Y0212014D01*
X0406004Y0212143D01*
X0406139Y0212269D01*
X0406278Y0212392D01*
X0406419Y0212511D01*
X0406564Y0212626D01*
X0406711Y0212738D01*
X0406861Y0212847D01*
X0407014Y0212951D01*
X0407169Y0213052D01*
X0407326Y0213149D01*
X0407486Y0213243D01*
X0407648Y0213332D01*
X0407812Y0213417D01*
X0407979Y0213498D01*
X0408147Y0213575D01*
X0408317Y0213648D01*
X0408489Y0213717D01*
X0408662Y0213781D01*
X0408837Y0213841D01*
X0409014Y0213897D01*
X0409191Y0213949D01*
X0409370Y0213996D01*
X0409550Y0214039D01*
X0409731Y0214077D01*
X0409913Y0214111D01*
X0410096Y0214140D01*
X0410279Y0214165D01*
X0410463Y0214186D01*
X0410647Y0214202D01*
X0410832Y0214213D01*
X0411017Y0214220D01*
X0411202Y0214222D01*
X0411387Y0214220D01*
X0411572Y0214213D01*
X0411757Y0214202D01*
X0411941Y0214186D01*
X0412125Y0214165D01*
X0412308Y0214140D01*
X0412491Y0214111D01*
X0412673Y0214077D01*
X0412854Y0214039D01*
X0413034Y0213996D01*
X0413213Y0213949D01*
X0413390Y0213897D01*
X0413567Y0213841D01*
X0413742Y0213781D01*
X0413915Y0213717D01*
X0414087Y0213648D01*
X0414257Y0213575D01*
X0414425Y0213498D01*
X0414592Y0213417D01*
X0414756Y0213332D01*
X0414918Y0213243D01*
X0415078Y0213149D01*
X0415235Y0213052D01*
X0415390Y0212951D01*
X0415543Y0212847D01*
X0415693Y0212738D01*
X0415840Y0212626D01*
X0415985Y0212511D01*
X0416126Y0212392D01*
X0416265Y0212269D01*
X0416400Y0212143D01*
X0416533Y0212014D01*
X0416662Y0211881D01*
X0416788Y0211746D01*
X0416911Y0211607D01*
X0417030Y0211466D01*
X0417145Y0211321D01*
X0417257Y0211174D01*
X0417366Y0211024D01*
X0417470Y0210871D01*
X0417571Y0210716D01*
X0417668Y0210559D01*
X0417762Y0210399D01*
X0417851Y0210237D01*
X0417936Y0210073D01*
X0418017Y0209906D01*
X0418094Y0209738D01*
X0418167Y0209568D01*
X0418236Y0209396D01*
X0418300Y0209223D01*
X0418360Y0209048D01*
X0418416Y0208871D01*
X0418468Y0208694D01*
X0418515Y0208515D01*
X0418558Y0208335D01*
X0418596Y0208154D01*
X0418630Y0207972D01*
X0418659Y0207789D01*
X0418684Y0207606D01*
X0418705Y0207422D01*
X0418721Y0207238D01*
X0418732Y0207053D01*
X0418739Y0206868D01*
X0418741Y0206683D01*
X0418739Y0206498D01*
X0418732Y0206313D01*
X0418721Y0206128D01*
X0418705Y0205944D01*
X0418684Y0205760D01*
X0418659Y0205577D01*
X0418630Y0205394D01*
X0418596Y0205212D01*
X0418558Y0205031D01*
X0418515Y0204851D01*
X0418468Y0204672D01*
X0418416Y0204495D01*
X0418360Y0204318D01*
X0418300Y0204143D01*
X0418236Y0203970D01*
X0418167Y0203798D01*
X0418094Y0203628D01*
X0418017Y0203460D01*
X0417936Y0203293D01*
X0417851Y0203129D01*
X0417762Y0202967D01*
X0417668Y0202807D01*
X0417571Y0202650D01*
X0417470Y0202495D01*
X0417366Y0202342D01*
X0417257Y0202192D01*
X0417145Y0202045D01*
X0417030Y0201900D01*
X0416911Y0201759D01*
X0416788Y0201620D01*
X0416662Y0201485D01*
X0416533Y0201352D01*
X0416400Y0201223D01*
X0416265Y0201097D01*
X0416126Y0200974D01*
X0415985Y0200855D01*
X0415840Y0200740D01*
X0415693Y0200628D01*
X0415543Y0200519D01*
X0415390Y0200415D01*
X0415235Y0200314D01*
X0415078Y0200217D01*
X0414918Y0200123D01*
X0414756Y0200034D01*
X0414592Y0199949D01*
X0414425Y0199868D01*
X0414257Y0199791D01*
X0414087Y0199718D01*
X0413915Y0199649D01*
X0413742Y0199585D01*
X0413567Y0199525D01*
X0413390Y0199469D01*
X0413213Y0199417D01*
X0413034Y0199370D01*
X0412854Y0199327D01*
X0412673Y0199289D01*
X0412491Y0199255D01*
X0412308Y0199226D01*
X0412125Y0199201D01*
X0411941Y0199180D01*
X0411757Y0199164D01*
X0411572Y0199153D01*
X0411387Y0199146D01*
X0411202Y0199144D01*
X0411017Y0199146D01*
X0410832Y0199153D01*
X0410647Y0199164D01*
X0410463Y0199180D01*
X0410279Y0199201D01*
X0410096Y0199226D01*
X0409913Y0199255D01*
X0409731Y0199289D01*
X0409550Y0199327D01*
X0409370Y0199370D01*
X0409191Y0199417D01*
X0409014Y0199469D01*
X0408837Y0199525D01*
X0408662Y0199585D01*
X0408489Y0199649D01*
X0408317Y0199718D01*
X0408147Y0199791D01*
X0407979Y0199868D01*
X0407812Y0199949D01*
X0407648Y0200034D01*
X0407486Y0200123D01*
X0407326Y0200217D01*
X0407169Y0200314D01*
X0407014Y0200415D01*
X0406861Y0200519D01*
X0406711Y0200628D01*
X0406564Y0200740D01*
X0406419Y0200855D01*
X0406278Y0200974D01*
X0406139Y0201097D01*
X0406004Y0201223D01*
X0405871Y0201352D01*
X0405742Y0201485D01*
X0405616Y0201620D01*
X0405493Y0201759D01*
X0405374Y0201900D01*
X0405259Y0202045D01*
X0405147Y0202192D01*
X0405038Y0202342D01*
X0404934Y0202495D01*
X0404833Y0202650D01*
X0404736Y0202807D01*
X0404642Y0202967D01*
X0404553Y0203129D01*
X0404468Y0203293D01*
X0404387Y0203460D01*
X0404310Y0203628D01*
X0404237Y0203798D01*
X0404168Y0203970D01*
X0404104Y0204143D01*
X0404044Y0204318D01*
X0403988Y0204495D01*
X0403936Y0204672D01*
X0403889Y0204851D01*
X0403846Y0205031D01*
X0403808Y0205212D01*
X0403774Y0205394D01*
X0403745Y0205577D01*
X0403720Y0205760D01*
X0403699Y0205944D01*
X0403683Y0206128D01*
X0403672Y0206313D01*
X0403665Y0206498D01*
X0403663Y0206683D01*
X0403663Y0226683D02*
X0403665Y0226868D01*
X0403672Y0227053D01*
X0403683Y0227238D01*
X0403699Y0227422D01*
X0403720Y0227606D01*
X0403745Y0227789D01*
X0403774Y0227972D01*
X0403808Y0228154D01*
X0403846Y0228335D01*
X0403889Y0228515D01*
X0403936Y0228694D01*
X0403988Y0228871D01*
X0404044Y0229048D01*
X0404104Y0229223D01*
X0404168Y0229396D01*
X0404237Y0229568D01*
X0404310Y0229738D01*
X0404387Y0229906D01*
X0404468Y0230073D01*
X0404553Y0230237D01*
X0404642Y0230399D01*
X0404736Y0230559D01*
X0404833Y0230716D01*
X0404934Y0230871D01*
X0405038Y0231024D01*
X0405147Y0231174D01*
X0405259Y0231321D01*
X0405374Y0231466D01*
X0405493Y0231607D01*
X0405616Y0231746D01*
X0405742Y0231881D01*
X0405871Y0232014D01*
X0406004Y0232143D01*
X0406139Y0232269D01*
X0406278Y0232392D01*
X0406419Y0232511D01*
X0406564Y0232626D01*
X0406711Y0232738D01*
X0406861Y0232847D01*
X0407014Y0232951D01*
X0407169Y0233052D01*
X0407326Y0233149D01*
X0407486Y0233243D01*
X0407648Y0233332D01*
X0407812Y0233417D01*
X0407979Y0233498D01*
X0408147Y0233575D01*
X0408317Y0233648D01*
X0408489Y0233717D01*
X0408662Y0233781D01*
X0408837Y0233841D01*
X0409014Y0233897D01*
X0409191Y0233949D01*
X0409370Y0233996D01*
X0409550Y0234039D01*
X0409731Y0234077D01*
X0409913Y0234111D01*
X0410096Y0234140D01*
X0410279Y0234165D01*
X0410463Y0234186D01*
X0410647Y0234202D01*
X0410832Y0234213D01*
X0411017Y0234220D01*
X0411202Y0234222D01*
X0411387Y0234220D01*
X0411572Y0234213D01*
X0411757Y0234202D01*
X0411941Y0234186D01*
X0412125Y0234165D01*
X0412308Y0234140D01*
X0412491Y0234111D01*
X0412673Y0234077D01*
X0412854Y0234039D01*
X0413034Y0233996D01*
X0413213Y0233949D01*
X0413390Y0233897D01*
X0413567Y0233841D01*
X0413742Y0233781D01*
X0413915Y0233717D01*
X0414087Y0233648D01*
X0414257Y0233575D01*
X0414425Y0233498D01*
X0414592Y0233417D01*
X0414756Y0233332D01*
X0414918Y0233243D01*
X0415078Y0233149D01*
X0415235Y0233052D01*
X0415390Y0232951D01*
X0415543Y0232847D01*
X0415693Y0232738D01*
X0415840Y0232626D01*
X0415985Y0232511D01*
X0416126Y0232392D01*
X0416265Y0232269D01*
X0416400Y0232143D01*
X0416533Y0232014D01*
X0416662Y0231881D01*
X0416788Y0231746D01*
X0416911Y0231607D01*
X0417030Y0231466D01*
X0417145Y0231321D01*
X0417257Y0231174D01*
X0417366Y0231024D01*
X0417470Y0230871D01*
X0417571Y0230716D01*
X0417668Y0230559D01*
X0417762Y0230399D01*
X0417851Y0230237D01*
X0417936Y0230073D01*
X0418017Y0229906D01*
X0418094Y0229738D01*
X0418167Y0229568D01*
X0418236Y0229396D01*
X0418300Y0229223D01*
X0418360Y0229048D01*
X0418416Y0228871D01*
X0418468Y0228694D01*
X0418515Y0228515D01*
X0418558Y0228335D01*
X0418596Y0228154D01*
X0418630Y0227972D01*
X0418659Y0227789D01*
X0418684Y0227606D01*
X0418705Y0227422D01*
X0418721Y0227238D01*
X0418732Y0227053D01*
X0418739Y0226868D01*
X0418741Y0226683D01*
X0418739Y0226498D01*
X0418732Y0226313D01*
X0418721Y0226128D01*
X0418705Y0225944D01*
X0418684Y0225760D01*
X0418659Y0225577D01*
X0418630Y0225394D01*
X0418596Y0225212D01*
X0418558Y0225031D01*
X0418515Y0224851D01*
X0418468Y0224672D01*
X0418416Y0224495D01*
X0418360Y0224318D01*
X0418300Y0224143D01*
X0418236Y0223970D01*
X0418167Y0223798D01*
X0418094Y0223628D01*
X0418017Y0223460D01*
X0417936Y0223293D01*
X0417851Y0223129D01*
X0417762Y0222967D01*
X0417668Y0222807D01*
X0417571Y0222650D01*
X0417470Y0222495D01*
X0417366Y0222342D01*
X0417257Y0222192D01*
X0417145Y0222045D01*
X0417030Y0221900D01*
X0416911Y0221759D01*
X0416788Y0221620D01*
X0416662Y0221485D01*
X0416533Y0221352D01*
X0416400Y0221223D01*
X0416265Y0221097D01*
X0416126Y0220974D01*
X0415985Y0220855D01*
X0415840Y0220740D01*
X0415693Y0220628D01*
X0415543Y0220519D01*
X0415390Y0220415D01*
X0415235Y0220314D01*
X0415078Y0220217D01*
X0414918Y0220123D01*
X0414756Y0220034D01*
X0414592Y0219949D01*
X0414425Y0219868D01*
X0414257Y0219791D01*
X0414087Y0219718D01*
X0413915Y0219649D01*
X0413742Y0219585D01*
X0413567Y0219525D01*
X0413390Y0219469D01*
X0413213Y0219417D01*
X0413034Y0219370D01*
X0412854Y0219327D01*
X0412673Y0219289D01*
X0412491Y0219255D01*
X0412308Y0219226D01*
X0412125Y0219201D01*
X0411941Y0219180D01*
X0411757Y0219164D01*
X0411572Y0219153D01*
X0411387Y0219146D01*
X0411202Y0219144D01*
X0411017Y0219146D01*
X0410832Y0219153D01*
X0410647Y0219164D01*
X0410463Y0219180D01*
X0410279Y0219201D01*
X0410096Y0219226D01*
X0409913Y0219255D01*
X0409731Y0219289D01*
X0409550Y0219327D01*
X0409370Y0219370D01*
X0409191Y0219417D01*
X0409014Y0219469D01*
X0408837Y0219525D01*
X0408662Y0219585D01*
X0408489Y0219649D01*
X0408317Y0219718D01*
X0408147Y0219791D01*
X0407979Y0219868D01*
X0407812Y0219949D01*
X0407648Y0220034D01*
X0407486Y0220123D01*
X0407326Y0220217D01*
X0407169Y0220314D01*
X0407014Y0220415D01*
X0406861Y0220519D01*
X0406711Y0220628D01*
X0406564Y0220740D01*
X0406419Y0220855D01*
X0406278Y0220974D01*
X0406139Y0221097D01*
X0406004Y0221223D01*
X0405871Y0221352D01*
X0405742Y0221485D01*
X0405616Y0221620D01*
X0405493Y0221759D01*
X0405374Y0221900D01*
X0405259Y0222045D01*
X0405147Y0222192D01*
X0405038Y0222342D01*
X0404934Y0222495D01*
X0404833Y0222650D01*
X0404736Y0222807D01*
X0404642Y0222967D01*
X0404553Y0223129D01*
X0404468Y0223293D01*
X0404387Y0223460D01*
X0404310Y0223628D01*
X0404237Y0223798D01*
X0404168Y0223970D01*
X0404104Y0224143D01*
X0404044Y0224318D01*
X0403988Y0224495D01*
X0403936Y0224672D01*
X0403889Y0224851D01*
X0403846Y0225031D01*
X0403808Y0225212D01*
X0403774Y0225394D01*
X0403745Y0225577D01*
X0403720Y0225760D01*
X0403699Y0225944D01*
X0403683Y0226128D01*
X0403672Y0226313D01*
X0403665Y0226498D01*
X0403663Y0226683D01*
X0422769Y0236683D02*
X0422769Y0237190D01*
X0422178Y0237892D01*
X0422178Y0238927D01*
X0424989Y0238927D01*
X0424989Y0237892D01*
X0424398Y0237190D01*
X0424398Y0236683D01*
X0403663Y0246683D02*
X0403665Y0246868D01*
X0403672Y0247053D01*
X0403683Y0247238D01*
X0403699Y0247422D01*
X0403720Y0247606D01*
X0403745Y0247789D01*
X0403774Y0247972D01*
X0403808Y0248154D01*
X0403846Y0248335D01*
X0403889Y0248515D01*
X0403936Y0248694D01*
X0403988Y0248871D01*
X0404044Y0249048D01*
X0404104Y0249223D01*
X0404168Y0249396D01*
X0404237Y0249568D01*
X0404310Y0249738D01*
X0404387Y0249906D01*
X0404468Y0250073D01*
X0404553Y0250237D01*
X0404642Y0250399D01*
X0404736Y0250559D01*
X0404833Y0250716D01*
X0404934Y0250871D01*
X0405038Y0251024D01*
X0405147Y0251174D01*
X0405259Y0251321D01*
X0405374Y0251466D01*
X0405493Y0251607D01*
X0405616Y0251746D01*
X0405742Y0251881D01*
X0405871Y0252014D01*
X0406004Y0252143D01*
X0406139Y0252269D01*
X0406278Y0252392D01*
X0406419Y0252511D01*
X0406564Y0252626D01*
X0406711Y0252738D01*
X0406861Y0252847D01*
X0407014Y0252951D01*
X0407169Y0253052D01*
X0407326Y0253149D01*
X0407486Y0253243D01*
X0407648Y0253332D01*
X0407812Y0253417D01*
X0407979Y0253498D01*
X0408147Y0253575D01*
X0408317Y0253648D01*
X0408489Y0253717D01*
X0408662Y0253781D01*
X0408837Y0253841D01*
X0409014Y0253897D01*
X0409191Y0253949D01*
X0409370Y0253996D01*
X0409550Y0254039D01*
X0409731Y0254077D01*
X0409913Y0254111D01*
X0410096Y0254140D01*
X0410279Y0254165D01*
X0410463Y0254186D01*
X0410647Y0254202D01*
X0410832Y0254213D01*
X0411017Y0254220D01*
X0411202Y0254222D01*
X0411387Y0254220D01*
X0411572Y0254213D01*
X0411757Y0254202D01*
X0411941Y0254186D01*
X0412125Y0254165D01*
X0412308Y0254140D01*
X0412491Y0254111D01*
X0412673Y0254077D01*
X0412854Y0254039D01*
X0413034Y0253996D01*
X0413213Y0253949D01*
X0413390Y0253897D01*
X0413567Y0253841D01*
X0413742Y0253781D01*
X0413915Y0253717D01*
X0414087Y0253648D01*
X0414257Y0253575D01*
X0414425Y0253498D01*
X0414592Y0253417D01*
X0414756Y0253332D01*
X0414918Y0253243D01*
X0415078Y0253149D01*
X0415235Y0253052D01*
X0415390Y0252951D01*
X0415543Y0252847D01*
X0415693Y0252738D01*
X0415840Y0252626D01*
X0415985Y0252511D01*
X0416126Y0252392D01*
X0416265Y0252269D01*
X0416400Y0252143D01*
X0416533Y0252014D01*
X0416662Y0251881D01*
X0416788Y0251746D01*
X0416911Y0251607D01*
X0417030Y0251466D01*
X0417145Y0251321D01*
X0417257Y0251174D01*
X0417366Y0251024D01*
X0417470Y0250871D01*
X0417571Y0250716D01*
X0417668Y0250559D01*
X0417762Y0250399D01*
X0417851Y0250237D01*
X0417936Y0250073D01*
X0418017Y0249906D01*
X0418094Y0249738D01*
X0418167Y0249568D01*
X0418236Y0249396D01*
X0418300Y0249223D01*
X0418360Y0249048D01*
X0418416Y0248871D01*
X0418468Y0248694D01*
X0418515Y0248515D01*
X0418558Y0248335D01*
X0418596Y0248154D01*
X0418630Y0247972D01*
X0418659Y0247789D01*
X0418684Y0247606D01*
X0418705Y0247422D01*
X0418721Y0247238D01*
X0418732Y0247053D01*
X0418739Y0246868D01*
X0418741Y0246683D01*
X0418739Y0246498D01*
X0418732Y0246313D01*
X0418721Y0246128D01*
X0418705Y0245944D01*
X0418684Y0245760D01*
X0418659Y0245577D01*
X0418630Y0245394D01*
X0418596Y0245212D01*
X0418558Y0245031D01*
X0418515Y0244851D01*
X0418468Y0244672D01*
X0418416Y0244495D01*
X0418360Y0244318D01*
X0418300Y0244143D01*
X0418236Y0243970D01*
X0418167Y0243798D01*
X0418094Y0243628D01*
X0418017Y0243460D01*
X0417936Y0243293D01*
X0417851Y0243129D01*
X0417762Y0242967D01*
X0417668Y0242807D01*
X0417571Y0242650D01*
X0417470Y0242495D01*
X0417366Y0242342D01*
X0417257Y0242192D01*
X0417145Y0242045D01*
X0417030Y0241900D01*
X0416911Y0241759D01*
X0416788Y0241620D01*
X0416662Y0241485D01*
X0416533Y0241352D01*
X0416400Y0241223D01*
X0416265Y0241097D01*
X0416126Y0240974D01*
X0415985Y0240855D01*
X0415840Y0240740D01*
X0415693Y0240628D01*
X0415543Y0240519D01*
X0415390Y0240415D01*
X0415235Y0240314D01*
X0415078Y0240217D01*
X0414918Y0240123D01*
X0414756Y0240034D01*
X0414592Y0239949D01*
X0414425Y0239868D01*
X0414257Y0239791D01*
X0414087Y0239718D01*
X0413915Y0239649D01*
X0413742Y0239585D01*
X0413567Y0239525D01*
X0413390Y0239469D01*
X0413213Y0239417D01*
X0413034Y0239370D01*
X0412854Y0239327D01*
X0412673Y0239289D01*
X0412491Y0239255D01*
X0412308Y0239226D01*
X0412125Y0239201D01*
X0411941Y0239180D01*
X0411757Y0239164D01*
X0411572Y0239153D01*
X0411387Y0239146D01*
X0411202Y0239144D01*
X0411017Y0239146D01*
X0410832Y0239153D01*
X0410647Y0239164D01*
X0410463Y0239180D01*
X0410279Y0239201D01*
X0410096Y0239226D01*
X0409913Y0239255D01*
X0409731Y0239289D01*
X0409550Y0239327D01*
X0409370Y0239370D01*
X0409191Y0239417D01*
X0409014Y0239469D01*
X0408837Y0239525D01*
X0408662Y0239585D01*
X0408489Y0239649D01*
X0408317Y0239718D01*
X0408147Y0239791D01*
X0407979Y0239868D01*
X0407812Y0239949D01*
X0407648Y0240034D01*
X0407486Y0240123D01*
X0407326Y0240217D01*
X0407169Y0240314D01*
X0407014Y0240415D01*
X0406861Y0240519D01*
X0406711Y0240628D01*
X0406564Y0240740D01*
X0406419Y0240855D01*
X0406278Y0240974D01*
X0406139Y0241097D01*
X0406004Y0241223D01*
X0405871Y0241352D01*
X0405742Y0241485D01*
X0405616Y0241620D01*
X0405493Y0241759D01*
X0405374Y0241900D01*
X0405259Y0242045D01*
X0405147Y0242192D01*
X0405038Y0242342D01*
X0404934Y0242495D01*
X0404833Y0242650D01*
X0404736Y0242807D01*
X0404642Y0242967D01*
X0404553Y0243129D01*
X0404468Y0243293D01*
X0404387Y0243460D01*
X0404310Y0243628D01*
X0404237Y0243798D01*
X0404168Y0243970D01*
X0404104Y0244143D01*
X0404044Y0244318D01*
X0403988Y0244495D01*
X0403936Y0244672D01*
X0403889Y0244851D01*
X0403846Y0245031D01*
X0403808Y0245212D01*
X0403774Y0245394D01*
X0403745Y0245577D01*
X0403720Y0245760D01*
X0403699Y0245944D01*
X0403683Y0246128D01*
X0403672Y0246313D01*
X0403665Y0246498D01*
X0403663Y0246683D01*
X0052245Y0156517D02*
X0052245Y0076517D01*
X0052245Y0036517D01*
X0046238Y0036517D01*
X0044337Y0036517D01*
X0028601Y0036517D01*
X0026663Y0036517D01*
X0026663Y0076517D01*
X0023985Y0076517D01*
X0021536Y0076517D01*
X0020355Y0076517D01*
X0020355Y0036517D01*
X0021536Y0036517D01*
X0021536Y0076517D01*
X0020355Y0076517D01*
X0020355Y0156517D01*
X0021536Y0156517D01*
X0021536Y0076517D01*
X0023202Y0076517D01*
X0023985Y0076517D01*
X0023985Y0036517D01*
X0023202Y0036517D01*
X0021536Y0036517D01*
X0022611Y0035308D02*
X0022611Y0034273D01*
X0025422Y0034273D01*
X0025422Y0035308D01*
X0024831Y0036010D01*
X0024831Y0036517D01*
X0026663Y0036517D01*
X0024831Y0036517D02*
X0023985Y0036517D01*
X0023202Y0036517D02*
X0023202Y0036010D01*
X0022611Y0035308D01*
X0028859Y0046517D02*
X0028861Y0046702D01*
X0028868Y0046887D01*
X0028879Y0047072D01*
X0028895Y0047256D01*
X0028916Y0047440D01*
X0028941Y0047623D01*
X0028970Y0047806D01*
X0029004Y0047988D01*
X0029042Y0048169D01*
X0029085Y0048349D01*
X0029132Y0048528D01*
X0029184Y0048705D01*
X0029240Y0048882D01*
X0029300Y0049057D01*
X0029364Y0049230D01*
X0029433Y0049402D01*
X0029506Y0049572D01*
X0029583Y0049740D01*
X0029664Y0049907D01*
X0029749Y0050071D01*
X0029838Y0050233D01*
X0029932Y0050393D01*
X0030029Y0050550D01*
X0030130Y0050705D01*
X0030234Y0050858D01*
X0030343Y0051008D01*
X0030455Y0051155D01*
X0030570Y0051300D01*
X0030689Y0051441D01*
X0030812Y0051580D01*
X0030938Y0051715D01*
X0031067Y0051848D01*
X0031200Y0051977D01*
X0031335Y0052103D01*
X0031474Y0052226D01*
X0031615Y0052345D01*
X0031760Y0052460D01*
X0031907Y0052572D01*
X0032057Y0052681D01*
X0032210Y0052785D01*
X0032365Y0052886D01*
X0032522Y0052983D01*
X0032682Y0053077D01*
X0032844Y0053166D01*
X0033008Y0053251D01*
X0033175Y0053332D01*
X0033343Y0053409D01*
X0033513Y0053482D01*
X0033685Y0053551D01*
X0033858Y0053615D01*
X0034033Y0053675D01*
X0034210Y0053731D01*
X0034387Y0053783D01*
X0034566Y0053830D01*
X0034746Y0053873D01*
X0034927Y0053911D01*
X0035109Y0053945D01*
X0035292Y0053974D01*
X0035475Y0053999D01*
X0035659Y0054020D01*
X0035843Y0054036D01*
X0036028Y0054047D01*
X0036213Y0054054D01*
X0036398Y0054056D01*
X0036583Y0054054D01*
X0036768Y0054047D01*
X0036953Y0054036D01*
X0037137Y0054020D01*
X0037321Y0053999D01*
X0037504Y0053974D01*
X0037687Y0053945D01*
X0037869Y0053911D01*
X0038050Y0053873D01*
X0038230Y0053830D01*
X0038409Y0053783D01*
X0038586Y0053731D01*
X0038763Y0053675D01*
X0038938Y0053615D01*
X0039111Y0053551D01*
X0039283Y0053482D01*
X0039453Y0053409D01*
X0039621Y0053332D01*
X0039788Y0053251D01*
X0039952Y0053166D01*
X0040114Y0053077D01*
X0040274Y0052983D01*
X0040431Y0052886D01*
X0040586Y0052785D01*
X0040739Y0052681D01*
X0040889Y0052572D01*
X0041036Y0052460D01*
X0041181Y0052345D01*
X0041322Y0052226D01*
X0041461Y0052103D01*
X0041596Y0051977D01*
X0041729Y0051848D01*
X0041858Y0051715D01*
X0041984Y0051580D01*
X0042107Y0051441D01*
X0042226Y0051300D01*
X0042341Y0051155D01*
X0042453Y0051008D01*
X0042562Y0050858D01*
X0042666Y0050705D01*
X0042767Y0050550D01*
X0042864Y0050393D01*
X0042958Y0050233D01*
X0043047Y0050071D01*
X0043132Y0049907D01*
X0043213Y0049740D01*
X0043290Y0049572D01*
X0043363Y0049402D01*
X0043432Y0049230D01*
X0043496Y0049057D01*
X0043556Y0048882D01*
X0043612Y0048705D01*
X0043664Y0048528D01*
X0043711Y0048349D01*
X0043754Y0048169D01*
X0043792Y0047988D01*
X0043826Y0047806D01*
X0043855Y0047623D01*
X0043880Y0047440D01*
X0043901Y0047256D01*
X0043917Y0047072D01*
X0043928Y0046887D01*
X0043935Y0046702D01*
X0043937Y0046517D01*
X0043935Y0046332D01*
X0043928Y0046147D01*
X0043917Y0045962D01*
X0043901Y0045778D01*
X0043880Y0045594D01*
X0043855Y0045411D01*
X0043826Y0045228D01*
X0043792Y0045046D01*
X0043754Y0044865D01*
X0043711Y0044685D01*
X0043664Y0044506D01*
X0043612Y0044329D01*
X0043556Y0044152D01*
X0043496Y0043977D01*
X0043432Y0043804D01*
X0043363Y0043632D01*
X0043290Y0043462D01*
X0043213Y0043294D01*
X0043132Y0043127D01*
X0043047Y0042963D01*
X0042958Y0042801D01*
X0042864Y0042641D01*
X0042767Y0042484D01*
X0042666Y0042329D01*
X0042562Y0042176D01*
X0042453Y0042026D01*
X0042341Y0041879D01*
X0042226Y0041734D01*
X0042107Y0041593D01*
X0041984Y0041454D01*
X0041858Y0041319D01*
X0041729Y0041186D01*
X0041596Y0041057D01*
X0041461Y0040931D01*
X0041322Y0040808D01*
X0041181Y0040689D01*
X0041036Y0040574D01*
X0040889Y0040462D01*
X0040739Y0040353D01*
X0040586Y0040249D01*
X0040431Y0040148D01*
X0040274Y0040051D01*
X0040114Y0039957D01*
X0039952Y0039868D01*
X0039788Y0039783D01*
X0039621Y0039702D01*
X0039453Y0039625D01*
X0039283Y0039552D01*
X0039111Y0039483D01*
X0038938Y0039419D01*
X0038763Y0039359D01*
X0038586Y0039303D01*
X0038409Y0039251D01*
X0038230Y0039204D01*
X0038050Y0039161D01*
X0037869Y0039123D01*
X0037687Y0039089D01*
X0037504Y0039060D01*
X0037321Y0039035D01*
X0037137Y0039014D01*
X0036953Y0038998D01*
X0036768Y0038987D01*
X0036583Y0038980D01*
X0036398Y0038978D01*
X0036213Y0038980D01*
X0036028Y0038987D01*
X0035843Y0038998D01*
X0035659Y0039014D01*
X0035475Y0039035D01*
X0035292Y0039060D01*
X0035109Y0039089D01*
X0034927Y0039123D01*
X0034746Y0039161D01*
X0034566Y0039204D01*
X0034387Y0039251D01*
X0034210Y0039303D01*
X0034033Y0039359D01*
X0033858Y0039419D01*
X0033685Y0039483D01*
X0033513Y0039552D01*
X0033343Y0039625D01*
X0033175Y0039702D01*
X0033008Y0039783D01*
X0032844Y0039868D01*
X0032682Y0039957D01*
X0032522Y0040051D01*
X0032365Y0040148D01*
X0032210Y0040249D01*
X0032057Y0040353D01*
X0031907Y0040462D01*
X0031760Y0040574D01*
X0031615Y0040689D01*
X0031474Y0040808D01*
X0031335Y0040931D01*
X0031200Y0041057D01*
X0031067Y0041186D01*
X0030938Y0041319D01*
X0030812Y0041454D01*
X0030689Y0041593D01*
X0030570Y0041734D01*
X0030455Y0041879D01*
X0030343Y0042026D01*
X0030234Y0042176D01*
X0030130Y0042329D01*
X0030029Y0042484D01*
X0029932Y0042641D01*
X0029838Y0042801D01*
X0029749Y0042963D01*
X0029664Y0043127D01*
X0029583Y0043294D01*
X0029506Y0043462D01*
X0029433Y0043632D01*
X0029364Y0043804D01*
X0029300Y0043977D01*
X0029240Y0044152D01*
X0029184Y0044329D01*
X0029132Y0044506D01*
X0029085Y0044685D01*
X0029042Y0044865D01*
X0029004Y0045046D01*
X0028970Y0045228D01*
X0028941Y0045411D01*
X0028916Y0045594D01*
X0028895Y0045778D01*
X0028879Y0045962D01*
X0028868Y0046147D01*
X0028861Y0046332D01*
X0028859Y0046517D01*
X0046238Y0036517D02*
X0046238Y0076517D01*
X0052245Y0076517D01*
X0046238Y0076517D01*
X0044337Y0076517D01*
X0028601Y0076517D01*
X0026663Y0076517D01*
X0026663Y0156517D01*
X0023985Y0156517D01*
X0021536Y0156517D01*
X0023985Y0156517D02*
X0023985Y0076517D01*
X0024831Y0076517D01*
X0026663Y0076517D01*
X0028601Y0076517D01*
X0044337Y0076517D01*
X0046238Y0076517D01*
X0046238Y0156517D01*
X0052245Y0156517D01*
X0046238Y0156517D02*
X0044337Y0156517D01*
X0028601Y0156517D01*
X0026663Y0156517D01*
X0028859Y0146517D02*
X0028861Y0146702D01*
X0028868Y0146887D01*
X0028879Y0147072D01*
X0028895Y0147256D01*
X0028916Y0147440D01*
X0028941Y0147623D01*
X0028970Y0147806D01*
X0029004Y0147988D01*
X0029042Y0148169D01*
X0029085Y0148349D01*
X0029132Y0148528D01*
X0029184Y0148705D01*
X0029240Y0148882D01*
X0029300Y0149057D01*
X0029364Y0149230D01*
X0029433Y0149402D01*
X0029506Y0149572D01*
X0029583Y0149740D01*
X0029664Y0149907D01*
X0029749Y0150071D01*
X0029838Y0150233D01*
X0029932Y0150393D01*
X0030029Y0150550D01*
X0030130Y0150705D01*
X0030234Y0150858D01*
X0030343Y0151008D01*
X0030455Y0151155D01*
X0030570Y0151300D01*
X0030689Y0151441D01*
X0030812Y0151580D01*
X0030938Y0151715D01*
X0031067Y0151848D01*
X0031200Y0151977D01*
X0031335Y0152103D01*
X0031474Y0152226D01*
X0031615Y0152345D01*
X0031760Y0152460D01*
X0031907Y0152572D01*
X0032057Y0152681D01*
X0032210Y0152785D01*
X0032365Y0152886D01*
X0032522Y0152983D01*
X0032682Y0153077D01*
X0032844Y0153166D01*
X0033008Y0153251D01*
X0033175Y0153332D01*
X0033343Y0153409D01*
X0033513Y0153482D01*
X0033685Y0153551D01*
X0033858Y0153615D01*
X0034033Y0153675D01*
X0034210Y0153731D01*
X0034387Y0153783D01*
X0034566Y0153830D01*
X0034746Y0153873D01*
X0034927Y0153911D01*
X0035109Y0153945D01*
X0035292Y0153974D01*
X0035475Y0153999D01*
X0035659Y0154020D01*
X0035843Y0154036D01*
X0036028Y0154047D01*
X0036213Y0154054D01*
X0036398Y0154056D01*
X0036583Y0154054D01*
X0036768Y0154047D01*
X0036953Y0154036D01*
X0037137Y0154020D01*
X0037321Y0153999D01*
X0037504Y0153974D01*
X0037687Y0153945D01*
X0037869Y0153911D01*
X0038050Y0153873D01*
X0038230Y0153830D01*
X0038409Y0153783D01*
X0038586Y0153731D01*
X0038763Y0153675D01*
X0038938Y0153615D01*
X0039111Y0153551D01*
X0039283Y0153482D01*
X0039453Y0153409D01*
X0039621Y0153332D01*
X0039788Y0153251D01*
X0039952Y0153166D01*
X0040114Y0153077D01*
X0040274Y0152983D01*
X0040431Y0152886D01*
X0040586Y0152785D01*
X0040739Y0152681D01*
X0040889Y0152572D01*
X0041036Y0152460D01*
X0041181Y0152345D01*
X0041322Y0152226D01*
X0041461Y0152103D01*
X0041596Y0151977D01*
X0041729Y0151848D01*
X0041858Y0151715D01*
X0041984Y0151580D01*
X0042107Y0151441D01*
X0042226Y0151300D01*
X0042341Y0151155D01*
X0042453Y0151008D01*
X0042562Y0150858D01*
X0042666Y0150705D01*
X0042767Y0150550D01*
X0042864Y0150393D01*
X0042958Y0150233D01*
X0043047Y0150071D01*
X0043132Y0149907D01*
X0043213Y0149740D01*
X0043290Y0149572D01*
X0043363Y0149402D01*
X0043432Y0149230D01*
X0043496Y0149057D01*
X0043556Y0148882D01*
X0043612Y0148705D01*
X0043664Y0148528D01*
X0043711Y0148349D01*
X0043754Y0148169D01*
X0043792Y0147988D01*
X0043826Y0147806D01*
X0043855Y0147623D01*
X0043880Y0147440D01*
X0043901Y0147256D01*
X0043917Y0147072D01*
X0043928Y0146887D01*
X0043935Y0146702D01*
X0043937Y0146517D01*
X0043935Y0146332D01*
X0043928Y0146147D01*
X0043917Y0145962D01*
X0043901Y0145778D01*
X0043880Y0145594D01*
X0043855Y0145411D01*
X0043826Y0145228D01*
X0043792Y0145046D01*
X0043754Y0144865D01*
X0043711Y0144685D01*
X0043664Y0144506D01*
X0043612Y0144329D01*
X0043556Y0144152D01*
X0043496Y0143977D01*
X0043432Y0143804D01*
X0043363Y0143632D01*
X0043290Y0143462D01*
X0043213Y0143294D01*
X0043132Y0143127D01*
X0043047Y0142963D01*
X0042958Y0142801D01*
X0042864Y0142641D01*
X0042767Y0142484D01*
X0042666Y0142329D01*
X0042562Y0142176D01*
X0042453Y0142026D01*
X0042341Y0141879D01*
X0042226Y0141734D01*
X0042107Y0141593D01*
X0041984Y0141454D01*
X0041858Y0141319D01*
X0041729Y0141186D01*
X0041596Y0141057D01*
X0041461Y0140931D01*
X0041322Y0140808D01*
X0041181Y0140689D01*
X0041036Y0140574D01*
X0040889Y0140462D01*
X0040739Y0140353D01*
X0040586Y0140249D01*
X0040431Y0140148D01*
X0040274Y0140051D01*
X0040114Y0139957D01*
X0039952Y0139868D01*
X0039788Y0139783D01*
X0039621Y0139702D01*
X0039453Y0139625D01*
X0039283Y0139552D01*
X0039111Y0139483D01*
X0038938Y0139419D01*
X0038763Y0139359D01*
X0038586Y0139303D01*
X0038409Y0139251D01*
X0038230Y0139204D01*
X0038050Y0139161D01*
X0037869Y0139123D01*
X0037687Y0139089D01*
X0037504Y0139060D01*
X0037321Y0139035D01*
X0037137Y0139014D01*
X0036953Y0138998D01*
X0036768Y0138987D01*
X0036583Y0138980D01*
X0036398Y0138978D01*
X0036213Y0138980D01*
X0036028Y0138987D01*
X0035843Y0138998D01*
X0035659Y0139014D01*
X0035475Y0139035D01*
X0035292Y0139060D01*
X0035109Y0139089D01*
X0034927Y0139123D01*
X0034746Y0139161D01*
X0034566Y0139204D01*
X0034387Y0139251D01*
X0034210Y0139303D01*
X0034033Y0139359D01*
X0033858Y0139419D01*
X0033685Y0139483D01*
X0033513Y0139552D01*
X0033343Y0139625D01*
X0033175Y0139702D01*
X0033008Y0139783D01*
X0032844Y0139868D01*
X0032682Y0139957D01*
X0032522Y0140051D01*
X0032365Y0140148D01*
X0032210Y0140249D01*
X0032057Y0140353D01*
X0031907Y0140462D01*
X0031760Y0140574D01*
X0031615Y0140689D01*
X0031474Y0140808D01*
X0031335Y0140931D01*
X0031200Y0141057D01*
X0031067Y0141186D01*
X0030938Y0141319D01*
X0030812Y0141454D01*
X0030689Y0141593D01*
X0030570Y0141734D01*
X0030455Y0141879D01*
X0030343Y0142026D01*
X0030234Y0142176D01*
X0030130Y0142329D01*
X0030029Y0142484D01*
X0029932Y0142641D01*
X0029838Y0142801D01*
X0029749Y0142963D01*
X0029664Y0143127D01*
X0029583Y0143294D01*
X0029506Y0143462D01*
X0029433Y0143632D01*
X0029364Y0143804D01*
X0029300Y0143977D01*
X0029240Y0144152D01*
X0029184Y0144329D01*
X0029132Y0144506D01*
X0029085Y0144685D01*
X0029042Y0144865D01*
X0029004Y0145046D01*
X0028970Y0145228D01*
X0028941Y0145411D01*
X0028916Y0145594D01*
X0028895Y0145778D01*
X0028879Y0145962D01*
X0028868Y0146147D01*
X0028861Y0146332D01*
X0028859Y0146517D01*
X0028859Y0126517D02*
X0028861Y0126702D01*
X0028868Y0126887D01*
X0028879Y0127072D01*
X0028895Y0127256D01*
X0028916Y0127440D01*
X0028941Y0127623D01*
X0028970Y0127806D01*
X0029004Y0127988D01*
X0029042Y0128169D01*
X0029085Y0128349D01*
X0029132Y0128528D01*
X0029184Y0128705D01*
X0029240Y0128882D01*
X0029300Y0129057D01*
X0029364Y0129230D01*
X0029433Y0129402D01*
X0029506Y0129572D01*
X0029583Y0129740D01*
X0029664Y0129907D01*
X0029749Y0130071D01*
X0029838Y0130233D01*
X0029932Y0130393D01*
X0030029Y0130550D01*
X0030130Y0130705D01*
X0030234Y0130858D01*
X0030343Y0131008D01*
X0030455Y0131155D01*
X0030570Y0131300D01*
X0030689Y0131441D01*
X0030812Y0131580D01*
X0030938Y0131715D01*
X0031067Y0131848D01*
X0031200Y0131977D01*
X0031335Y0132103D01*
X0031474Y0132226D01*
X0031615Y0132345D01*
X0031760Y0132460D01*
X0031907Y0132572D01*
X0032057Y0132681D01*
X0032210Y0132785D01*
X0032365Y0132886D01*
X0032522Y0132983D01*
X0032682Y0133077D01*
X0032844Y0133166D01*
X0033008Y0133251D01*
X0033175Y0133332D01*
X0033343Y0133409D01*
X0033513Y0133482D01*
X0033685Y0133551D01*
X0033858Y0133615D01*
X0034033Y0133675D01*
X0034210Y0133731D01*
X0034387Y0133783D01*
X0034566Y0133830D01*
X0034746Y0133873D01*
X0034927Y0133911D01*
X0035109Y0133945D01*
X0035292Y0133974D01*
X0035475Y0133999D01*
X0035659Y0134020D01*
X0035843Y0134036D01*
X0036028Y0134047D01*
X0036213Y0134054D01*
X0036398Y0134056D01*
X0036583Y0134054D01*
X0036768Y0134047D01*
X0036953Y0134036D01*
X0037137Y0134020D01*
X0037321Y0133999D01*
X0037504Y0133974D01*
X0037687Y0133945D01*
X0037869Y0133911D01*
X0038050Y0133873D01*
X0038230Y0133830D01*
X0038409Y0133783D01*
X0038586Y0133731D01*
X0038763Y0133675D01*
X0038938Y0133615D01*
X0039111Y0133551D01*
X0039283Y0133482D01*
X0039453Y0133409D01*
X0039621Y0133332D01*
X0039788Y0133251D01*
X0039952Y0133166D01*
X0040114Y0133077D01*
X0040274Y0132983D01*
X0040431Y0132886D01*
X0040586Y0132785D01*
X0040739Y0132681D01*
X0040889Y0132572D01*
X0041036Y0132460D01*
X0041181Y0132345D01*
X0041322Y0132226D01*
X0041461Y0132103D01*
X0041596Y0131977D01*
X0041729Y0131848D01*
X0041858Y0131715D01*
X0041984Y0131580D01*
X0042107Y0131441D01*
X0042226Y0131300D01*
X0042341Y0131155D01*
X0042453Y0131008D01*
X0042562Y0130858D01*
X0042666Y0130705D01*
X0042767Y0130550D01*
X0042864Y0130393D01*
X0042958Y0130233D01*
X0043047Y0130071D01*
X0043132Y0129907D01*
X0043213Y0129740D01*
X0043290Y0129572D01*
X0043363Y0129402D01*
X0043432Y0129230D01*
X0043496Y0129057D01*
X0043556Y0128882D01*
X0043612Y0128705D01*
X0043664Y0128528D01*
X0043711Y0128349D01*
X0043754Y0128169D01*
X0043792Y0127988D01*
X0043826Y0127806D01*
X0043855Y0127623D01*
X0043880Y0127440D01*
X0043901Y0127256D01*
X0043917Y0127072D01*
X0043928Y0126887D01*
X0043935Y0126702D01*
X0043937Y0126517D01*
X0043935Y0126332D01*
X0043928Y0126147D01*
X0043917Y0125962D01*
X0043901Y0125778D01*
X0043880Y0125594D01*
X0043855Y0125411D01*
X0043826Y0125228D01*
X0043792Y0125046D01*
X0043754Y0124865D01*
X0043711Y0124685D01*
X0043664Y0124506D01*
X0043612Y0124329D01*
X0043556Y0124152D01*
X0043496Y0123977D01*
X0043432Y0123804D01*
X0043363Y0123632D01*
X0043290Y0123462D01*
X0043213Y0123294D01*
X0043132Y0123127D01*
X0043047Y0122963D01*
X0042958Y0122801D01*
X0042864Y0122641D01*
X0042767Y0122484D01*
X0042666Y0122329D01*
X0042562Y0122176D01*
X0042453Y0122026D01*
X0042341Y0121879D01*
X0042226Y0121734D01*
X0042107Y0121593D01*
X0041984Y0121454D01*
X0041858Y0121319D01*
X0041729Y0121186D01*
X0041596Y0121057D01*
X0041461Y0120931D01*
X0041322Y0120808D01*
X0041181Y0120689D01*
X0041036Y0120574D01*
X0040889Y0120462D01*
X0040739Y0120353D01*
X0040586Y0120249D01*
X0040431Y0120148D01*
X0040274Y0120051D01*
X0040114Y0119957D01*
X0039952Y0119868D01*
X0039788Y0119783D01*
X0039621Y0119702D01*
X0039453Y0119625D01*
X0039283Y0119552D01*
X0039111Y0119483D01*
X0038938Y0119419D01*
X0038763Y0119359D01*
X0038586Y0119303D01*
X0038409Y0119251D01*
X0038230Y0119204D01*
X0038050Y0119161D01*
X0037869Y0119123D01*
X0037687Y0119089D01*
X0037504Y0119060D01*
X0037321Y0119035D01*
X0037137Y0119014D01*
X0036953Y0118998D01*
X0036768Y0118987D01*
X0036583Y0118980D01*
X0036398Y0118978D01*
X0036213Y0118980D01*
X0036028Y0118987D01*
X0035843Y0118998D01*
X0035659Y0119014D01*
X0035475Y0119035D01*
X0035292Y0119060D01*
X0035109Y0119089D01*
X0034927Y0119123D01*
X0034746Y0119161D01*
X0034566Y0119204D01*
X0034387Y0119251D01*
X0034210Y0119303D01*
X0034033Y0119359D01*
X0033858Y0119419D01*
X0033685Y0119483D01*
X0033513Y0119552D01*
X0033343Y0119625D01*
X0033175Y0119702D01*
X0033008Y0119783D01*
X0032844Y0119868D01*
X0032682Y0119957D01*
X0032522Y0120051D01*
X0032365Y0120148D01*
X0032210Y0120249D01*
X0032057Y0120353D01*
X0031907Y0120462D01*
X0031760Y0120574D01*
X0031615Y0120689D01*
X0031474Y0120808D01*
X0031335Y0120931D01*
X0031200Y0121057D01*
X0031067Y0121186D01*
X0030938Y0121319D01*
X0030812Y0121454D01*
X0030689Y0121593D01*
X0030570Y0121734D01*
X0030455Y0121879D01*
X0030343Y0122026D01*
X0030234Y0122176D01*
X0030130Y0122329D01*
X0030029Y0122484D01*
X0029932Y0122641D01*
X0029838Y0122801D01*
X0029749Y0122963D01*
X0029664Y0123127D01*
X0029583Y0123294D01*
X0029506Y0123462D01*
X0029433Y0123632D01*
X0029364Y0123804D01*
X0029300Y0123977D01*
X0029240Y0124152D01*
X0029184Y0124329D01*
X0029132Y0124506D01*
X0029085Y0124685D01*
X0029042Y0124865D01*
X0029004Y0125046D01*
X0028970Y0125228D01*
X0028941Y0125411D01*
X0028916Y0125594D01*
X0028895Y0125778D01*
X0028879Y0125962D01*
X0028868Y0126147D01*
X0028861Y0126332D01*
X0028859Y0126517D01*
X0028859Y0106517D02*
X0028861Y0106702D01*
X0028868Y0106887D01*
X0028879Y0107072D01*
X0028895Y0107256D01*
X0028916Y0107440D01*
X0028941Y0107623D01*
X0028970Y0107806D01*
X0029004Y0107988D01*
X0029042Y0108169D01*
X0029085Y0108349D01*
X0029132Y0108528D01*
X0029184Y0108705D01*
X0029240Y0108882D01*
X0029300Y0109057D01*
X0029364Y0109230D01*
X0029433Y0109402D01*
X0029506Y0109572D01*
X0029583Y0109740D01*
X0029664Y0109907D01*
X0029749Y0110071D01*
X0029838Y0110233D01*
X0029932Y0110393D01*
X0030029Y0110550D01*
X0030130Y0110705D01*
X0030234Y0110858D01*
X0030343Y0111008D01*
X0030455Y0111155D01*
X0030570Y0111300D01*
X0030689Y0111441D01*
X0030812Y0111580D01*
X0030938Y0111715D01*
X0031067Y0111848D01*
X0031200Y0111977D01*
X0031335Y0112103D01*
X0031474Y0112226D01*
X0031615Y0112345D01*
X0031760Y0112460D01*
X0031907Y0112572D01*
X0032057Y0112681D01*
X0032210Y0112785D01*
X0032365Y0112886D01*
X0032522Y0112983D01*
X0032682Y0113077D01*
X0032844Y0113166D01*
X0033008Y0113251D01*
X0033175Y0113332D01*
X0033343Y0113409D01*
X0033513Y0113482D01*
X0033685Y0113551D01*
X0033858Y0113615D01*
X0034033Y0113675D01*
X0034210Y0113731D01*
X0034387Y0113783D01*
X0034566Y0113830D01*
X0034746Y0113873D01*
X0034927Y0113911D01*
X0035109Y0113945D01*
X0035292Y0113974D01*
X0035475Y0113999D01*
X0035659Y0114020D01*
X0035843Y0114036D01*
X0036028Y0114047D01*
X0036213Y0114054D01*
X0036398Y0114056D01*
X0036583Y0114054D01*
X0036768Y0114047D01*
X0036953Y0114036D01*
X0037137Y0114020D01*
X0037321Y0113999D01*
X0037504Y0113974D01*
X0037687Y0113945D01*
X0037869Y0113911D01*
X0038050Y0113873D01*
X0038230Y0113830D01*
X0038409Y0113783D01*
X0038586Y0113731D01*
X0038763Y0113675D01*
X0038938Y0113615D01*
X0039111Y0113551D01*
X0039283Y0113482D01*
X0039453Y0113409D01*
X0039621Y0113332D01*
X0039788Y0113251D01*
X0039952Y0113166D01*
X0040114Y0113077D01*
X0040274Y0112983D01*
X0040431Y0112886D01*
X0040586Y0112785D01*
X0040739Y0112681D01*
X0040889Y0112572D01*
X0041036Y0112460D01*
X0041181Y0112345D01*
X0041322Y0112226D01*
X0041461Y0112103D01*
X0041596Y0111977D01*
X0041729Y0111848D01*
X0041858Y0111715D01*
X0041984Y0111580D01*
X0042107Y0111441D01*
X0042226Y0111300D01*
X0042341Y0111155D01*
X0042453Y0111008D01*
X0042562Y0110858D01*
X0042666Y0110705D01*
X0042767Y0110550D01*
X0042864Y0110393D01*
X0042958Y0110233D01*
X0043047Y0110071D01*
X0043132Y0109907D01*
X0043213Y0109740D01*
X0043290Y0109572D01*
X0043363Y0109402D01*
X0043432Y0109230D01*
X0043496Y0109057D01*
X0043556Y0108882D01*
X0043612Y0108705D01*
X0043664Y0108528D01*
X0043711Y0108349D01*
X0043754Y0108169D01*
X0043792Y0107988D01*
X0043826Y0107806D01*
X0043855Y0107623D01*
X0043880Y0107440D01*
X0043901Y0107256D01*
X0043917Y0107072D01*
X0043928Y0106887D01*
X0043935Y0106702D01*
X0043937Y0106517D01*
X0043935Y0106332D01*
X0043928Y0106147D01*
X0043917Y0105962D01*
X0043901Y0105778D01*
X0043880Y0105594D01*
X0043855Y0105411D01*
X0043826Y0105228D01*
X0043792Y0105046D01*
X0043754Y0104865D01*
X0043711Y0104685D01*
X0043664Y0104506D01*
X0043612Y0104329D01*
X0043556Y0104152D01*
X0043496Y0103977D01*
X0043432Y0103804D01*
X0043363Y0103632D01*
X0043290Y0103462D01*
X0043213Y0103294D01*
X0043132Y0103127D01*
X0043047Y0102963D01*
X0042958Y0102801D01*
X0042864Y0102641D01*
X0042767Y0102484D01*
X0042666Y0102329D01*
X0042562Y0102176D01*
X0042453Y0102026D01*
X0042341Y0101879D01*
X0042226Y0101734D01*
X0042107Y0101593D01*
X0041984Y0101454D01*
X0041858Y0101319D01*
X0041729Y0101186D01*
X0041596Y0101057D01*
X0041461Y0100931D01*
X0041322Y0100808D01*
X0041181Y0100689D01*
X0041036Y0100574D01*
X0040889Y0100462D01*
X0040739Y0100353D01*
X0040586Y0100249D01*
X0040431Y0100148D01*
X0040274Y0100051D01*
X0040114Y0099957D01*
X0039952Y0099868D01*
X0039788Y0099783D01*
X0039621Y0099702D01*
X0039453Y0099625D01*
X0039283Y0099552D01*
X0039111Y0099483D01*
X0038938Y0099419D01*
X0038763Y0099359D01*
X0038586Y0099303D01*
X0038409Y0099251D01*
X0038230Y0099204D01*
X0038050Y0099161D01*
X0037869Y0099123D01*
X0037687Y0099089D01*
X0037504Y0099060D01*
X0037321Y0099035D01*
X0037137Y0099014D01*
X0036953Y0098998D01*
X0036768Y0098987D01*
X0036583Y0098980D01*
X0036398Y0098978D01*
X0036213Y0098980D01*
X0036028Y0098987D01*
X0035843Y0098998D01*
X0035659Y0099014D01*
X0035475Y0099035D01*
X0035292Y0099060D01*
X0035109Y0099089D01*
X0034927Y0099123D01*
X0034746Y0099161D01*
X0034566Y0099204D01*
X0034387Y0099251D01*
X0034210Y0099303D01*
X0034033Y0099359D01*
X0033858Y0099419D01*
X0033685Y0099483D01*
X0033513Y0099552D01*
X0033343Y0099625D01*
X0033175Y0099702D01*
X0033008Y0099783D01*
X0032844Y0099868D01*
X0032682Y0099957D01*
X0032522Y0100051D01*
X0032365Y0100148D01*
X0032210Y0100249D01*
X0032057Y0100353D01*
X0031907Y0100462D01*
X0031760Y0100574D01*
X0031615Y0100689D01*
X0031474Y0100808D01*
X0031335Y0100931D01*
X0031200Y0101057D01*
X0031067Y0101186D01*
X0030938Y0101319D01*
X0030812Y0101454D01*
X0030689Y0101593D01*
X0030570Y0101734D01*
X0030455Y0101879D01*
X0030343Y0102026D01*
X0030234Y0102176D01*
X0030130Y0102329D01*
X0030029Y0102484D01*
X0029932Y0102641D01*
X0029838Y0102801D01*
X0029749Y0102963D01*
X0029664Y0103127D01*
X0029583Y0103294D01*
X0029506Y0103462D01*
X0029433Y0103632D01*
X0029364Y0103804D01*
X0029300Y0103977D01*
X0029240Y0104152D01*
X0029184Y0104329D01*
X0029132Y0104506D01*
X0029085Y0104685D01*
X0029042Y0104865D01*
X0029004Y0105046D01*
X0028970Y0105228D01*
X0028941Y0105411D01*
X0028916Y0105594D01*
X0028895Y0105778D01*
X0028879Y0105962D01*
X0028868Y0106147D01*
X0028861Y0106332D01*
X0028859Y0106517D01*
X0028859Y0086517D02*
X0028861Y0086702D01*
X0028868Y0086887D01*
X0028879Y0087072D01*
X0028895Y0087256D01*
X0028916Y0087440D01*
X0028941Y0087623D01*
X0028970Y0087806D01*
X0029004Y0087988D01*
X0029042Y0088169D01*
X0029085Y0088349D01*
X0029132Y0088528D01*
X0029184Y0088705D01*
X0029240Y0088882D01*
X0029300Y0089057D01*
X0029364Y0089230D01*
X0029433Y0089402D01*
X0029506Y0089572D01*
X0029583Y0089740D01*
X0029664Y0089907D01*
X0029749Y0090071D01*
X0029838Y0090233D01*
X0029932Y0090393D01*
X0030029Y0090550D01*
X0030130Y0090705D01*
X0030234Y0090858D01*
X0030343Y0091008D01*
X0030455Y0091155D01*
X0030570Y0091300D01*
X0030689Y0091441D01*
X0030812Y0091580D01*
X0030938Y0091715D01*
X0031067Y0091848D01*
X0031200Y0091977D01*
X0031335Y0092103D01*
X0031474Y0092226D01*
X0031615Y0092345D01*
X0031760Y0092460D01*
X0031907Y0092572D01*
X0032057Y0092681D01*
X0032210Y0092785D01*
X0032365Y0092886D01*
X0032522Y0092983D01*
X0032682Y0093077D01*
X0032844Y0093166D01*
X0033008Y0093251D01*
X0033175Y0093332D01*
X0033343Y0093409D01*
X0033513Y0093482D01*
X0033685Y0093551D01*
X0033858Y0093615D01*
X0034033Y0093675D01*
X0034210Y0093731D01*
X0034387Y0093783D01*
X0034566Y0093830D01*
X0034746Y0093873D01*
X0034927Y0093911D01*
X0035109Y0093945D01*
X0035292Y0093974D01*
X0035475Y0093999D01*
X0035659Y0094020D01*
X0035843Y0094036D01*
X0036028Y0094047D01*
X0036213Y0094054D01*
X0036398Y0094056D01*
X0036583Y0094054D01*
X0036768Y0094047D01*
X0036953Y0094036D01*
X0037137Y0094020D01*
X0037321Y0093999D01*
X0037504Y0093974D01*
X0037687Y0093945D01*
X0037869Y0093911D01*
X0038050Y0093873D01*
X0038230Y0093830D01*
X0038409Y0093783D01*
X0038586Y0093731D01*
X0038763Y0093675D01*
X0038938Y0093615D01*
X0039111Y0093551D01*
X0039283Y0093482D01*
X0039453Y0093409D01*
X0039621Y0093332D01*
X0039788Y0093251D01*
X0039952Y0093166D01*
X0040114Y0093077D01*
X0040274Y0092983D01*
X0040431Y0092886D01*
X0040586Y0092785D01*
X0040739Y0092681D01*
X0040889Y0092572D01*
X0041036Y0092460D01*
X0041181Y0092345D01*
X0041322Y0092226D01*
X0041461Y0092103D01*
X0041596Y0091977D01*
X0041729Y0091848D01*
X0041858Y0091715D01*
X0041984Y0091580D01*
X0042107Y0091441D01*
X0042226Y0091300D01*
X0042341Y0091155D01*
X0042453Y0091008D01*
X0042562Y0090858D01*
X0042666Y0090705D01*
X0042767Y0090550D01*
X0042864Y0090393D01*
X0042958Y0090233D01*
X0043047Y0090071D01*
X0043132Y0089907D01*
X0043213Y0089740D01*
X0043290Y0089572D01*
X0043363Y0089402D01*
X0043432Y0089230D01*
X0043496Y0089057D01*
X0043556Y0088882D01*
X0043612Y0088705D01*
X0043664Y0088528D01*
X0043711Y0088349D01*
X0043754Y0088169D01*
X0043792Y0087988D01*
X0043826Y0087806D01*
X0043855Y0087623D01*
X0043880Y0087440D01*
X0043901Y0087256D01*
X0043917Y0087072D01*
X0043928Y0086887D01*
X0043935Y0086702D01*
X0043937Y0086517D01*
X0043935Y0086332D01*
X0043928Y0086147D01*
X0043917Y0085962D01*
X0043901Y0085778D01*
X0043880Y0085594D01*
X0043855Y0085411D01*
X0043826Y0085228D01*
X0043792Y0085046D01*
X0043754Y0084865D01*
X0043711Y0084685D01*
X0043664Y0084506D01*
X0043612Y0084329D01*
X0043556Y0084152D01*
X0043496Y0083977D01*
X0043432Y0083804D01*
X0043363Y0083632D01*
X0043290Y0083462D01*
X0043213Y0083294D01*
X0043132Y0083127D01*
X0043047Y0082963D01*
X0042958Y0082801D01*
X0042864Y0082641D01*
X0042767Y0082484D01*
X0042666Y0082329D01*
X0042562Y0082176D01*
X0042453Y0082026D01*
X0042341Y0081879D01*
X0042226Y0081734D01*
X0042107Y0081593D01*
X0041984Y0081454D01*
X0041858Y0081319D01*
X0041729Y0081186D01*
X0041596Y0081057D01*
X0041461Y0080931D01*
X0041322Y0080808D01*
X0041181Y0080689D01*
X0041036Y0080574D01*
X0040889Y0080462D01*
X0040739Y0080353D01*
X0040586Y0080249D01*
X0040431Y0080148D01*
X0040274Y0080051D01*
X0040114Y0079957D01*
X0039952Y0079868D01*
X0039788Y0079783D01*
X0039621Y0079702D01*
X0039453Y0079625D01*
X0039283Y0079552D01*
X0039111Y0079483D01*
X0038938Y0079419D01*
X0038763Y0079359D01*
X0038586Y0079303D01*
X0038409Y0079251D01*
X0038230Y0079204D01*
X0038050Y0079161D01*
X0037869Y0079123D01*
X0037687Y0079089D01*
X0037504Y0079060D01*
X0037321Y0079035D01*
X0037137Y0079014D01*
X0036953Y0078998D01*
X0036768Y0078987D01*
X0036583Y0078980D01*
X0036398Y0078978D01*
X0036213Y0078980D01*
X0036028Y0078987D01*
X0035843Y0078998D01*
X0035659Y0079014D01*
X0035475Y0079035D01*
X0035292Y0079060D01*
X0035109Y0079089D01*
X0034927Y0079123D01*
X0034746Y0079161D01*
X0034566Y0079204D01*
X0034387Y0079251D01*
X0034210Y0079303D01*
X0034033Y0079359D01*
X0033858Y0079419D01*
X0033685Y0079483D01*
X0033513Y0079552D01*
X0033343Y0079625D01*
X0033175Y0079702D01*
X0033008Y0079783D01*
X0032844Y0079868D01*
X0032682Y0079957D01*
X0032522Y0080051D01*
X0032365Y0080148D01*
X0032210Y0080249D01*
X0032057Y0080353D01*
X0031907Y0080462D01*
X0031760Y0080574D01*
X0031615Y0080689D01*
X0031474Y0080808D01*
X0031335Y0080931D01*
X0031200Y0081057D01*
X0031067Y0081186D01*
X0030938Y0081319D01*
X0030812Y0081454D01*
X0030689Y0081593D01*
X0030570Y0081734D01*
X0030455Y0081879D01*
X0030343Y0082026D01*
X0030234Y0082176D01*
X0030130Y0082329D01*
X0030029Y0082484D01*
X0029932Y0082641D01*
X0029838Y0082801D01*
X0029749Y0082963D01*
X0029664Y0083127D01*
X0029583Y0083294D01*
X0029506Y0083462D01*
X0029433Y0083632D01*
X0029364Y0083804D01*
X0029300Y0083977D01*
X0029240Y0084152D01*
X0029184Y0084329D01*
X0029132Y0084506D01*
X0029085Y0084685D01*
X0029042Y0084865D01*
X0029004Y0085046D01*
X0028970Y0085228D01*
X0028941Y0085411D01*
X0028916Y0085594D01*
X0028895Y0085778D01*
X0028879Y0085962D01*
X0028868Y0086147D01*
X0028861Y0086332D01*
X0028859Y0086517D01*
X0024831Y0076517D02*
X0024831Y0076010D01*
X0025422Y0075308D01*
X0025422Y0074273D01*
X0022611Y0074273D01*
X0022611Y0075308D01*
X0023202Y0076010D01*
X0023202Y0076517D01*
X0028859Y0066517D02*
X0028861Y0066702D01*
X0028868Y0066887D01*
X0028879Y0067072D01*
X0028895Y0067256D01*
X0028916Y0067440D01*
X0028941Y0067623D01*
X0028970Y0067806D01*
X0029004Y0067988D01*
X0029042Y0068169D01*
X0029085Y0068349D01*
X0029132Y0068528D01*
X0029184Y0068705D01*
X0029240Y0068882D01*
X0029300Y0069057D01*
X0029364Y0069230D01*
X0029433Y0069402D01*
X0029506Y0069572D01*
X0029583Y0069740D01*
X0029664Y0069907D01*
X0029749Y0070071D01*
X0029838Y0070233D01*
X0029932Y0070393D01*
X0030029Y0070550D01*
X0030130Y0070705D01*
X0030234Y0070858D01*
X0030343Y0071008D01*
X0030455Y0071155D01*
X0030570Y0071300D01*
X0030689Y0071441D01*
X0030812Y0071580D01*
X0030938Y0071715D01*
X0031067Y0071848D01*
X0031200Y0071977D01*
X0031335Y0072103D01*
X0031474Y0072226D01*
X0031615Y0072345D01*
X0031760Y0072460D01*
X0031907Y0072572D01*
X0032057Y0072681D01*
X0032210Y0072785D01*
X0032365Y0072886D01*
X0032522Y0072983D01*
X0032682Y0073077D01*
X0032844Y0073166D01*
X0033008Y0073251D01*
X0033175Y0073332D01*
X0033343Y0073409D01*
X0033513Y0073482D01*
X0033685Y0073551D01*
X0033858Y0073615D01*
X0034033Y0073675D01*
X0034210Y0073731D01*
X0034387Y0073783D01*
X0034566Y0073830D01*
X0034746Y0073873D01*
X0034927Y0073911D01*
X0035109Y0073945D01*
X0035292Y0073974D01*
X0035475Y0073999D01*
X0035659Y0074020D01*
X0035843Y0074036D01*
X0036028Y0074047D01*
X0036213Y0074054D01*
X0036398Y0074056D01*
X0036583Y0074054D01*
X0036768Y0074047D01*
X0036953Y0074036D01*
X0037137Y0074020D01*
X0037321Y0073999D01*
X0037504Y0073974D01*
X0037687Y0073945D01*
X0037869Y0073911D01*
X0038050Y0073873D01*
X0038230Y0073830D01*
X0038409Y0073783D01*
X0038586Y0073731D01*
X0038763Y0073675D01*
X0038938Y0073615D01*
X0039111Y0073551D01*
X0039283Y0073482D01*
X0039453Y0073409D01*
X0039621Y0073332D01*
X0039788Y0073251D01*
X0039952Y0073166D01*
X0040114Y0073077D01*
X0040274Y0072983D01*
X0040431Y0072886D01*
X0040586Y0072785D01*
X0040739Y0072681D01*
X0040889Y0072572D01*
X0041036Y0072460D01*
X0041181Y0072345D01*
X0041322Y0072226D01*
X0041461Y0072103D01*
X0041596Y0071977D01*
X0041729Y0071848D01*
X0041858Y0071715D01*
X0041984Y0071580D01*
X0042107Y0071441D01*
X0042226Y0071300D01*
X0042341Y0071155D01*
X0042453Y0071008D01*
X0042562Y0070858D01*
X0042666Y0070705D01*
X0042767Y0070550D01*
X0042864Y0070393D01*
X0042958Y0070233D01*
X0043047Y0070071D01*
X0043132Y0069907D01*
X0043213Y0069740D01*
X0043290Y0069572D01*
X0043363Y0069402D01*
X0043432Y0069230D01*
X0043496Y0069057D01*
X0043556Y0068882D01*
X0043612Y0068705D01*
X0043664Y0068528D01*
X0043711Y0068349D01*
X0043754Y0068169D01*
X0043792Y0067988D01*
X0043826Y0067806D01*
X0043855Y0067623D01*
X0043880Y0067440D01*
X0043901Y0067256D01*
X0043917Y0067072D01*
X0043928Y0066887D01*
X0043935Y0066702D01*
X0043937Y0066517D01*
X0043935Y0066332D01*
X0043928Y0066147D01*
X0043917Y0065962D01*
X0043901Y0065778D01*
X0043880Y0065594D01*
X0043855Y0065411D01*
X0043826Y0065228D01*
X0043792Y0065046D01*
X0043754Y0064865D01*
X0043711Y0064685D01*
X0043664Y0064506D01*
X0043612Y0064329D01*
X0043556Y0064152D01*
X0043496Y0063977D01*
X0043432Y0063804D01*
X0043363Y0063632D01*
X0043290Y0063462D01*
X0043213Y0063294D01*
X0043132Y0063127D01*
X0043047Y0062963D01*
X0042958Y0062801D01*
X0042864Y0062641D01*
X0042767Y0062484D01*
X0042666Y0062329D01*
X0042562Y0062176D01*
X0042453Y0062026D01*
X0042341Y0061879D01*
X0042226Y0061734D01*
X0042107Y0061593D01*
X0041984Y0061454D01*
X0041858Y0061319D01*
X0041729Y0061186D01*
X0041596Y0061057D01*
X0041461Y0060931D01*
X0041322Y0060808D01*
X0041181Y0060689D01*
X0041036Y0060574D01*
X0040889Y0060462D01*
X0040739Y0060353D01*
X0040586Y0060249D01*
X0040431Y0060148D01*
X0040274Y0060051D01*
X0040114Y0059957D01*
X0039952Y0059868D01*
X0039788Y0059783D01*
X0039621Y0059702D01*
X0039453Y0059625D01*
X0039283Y0059552D01*
X0039111Y0059483D01*
X0038938Y0059419D01*
X0038763Y0059359D01*
X0038586Y0059303D01*
X0038409Y0059251D01*
X0038230Y0059204D01*
X0038050Y0059161D01*
X0037869Y0059123D01*
X0037687Y0059089D01*
X0037504Y0059060D01*
X0037321Y0059035D01*
X0037137Y0059014D01*
X0036953Y0058998D01*
X0036768Y0058987D01*
X0036583Y0058980D01*
X0036398Y0058978D01*
X0036213Y0058980D01*
X0036028Y0058987D01*
X0035843Y0058998D01*
X0035659Y0059014D01*
X0035475Y0059035D01*
X0035292Y0059060D01*
X0035109Y0059089D01*
X0034927Y0059123D01*
X0034746Y0059161D01*
X0034566Y0059204D01*
X0034387Y0059251D01*
X0034210Y0059303D01*
X0034033Y0059359D01*
X0033858Y0059419D01*
X0033685Y0059483D01*
X0033513Y0059552D01*
X0033343Y0059625D01*
X0033175Y0059702D01*
X0033008Y0059783D01*
X0032844Y0059868D01*
X0032682Y0059957D01*
X0032522Y0060051D01*
X0032365Y0060148D01*
X0032210Y0060249D01*
X0032057Y0060353D01*
X0031907Y0060462D01*
X0031760Y0060574D01*
X0031615Y0060689D01*
X0031474Y0060808D01*
X0031335Y0060931D01*
X0031200Y0061057D01*
X0031067Y0061186D01*
X0030938Y0061319D01*
X0030812Y0061454D01*
X0030689Y0061593D01*
X0030570Y0061734D01*
X0030455Y0061879D01*
X0030343Y0062026D01*
X0030234Y0062176D01*
X0030130Y0062329D01*
X0030029Y0062484D01*
X0029932Y0062641D01*
X0029838Y0062801D01*
X0029749Y0062963D01*
X0029664Y0063127D01*
X0029583Y0063294D01*
X0029506Y0063462D01*
X0029433Y0063632D01*
X0029364Y0063804D01*
X0029300Y0063977D01*
X0029240Y0064152D01*
X0029184Y0064329D01*
X0029132Y0064506D01*
X0029085Y0064685D01*
X0029042Y0064865D01*
X0029004Y0065046D01*
X0028970Y0065228D01*
X0028941Y0065411D01*
X0028916Y0065594D01*
X0028895Y0065778D01*
X0028879Y0065962D01*
X0028868Y0066147D01*
X0028861Y0066332D01*
X0028859Y0066517D01*
D14*
X0030300Y0161600D02*
X0001300Y0161600D01*
X0001300Y0169600D01*
X0001300Y0171100D01*
X0030300Y0171100D01*
X0030300Y0169600D01*
X0030300Y0161600D01*
X0032300Y0161600D01*
X0032300Y0211600D01*
X0030300Y0211600D01*
X0030300Y0202600D01*
X0030300Y0201100D01*
X0001300Y0201100D01*
X0001300Y0199600D01*
X0001300Y0192600D01*
X0001300Y0191100D01*
X0030300Y0191100D01*
X0030300Y0189600D01*
X0030300Y0182600D01*
X0030300Y0181100D01*
X0001300Y0181100D01*
X0001300Y0179600D01*
X0001300Y0172600D01*
X0001300Y0171100D01*
X0001300Y0181100D02*
X0001300Y0182600D01*
X0001300Y0189600D01*
X0001300Y0191100D01*
X0001300Y0201100D02*
X0001300Y0202600D01*
X0001300Y0211600D01*
X0030300Y0211600D01*
X0030300Y0201100D02*
X0030300Y0199600D01*
X0030300Y0192600D01*
X0030300Y0191100D01*
X0030300Y0181100D02*
X0030300Y0179600D01*
X0030300Y0172600D01*
X0030300Y0171100D01*
X0415300Y0151600D02*
X0415300Y0101600D01*
X0417300Y0101600D01*
X0417300Y0110600D01*
X0417300Y0112100D01*
X0446300Y0112100D01*
X0446300Y0113600D01*
X0446300Y0120600D01*
X0446300Y0122100D01*
X0417300Y0122100D01*
X0417300Y0123600D01*
X0417300Y0130600D01*
X0417300Y0132100D01*
X0446300Y0132100D01*
X0446300Y0133600D01*
X0446300Y0140600D01*
X0446300Y0142100D01*
X0417300Y0142100D01*
X0417300Y0143600D01*
X0417300Y0151600D01*
X0415300Y0151600D01*
X0417300Y0151600D02*
X0446300Y0151600D01*
X0446300Y0143600D01*
X0446300Y0142100D01*
X0446300Y0132100D02*
X0446300Y0130600D01*
X0446300Y0123600D01*
X0446300Y0122100D01*
X0446300Y0112100D02*
X0446300Y0110600D01*
X0446300Y0101600D01*
X0417300Y0101600D01*
X0417300Y0112100D02*
X0417300Y0113600D01*
X0417300Y0120600D01*
X0417300Y0122100D01*
X0417300Y0132100D02*
X0417300Y0133600D01*
X0417300Y0140600D01*
X0417300Y0142100D01*
D15*
X0417300Y0143600D02*
X0446300Y0143600D01*
X0446300Y0140600D02*
X0417300Y0140600D01*
X0417300Y0133600D02*
X0446300Y0133600D01*
X0446300Y0130600D02*
X0417300Y0130600D01*
X0417300Y0123600D02*
X0446300Y0123600D01*
X0446300Y0120600D02*
X0417300Y0120600D01*
X0417300Y0113600D02*
X0446300Y0113600D01*
X0446300Y0110600D02*
X0417300Y0110600D01*
X0030300Y0169600D02*
X0001300Y0169600D01*
X0001300Y0172600D02*
X0030300Y0172600D01*
X0030300Y0179600D02*
X0001300Y0179600D01*
X0001300Y0182600D02*
X0030300Y0182600D01*
X0030300Y0189600D02*
X0001300Y0189600D01*
X0001300Y0192600D02*
X0030300Y0192600D01*
X0030300Y0199600D02*
X0001300Y0199600D01*
X0001300Y0202600D02*
X0030300Y0202600D01*
M02*
