G75*
%MOIN*%
%OFA0B0*%
%FSLAX25Y25*%
%IPPOS*%
%LPD*%
%AMOC8*
5,1,8,0,0,1.08239X$1,22.5*
%
%ADD10C,0.00000*%
%ADD11C,0.02762*%
%ADD12R,0.06699X0.07880*%
%ADD13R,0.05200X0.09200*%
%ADD14R,0.14573X0.09061*%
%ADD15C,0.08274*%
%ADD16R,0.12211X0.06699*%
%ADD17R,0.22900X0.19400*%
%ADD18R,0.03550X0.05124*%
%ADD19OC8,0.07000*%
%ADD20R,0.06299X0.05512*%
%ADD21C,0.08900*%
%ADD22C,0.25400*%
%ADD23C,0.05600*%
%ADD24R,0.08274X0.05124*%
D10*
X0021300Y0021600D02*
X0021300Y0291600D01*
X0021304Y0291962D01*
X0021318Y0292325D01*
X0021339Y0292687D01*
X0021370Y0293048D01*
X0021409Y0293408D01*
X0021457Y0293767D01*
X0021514Y0294125D01*
X0021579Y0294482D01*
X0021653Y0294837D01*
X0021736Y0295190D01*
X0021827Y0295541D01*
X0021926Y0295889D01*
X0022034Y0296235D01*
X0022150Y0296579D01*
X0022275Y0296919D01*
X0022407Y0297256D01*
X0022548Y0297590D01*
X0022697Y0297921D01*
X0022854Y0298248D01*
X0023018Y0298571D01*
X0023190Y0298890D01*
X0023370Y0299204D01*
X0023558Y0299515D01*
X0023753Y0299820D01*
X0023955Y0300121D01*
X0024165Y0300417D01*
X0024381Y0300707D01*
X0024605Y0300993D01*
X0024835Y0301273D01*
X0025072Y0301547D01*
X0025316Y0301815D01*
X0025566Y0302078D01*
X0025822Y0302334D01*
X0026085Y0302584D01*
X0026353Y0302828D01*
X0026627Y0303065D01*
X0026907Y0303295D01*
X0027193Y0303519D01*
X0027483Y0303735D01*
X0027779Y0303945D01*
X0028080Y0304147D01*
X0028385Y0304342D01*
X0028696Y0304530D01*
X0029010Y0304710D01*
X0029329Y0304882D01*
X0029652Y0305046D01*
X0029979Y0305203D01*
X0030310Y0305352D01*
X0030644Y0305493D01*
X0030981Y0305625D01*
X0031321Y0305750D01*
X0031665Y0305866D01*
X0032011Y0305974D01*
X0032359Y0306073D01*
X0032710Y0306164D01*
X0033063Y0306247D01*
X0033418Y0306321D01*
X0033775Y0306386D01*
X0034133Y0306443D01*
X0034492Y0306491D01*
X0034852Y0306530D01*
X0035213Y0306561D01*
X0035575Y0306582D01*
X0035938Y0306596D01*
X0036300Y0306600D01*
X0066300Y0306600D01*
X0066398Y0306598D01*
X0066496Y0306592D01*
X0066594Y0306583D01*
X0066691Y0306569D01*
X0066788Y0306552D01*
X0066884Y0306531D01*
X0066979Y0306506D01*
X0067073Y0306478D01*
X0067165Y0306445D01*
X0067257Y0306410D01*
X0067347Y0306370D01*
X0067435Y0306328D01*
X0067522Y0306281D01*
X0067606Y0306232D01*
X0067689Y0306179D01*
X0067769Y0306123D01*
X0067848Y0306063D01*
X0067924Y0306001D01*
X0067997Y0305936D01*
X0068068Y0305868D01*
X0068136Y0305797D01*
X0068201Y0305724D01*
X0068263Y0305648D01*
X0068323Y0305569D01*
X0068379Y0305489D01*
X0068432Y0305406D01*
X0068481Y0305322D01*
X0068528Y0305235D01*
X0068570Y0305147D01*
X0068610Y0305057D01*
X0068645Y0304965D01*
X0068678Y0304873D01*
X0068706Y0304779D01*
X0068731Y0304684D01*
X0068752Y0304588D01*
X0068769Y0304491D01*
X0068783Y0304394D01*
X0068792Y0304296D01*
X0068798Y0304198D01*
X0068800Y0304100D01*
X0068800Y0276600D01*
X0068802Y0276502D01*
X0068808Y0276404D01*
X0068817Y0276306D01*
X0068831Y0276209D01*
X0068848Y0276112D01*
X0068869Y0276016D01*
X0068894Y0275921D01*
X0068922Y0275827D01*
X0068955Y0275735D01*
X0068990Y0275643D01*
X0069030Y0275553D01*
X0069072Y0275465D01*
X0069119Y0275378D01*
X0069168Y0275294D01*
X0069221Y0275211D01*
X0069277Y0275131D01*
X0069337Y0275052D01*
X0069399Y0274976D01*
X0069464Y0274903D01*
X0069532Y0274832D01*
X0069603Y0274764D01*
X0069676Y0274699D01*
X0069752Y0274637D01*
X0069831Y0274577D01*
X0069911Y0274521D01*
X0069994Y0274468D01*
X0070078Y0274419D01*
X0070165Y0274372D01*
X0070253Y0274330D01*
X0070343Y0274290D01*
X0070435Y0274255D01*
X0070527Y0274222D01*
X0070621Y0274194D01*
X0070716Y0274169D01*
X0070812Y0274148D01*
X0070909Y0274131D01*
X0071006Y0274117D01*
X0071104Y0274108D01*
X0071202Y0274102D01*
X0071300Y0274100D01*
X0131300Y0274100D01*
X0131398Y0274102D01*
X0131496Y0274108D01*
X0131594Y0274117D01*
X0131691Y0274131D01*
X0131788Y0274148D01*
X0131884Y0274169D01*
X0131979Y0274194D01*
X0132073Y0274222D01*
X0132165Y0274255D01*
X0132257Y0274290D01*
X0132347Y0274330D01*
X0132435Y0274372D01*
X0132522Y0274419D01*
X0132606Y0274468D01*
X0132689Y0274521D01*
X0132769Y0274577D01*
X0132848Y0274637D01*
X0132924Y0274699D01*
X0132997Y0274764D01*
X0133068Y0274832D01*
X0133136Y0274903D01*
X0133201Y0274976D01*
X0133263Y0275052D01*
X0133323Y0275131D01*
X0133379Y0275211D01*
X0133432Y0275294D01*
X0133481Y0275378D01*
X0133528Y0275465D01*
X0133570Y0275553D01*
X0133610Y0275643D01*
X0133645Y0275735D01*
X0133678Y0275827D01*
X0133706Y0275921D01*
X0133731Y0276016D01*
X0133752Y0276112D01*
X0133769Y0276209D01*
X0133783Y0276306D01*
X0133792Y0276404D01*
X0133798Y0276502D01*
X0133800Y0276600D01*
X0133800Y0304100D01*
X0133802Y0304198D01*
X0133808Y0304296D01*
X0133817Y0304394D01*
X0133831Y0304491D01*
X0133848Y0304588D01*
X0133869Y0304684D01*
X0133894Y0304779D01*
X0133922Y0304873D01*
X0133955Y0304965D01*
X0133990Y0305057D01*
X0134030Y0305147D01*
X0134072Y0305235D01*
X0134119Y0305322D01*
X0134168Y0305406D01*
X0134221Y0305489D01*
X0134277Y0305569D01*
X0134337Y0305648D01*
X0134399Y0305724D01*
X0134464Y0305797D01*
X0134532Y0305868D01*
X0134603Y0305936D01*
X0134676Y0306001D01*
X0134752Y0306063D01*
X0134831Y0306123D01*
X0134911Y0306179D01*
X0134994Y0306232D01*
X0135078Y0306281D01*
X0135165Y0306328D01*
X0135253Y0306370D01*
X0135343Y0306410D01*
X0135435Y0306445D01*
X0135527Y0306478D01*
X0135621Y0306506D01*
X0135716Y0306531D01*
X0135812Y0306552D01*
X0135909Y0306569D01*
X0136006Y0306583D01*
X0136104Y0306592D01*
X0136202Y0306598D01*
X0136300Y0306600D01*
X0206300Y0306600D01*
X0206662Y0306596D01*
X0207025Y0306582D01*
X0207387Y0306561D01*
X0207748Y0306530D01*
X0208108Y0306491D01*
X0208467Y0306443D01*
X0208825Y0306386D01*
X0209182Y0306321D01*
X0209537Y0306247D01*
X0209890Y0306164D01*
X0210241Y0306073D01*
X0210589Y0305974D01*
X0210935Y0305866D01*
X0211279Y0305750D01*
X0211619Y0305625D01*
X0211956Y0305493D01*
X0212290Y0305352D01*
X0212621Y0305203D01*
X0212948Y0305046D01*
X0213271Y0304882D01*
X0213590Y0304710D01*
X0213904Y0304530D01*
X0214215Y0304342D01*
X0214520Y0304147D01*
X0214821Y0303945D01*
X0215117Y0303735D01*
X0215407Y0303519D01*
X0215693Y0303295D01*
X0215973Y0303065D01*
X0216247Y0302828D01*
X0216515Y0302584D01*
X0216778Y0302334D01*
X0217034Y0302078D01*
X0217284Y0301815D01*
X0217528Y0301547D01*
X0217765Y0301273D01*
X0217995Y0300993D01*
X0218219Y0300707D01*
X0218435Y0300417D01*
X0218645Y0300121D01*
X0218847Y0299820D01*
X0219042Y0299515D01*
X0219230Y0299204D01*
X0219410Y0298890D01*
X0219582Y0298571D01*
X0219746Y0298248D01*
X0219903Y0297921D01*
X0220052Y0297590D01*
X0220193Y0297256D01*
X0220325Y0296919D01*
X0220450Y0296579D01*
X0220566Y0296235D01*
X0220674Y0295889D01*
X0220773Y0295541D01*
X0220864Y0295190D01*
X0220947Y0294837D01*
X0221021Y0294482D01*
X0221086Y0294125D01*
X0221143Y0293767D01*
X0221191Y0293408D01*
X0221230Y0293048D01*
X0221261Y0292687D01*
X0221282Y0292325D01*
X0221296Y0291962D01*
X0221300Y0291600D01*
X0221300Y0231600D01*
X0221302Y0231502D01*
X0221308Y0231404D01*
X0221317Y0231306D01*
X0221331Y0231209D01*
X0221348Y0231112D01*
X0221369Y0231016D01*
X0221394Y0230921D01*
X0221422Y0230827D01*
X0221455Y0230735D01*
X0221490Y0230643D01*
X0221530Y0230553D01*
X0221572Y0230465D01*
X0221619Y0230378D01*
X0221668Y0230294D01*
X0221721Y0230211D01*
X0221777Y0230131D01*
X0221837Y0230052D01*
X0221899Y0229976D01*
X0221964Y0229903D01*
X0222032Y0229832D01*
X0222103Y0229764D01*
X0222176Y0229699D01*
X0222252Y0229637D01*
X0222331Y0229577D01*
X0222411Y0229521D01*
X0222494Y0229468D01*
X0222578Y0229419D01*
X0222665Y0229372D01*
X0222753Y0229330D01*
X0222843Y0229290D01*
X0222935Y0229255D01*
X0223027Y0229222D01*
X0223121Y0229194D01*
X0223216Y0229169D01*
X0223312Y0229148D01*
X0223409Y0229131D01*
X0223506Y0229117D01*
X0223604Y0229108D01*
X0223702Y0229102D01*
X0223800Y0229100D01*
X0223898Y0229102D01*
X0223996Y0229108D01*
X0224094Y0229117D01*
X0224191Y0229131D01*
X0224288Y0229148D01*
X0224384Y0229169D01*
X0224479Y0229194D01*
X0224573Y0229222D01*
X0224665Y0229255D01*
X0224757Y0229290D01*
X0224847Y0229330D01*
X0224935Y0229372D01*
X0225022Y0229419D01*
X0225106Y0229468D01*
X0225189Y0229521D01*
X0225269Y0229577D01*
X0225348Y0229637D01*
X0225424Y0229699D01*
X0225497Y0229764D01*
X0225568Y0229832D01*
X0225636Y0229903D01*
X0225701Y0229976D01*
X0225763Y0230052D01*
X0225823Y0230131D01*
X0225879Y0230211D01*
X0225932Y0230294D01*
X0225981Y0230378D01*
X0226028Y0230465D01*
X0226070Y0230553D01*
X0226110Y0230643D01*
X0226145Y0230735D01*
X0226178Y0230827D01*
X0226206Y0230921D01*
X0226231Y0231016D01*
X0226252Y0231112D01*
X0226269Y0231209D01*
X0226283Y0231306D01*
X0226292Y0231404D01*
X0226298Y0231502D01*
X0226300Y0231600D01*
X0226300Y0291600D01*
X0226304Y0291962D01*
X0226318Y0292325D01*
X0226339Y0292687D01*
X0226370Y0293048D01*
X0226409Y0293408D01*
X0226457Y0293767D01*
X0226514Y0294125D01*
X0226579Y0294482D01*
X0226653Y0294837D01*
X0226736Y0295190D01*
X0226827Y0295541D01*
X0226926Y0295889D01*
X0227034Y0296235D01*
X0227150Y0296579D01*
X0227275Y0296919D01*
X0227407Y0297256D01*
X0227548Y0297590D01*
X0227697Y0297921D01*
X0227854Y0298248D01*
X0228018Y0298571D01*
X0228190Y0298890D01*
X0228370Y0299204D01*
X0228558Y0299515D01*
X0228753Y0299820D01*
X0228955Y0300121D01*
X0229165Y0300417D01*
X0229381Y0300707D01*
X0229605Y0300993D01*
X0229835Y0301273D01*
X0230072Y0301547D01*
X0230316Y0301815D01*
X0230566Y0302078D01*
X0230822Y0302334D01*
X0231085Y0302584D01*
X0231353Y0302828D01*
X0231627Y0303065D01*
X0231907Y0303295D01*
X0232193Y0303519D01*
X0232483Y0303735D01*
X0232779Y0303945D01*
X0233080Y0304147D01*
X0233385Y0304342D01*
X0233696Y0304530D01*
X0234010Y0304710D01*
X0234329Y0304882D01*
X0234652Y0305046D01*
X0234979Y0305203D01*
X0235310Y0305352D01*
X0235644Y0305493D01*
X0235981Y0305625D01*
X0236321Y0305750D01*
X0236665Y0305866D01*
X0237011Y0305974D01*
X0237359Y0306073D01*
X0237710Y0306164D01*
X0238063Y0306247D01*
X0238418Y0306321D01*
X0238775Y0306386D01*
X0239133Y0306443D01*
X0239492Y0306491D01*
X0239852Y0306530D01*
X0240213Y0306561D01*
X0240575Y0306582D01*
X0240938Y0306596D01*
X0241300Y0306600D01*
X0411300Y0306600D01*
X0411662Y0306596D01*
X0412025Y0306582D01*
X0412387Y0306561D01*
X0412748Y0306530D01*
X0413108Y0306491D01*
X0413467Y0306443D01*
X0413825Y0306386D01*
X0414182Y0306321D01*
X0414537Y0306247D01*
X0414890Y0306164D01*
X0415241Y0306073D01*
X0415589Y0305974D01*
X0415935Y0305866D01*
X0416279Y0305750D01*
X0416619Y0305625D01*
X0416956Y0305493D01*
X0417290Y0305352D01*
X0417621Y0305203D01*
X0417948Y0305046D01*
X0418271Y0304882D01*
X0418590Y0304710D01*
X0418904Y0304530D01*
X0419215Y0304342D01*
X0419520Y0304147D01*
X0419821Y0303945D01*
X0420117Y0303735D01*
X0420407Y0303519D01*
X0420693Y0303295D01*
X0420973Y0303065D01*
X0421247Y0302828D01*
X0421515Y0302584D01*
X0421778Y0302334D01*
X0422034Y0302078D01*
X0422284Y0301815D01*
X0422528Y0301547D01*
X0422765Y0301273D01*
X0422995Y0300993D01*
X0423219Y0300707D01*
X0423435Y0300417D01*
X0423645Y0300121D01*
X0423847Y0299820D01*
X0424042Y0299515D01*
X0424230Y0299204D01*
X0424410Y0298890D01*
X0424582Y0298571D01*
X0424746Y0298248D01*
X0424903Y0297921D01*
X0425052Y0297590D01*
X0425193Y0297256D01*
X0425325Y0296919D01*
X0425450Y0296579D01*
X0425566Y0296235D01*
X0425674Y0295889D01*
X0425773Y0295541D01*
X0425864Y0295190D01*
X0425947Y0294837D01*
X0426021Y0294482D01*
X0426086Y0294125D01*
X0426143Y0293767D01*
X0426191Y0293408D01*
X0426230Y0293048D01*
X0426261Y0292687D01*
X0426282Y0292325D01*
X0426296Y0291962D01*
X0426300Y0291600D01*
X0426300Y0021600D01*
X0426296Y0021238D01*
X0426282Y0020875D01*
X0426261Y0020513D01*
X0426230Y0020152D01*
X0426191Y0019792D01*
X0426143Y0019433D01*
X0426086Y0019075D01*
X0426021Y0018718D01*
X0425947Y0018363D01*
X0425864Y0018010D01*
X0425773Y0017659D01*
X0425674Y0017311D01*
X0425566Y0016965D01*
X0425450Y0016621D01*
X0425325Y0016281D01*
X0425193Y0015944D01*
X0425052Y0015610D01*
X0424903Y0015279D01*
X0424746Y0014952D01*
X0424582Y0014629D01*
X0424410Y0014310D01*
X0424230Y0013996D01*
X0424042Y0013685D01*
X0423847Y0013380D01*
X0423645Y0013079D01*
X0423435Y0012783D01*
X0423219Y0012493D01*
X0422995Y0012207D01*
X0422765Y0011927D01*
X0422528Y0011653D01*
X0422284Y0011385D01*
X0422034Y0011122D01*
X0421778Y0010866D01*
X0421515Y0010616D01*
X0421247Y0010372D01*
X0420973Y0010135D01*
X0420693Y0009905D01*
X0420407Y0009681D01*
X0420117Y0009465D01*
X0419821Y0009255D01*
X0419520Y0009053D01*
X0419215Y0008858D01*
X0418904Y0008670D01*
X0418590Y0008490D01*
X0418271Y0008318D01*
X0417948Y0008154D01*
X0417621Y0007997D01*
X0417290Y0007848D01*
X0416956Y0007707D01*
X0416619Y0007575D01*
X0416279Y0007450D01*
X0415935Y0007334D01*
X0415589Y0007226D01*
X0415241Y0007127D01*
X0414890Y0007036D01*
X0414537Y0006953D01*
X0414182Y0006879D01*
X0413825Y0006814D01*
X0413467Y0006757D01*
X0413108Y0006709D01*
X0412748Y0006670D01*
X0412387Y0006639D01*
X0412025Y0006618D01*
X0411662Y0006604D01*
X0411300Y0006600D01*
X0381300Y0006600D01*
X0381202Y0006602D01*
X0381104Y0006608D01*
X0381006Y0006617D01*
X0380909Y0006631D01*
X0380812Y0006648D01*
X0380716Y0006669D01*
X0380621Y0006694D01*
X0380527Y0006722D01*
X0380435Y0006755D01*
X0380343Y0006790D01*
X0380253Y0006830D01*
X0380165Y0006872D01*
X0380078Y0006919D01*
X0379994Y0006968D01*
X0379911Y0007021D01*
X0379831Y0007077D01*
X0379752Y0007137D01*
X0379676Y0007199D01*
X0379603Y0007264D01*
X0379532Y0007332D01*
X0379464Y0007403D01*
X0379399Y0007476D01*
X0379337Y0007552D01*
X0379277Y0007631D01*
X0379221Y0007711D01*
X0379168Y0007794D01*
X0379119Y0007878D01*
X0379072Y0007965D01*
X0379030Y0008053D01*
X0378990Y0008143D01*
X0378955Y0008235D01*
X0378922Y0008327D01*
X0378894Y0008421D01*
X0378869Y0008516D01*
X0378848Y0008612D01*
X0378831Y0008709D01*
X0378817Y0008806D01*
X0378808Y0008904D01*
X0378802Y0009002D01*
X0378800Y0009100D01*
X0378800Y0036600D01*
X0378798Y0036698D01*
X0378792Y0036796D01*
X0378783Y0036894D01*
X0378769Y0036991D01*
X0378752Y0037088D01*
X0378731Y0037184D01*
X0378706Y0037279D01*
X0378678Y0037373D01*
X0378645Y0037465D01*
X0378610Y0037557D01*
X0378570Y0037647D01*
X0378528Y0037735D01*
X0378481Y0037822D01*
X0378432Y0037906D01*
X0378379Y0037989D01*
X0378323Y0038069D01*
X0378263Y0038148D01*
X0378201Y0038224D01*
X0378136Y0038297D01*
X0378068Y0038368D01*
X0377997Y0038436D01*
X0377924Y0038501D01*
X0377848Y0038563D01*
X0377769Y0038623D01*
X0377689Y0038679D01*
X0377606Y0038732D01*
X0377522Y0038781D01*
X0377435Y0038828D01*
X0377347Y0038870D01*
X0377257Y0038910D01*
X0377165Y0038945D01*
X0377073Y0038978D01*
X0376979Y0039006D01*
X0376884Y0039031D01*
X0376788Y0039052D01*
X0376691Y0039069D01*
X0376594Y0039083D01*
X0376496Y0039092D01*
X0376398Y0039098D01*
X0376300Y0039100D01*
X0316300Y0039100D01*
X0316202Y0039098D01*
X0316104Y0039092D01*
X0316006Y0039083D01*
X0315909Y0039069D01*
X0315812Y0039052D01*
X0315716Y0039031D01*
X0315621Y0039006D01*
X0315527Y0038978D01*
X0315435Y0038945D01*
X0315343Y0038910D01*
X0315253Y0038870D01*
X0315165Y0038828D01*
X0315078Y0038781D01*
X0314994Y0038732D01*
X0314911Y0038679D01*
X0314831Y0038623D01*
X0314752Y0038563D01*
X0314676Y0038501D01*
X0314603Y0038436D01*
X0314532Y0038368D01*
X0314464Y0038297D01*
X0314399Y0038224D01*
X0314337Y0038148D01*
X0314277Y0038069D01*
X0314221Y0037989D01*
X0314168Y0037906D01*
X0314119Y0037822D01*
X0314072Y0037735D01*
X0314030Y0037647D01*
X0313990Y0037557D01*
X0313955Y0037465D01*
X0313922Y0037373D01*
X0313894Y0037279D01*
X0313869Y0037184D01*
X0313848Y0037088D01*
X0313831Y0036991D01*
X0313817Y0036894D01*
X0313808Y0036796D01*
X0313802Y0036698D01*
X0313800Y0036600D01*
X0313800Y0009100D01*
X0313798Y0009002D01*
X0313792Y0008904D01*
X0313783Y0008806D01*
X0313769Y0008709D01*
X0313752Y0008612D01*
X0313731Y0008516D01*
X0313706Y0008421D01*
X0313678Y0008327D01*
X0313645Y0008235D01*
X0313610Y0008143D01*
X0313570Y0008053D01*
X0313528Y0007965D01*
X0313481Y0007878D01*
X0313432Y0007794D01*
X0313379Y0007711D01*
X0313323Y0007631D01*
X0313263Y0007552D01*
X0313201Y0007476D01*
X0313136Y0007403D01*
X0313068Y0007332D01*
X0312997Y0007264D01*
X0312924Y0007199D01*
X0312848Y0007137D01*
X0312769Y0007077D01*
X0312689Y0007021D01*
X0312606Y0006968D01*
X0312522Y0006919D01*
X0312435Y0006872D01*
X0312347Y0006830D01*
X0312257Y0006790D01*
X0312165Y0006755D01*
X0312073Y0006722D01*
X0311979Y0006694D01*
X0311884Y0006669D01*
X0311788Y0006648D01*
X0311691Y0006631D01*
X0311594Y0006617D01*
X0311496Y0006608D01*
X0311398Y0006602D01*
X0311300Y0006600D01*
X0241300Y0006600D01*
X0240938Y0006604D01*
X0240575Y0006618D01*
X0240213Y0006639D01*
X0239852Y0006670D01*
X0239492Y0006709D01*
X0239133Y0006757D01*
X0238775Y0006814D01*
X0238418Y0006879D01*
X0238063Y0006953D01*
X0237710Y0007036D01*
X0237359Y0007127D01*
X0237011Y0007226D01*
X0236665Y0007334D01*
X0236321Y0007450D01*
X0235981Y0007575D01*
X0235644Y0007707D01*
X0235310Y0007848D01*
X0234979Y0007997D01*
X0234652Y0008154D01*
X0234329Y0008318D01*
X0234010Y0008490D01*
X0233696Y0008670D01*
X0233385Y0008858D01*
X0233080Y0009053D01*
X0232779Y0009255D01*
X0232483Y0009465D01*
X0232193Y0009681D01*
X0231907Y0009905D01*
X0231627Y0010135D01*
X0231353Y0010372D01*
X0231085Y0010616D01*
X0230822Y0010866D01*
X0230566Y0011122D01*
X0230316Y0011385D01*
X0230072Y0011653D01*
X0229835Y0011927D01*
X0229605Y0012207D01*
X0229381Y0012493D01*
X0229165Y0012783D01*
X0228955Y0013079D01*
X0228753Y0013380D01*
X0228558Y0013685D01*
X0228370Y0013996D01*
X0228190Y0014310D01*
X0228018Y0014629D01*
X0227854Y0014952D01*
X0227697Y0015279D01*
X0227548Y0015610D01*
X0227407Y0015944D01*
X0227275Y0016281D01*
X0227150Y0016621D01*
X0227034Y0016965D01*
X0226926Y0017311D01*
X0226827Y0017659D01*
X0226736Y0018010D01*
X0226653Y0018363D01*
X0226579Y0018718D01*
X0226514Y0019075D01*
X0226457Y0019433D01*
X0226409Y0019792D01*
X0226370Y0020152D01*
X0226339Y0020513D01*
X0226318Y0020875D01*
X0226304Y0021238D01*
X0226300Y0021600D01*
X0226300Y0081600D01*
X0226298Y0081698D01*
X0226292Y0081796D01*
X0226283Y0081894D01*
X0226269Y0081991D01*
X0226252Y0082088D01*
X0226231Y0082184D01*
X0226206Y0082279D01*
X0226178Y0082373D01*
X0226145Y0082465D01*
X0226110Y0082557D01*
X0226070Y0082647D01*
X0226028Y0082735D01*
X0225981Y0082822D01*
X0225932Y0082906D01*
X0225879Y0082989D01*
X0225823Y0083069D01*
X0225763Y0083148D01*
X0225701Y0083224D01*
X0225636Y0083297D01*
X0225568Y0083368D01*
X0225497Y0083436D01*
X0225424Y0083501D01*
X0225348Y0083563D01*
X0225269Y0083623D01*
X0225189Y0083679D01*
X0225106Y0083732D01*
X0225022Y0083781D01*
X0224935Y0083828D01*
X0224847Y0083870D01*
X0224757Y0083910D01*
X0224665Y0083945D01*
X0224573Y0083978D01*
X0224479Y0084006D01*
X0224384Y0084031D01*
X0224288Y0084052D01*
X0224191Y0084069D01*
X0224094Y0084083D01*
X0223996Y0084092D01*
X0223898Y0084098D01*
X0223800Y0084100D01*
X0223702Y0084098D01*
X0223604Y0084092D01*
X0223506Y0084083D01*
X0223409Y0084069D01*
X0223312Y0084052D01*
X0223216Y0084031D01*
X0223121Y0084006D01*
X0223027Y0083978D01*
X0222935Y0083945D01*
X0222843Y0083910D01*
X0222753Y0083870D01*
X0222665Y0083828D01*
X0222578Y0083781D01*
X0222494Y0083732D01*
X0222411Y0083679D01*
X0222331Y0083623D01*
X0222252Y0083563D01*
X0222176Y0083501D01*
X0222103Y0083436D01*
X0222032Y0083368D01*
X0221964Y0083297D01*
X0221899Y0083224D01*
X0221837Y0083148D01*
X0221777Y0083069D01*
X0221721Y0082989D01*
X0221668Y0082906D01*
X0221619Y0082822D01*
X0221572Y0082735D01*
X0221530Y0082647D01*
X0221490Y0082557D01*
X0221455Y0082465D01*
X0221422Y0082373D01*
X0221394Y0082279D01*
X0221369Y0082184D01*
X0221348Y0082088D01*
X0221331Y0081991D01*
X0221317Y0081894D01*
X0221308Y0081796D01*
X0221302Y0081698D01*
X0221300Y0081600D01*
X0221300Y0021600D01*
X0221296Y0021238D01*
X0221282Y0020875D01*
X0221261Y0020513D01*
X0221230Y0020152D01*
X0221191Y0019792D01*
X0221143Y0019433D01*
X0221086Y0019075D01*
X0221021Y0018718D01*
X0220947Y0018363D01*
X0220864Y0018010D01*
X0220773Y0017659D01*
X0220674Y0017311D01*
X0220566Y0016965D01*
X0220450Y0016621D01*
X0220325Y0016281D01*
X0220193Y0015944D01*
X0220052Y0015610D01*
X0219903Y0015279D01*
X0219746Y0014952D01*
X0219582Y0014629D01*
X0219410Y0014310D01*
X0219230Y0013996D01*
X0219042Y0013685D01*
X0218847Y0013380D01*
X0218645Y0013079D01*
X0218435Y0012783D01*
X0218219Y0012493D01*
X0217995Y0012207D01*
X0217765Y0011927D01*
X0217528Y0011653D01*
X0217284Y0011385D01*
X0217034Y0011122D01*
X0216778Y0010866D01*
X0216515Y0010616D01*
X0216247Y0010372D01*
X0215973Y0010135D01*
X0215693Y0009905D01*
X0215407Y0009681D01*
X0215117Y0009465D01*
X0214821Y0009255D01*
X0214520Y0009053D01*
X0214215Y0008858D01*
X0213904Y0008670D01*
X0213590Y0008490D01*
X0213271Y0008318D01*
X0212948Y0008154D01*
X0212621Y0007997D01*
X0212290Y0007848D01*
X0211956Y0007707D01*
X0211619Y0007575D01*
X0211279Y0007450D01*
X0210935Y0007334D01*
X0210589Y0007226D01*
X0210241Y0007127D01*
X0209890Y0007036D01*
X0209537Y0006953D01*
X0209182Y0006879D01*
X0208825Y0006814D01*
X0208467Y0006757D01*
X0208108Y0006709D01*
X0207748Y0006670D01*
X0207387Y0006639D01*
X0207025Y0006618D01*
X0206662Y0006604D01*
X0206300Y0006600D01*
X0036300Y0006600D01*
X0035938Y0006604D01*
X0035575Y0006618D01*
X0035213Y0006639D01*
X0034852Y0006670D01*
X0034492Y0006709D01*
X0034133Y0006757D01*
X0033775Y0006814D01*
X0033418Y0006879D01*
X0033063Y0006953D01*
X0032710Y0007036D01*
X0032359Y0007127D01*
X0032011Y0007226D01*
X0031665Y0007334D01*
X0031321Y0007450D01*
X0030981Y0007575D01*
X0030644Y0007707D01*
X0030310Y0007848D01*
X0029979Y0007997D01*
X0029652Y0008154D01*
X0029329Y0008318D01*
X0029010Y0008490D01*
X0028696Y0008670D01*
X0028385Y0008858D01*
X0028080Y0009053D01*
X0027779Y0009255D01*
X0027483Y0009465D01*
X0027193Y0009681D01*
X0026907Y0009905D01*
X0026627Y0010135D01*
X0026353Y0010372D01*
X0026085Y0010616D01*
X0025822Y0010866D01*
X0025566Y0011122D01*
X0025316Y0011385D01*
X0025072Y0011653D01*
X0024835Y0011927D01*
X0024605Y0012207D01*
X0024381Y0012493D01*
X0024165Y0012783D01*
X0023955Y0013079D01*
X0023753Y0013380D01*
X0023558Y0013685D01*
X0023370Y0013996D01*
X0023190Y0014310D01*
X0023018Y0014629D01*
X0022854Y0014952D01*
X0022697Y0015279D01*
X0022548Y0015610D01*
X0022407Y0015944D01*
X0022275Y0016281D01*
X0022150Y0016621D01*
X0022034Y0016965D01*
X0021926Y0017311D01*
X0021827Y0017659D01*
X0021736Y0018010D01*
X0021653Y0018363D01*
X0021579Y0018718D01*
X0021514Y0019075D01*
X0021457Y0019433D01*
X0021409Y0019792D01*
X0021370Y0020152D01*
X0021339Y0020513D01*
X0021318Y0020875D01*
X0021304Y0021238D01*
X0021300Y0021600D01*
X0221300Y0101600D02*
X0221300Y0146600D01*
X0221302Y0146698D01*
X0221308Y0146796D01*
X0221317Y0146894D01*
X0221331Y0146991D01*
X0221348Y0147088D01*
X0221369Y0147184D01*
X0221394Y0147279D01*
X0221422Y0147373D01*
X0221455Y0147465D01*
X0221490Y0147557D01*
X0221530Y0147647D01*
X0221572Y0147735D01*
X0221619Y0147822D01*
X0221668Y0147906D01*
X0221721Y0147989D01*
X0221777Y0148069D01*
X0221837Y0148148D01*
X0221899Y0148224D01*
X0221964Y0148297D01*
X0222032Y0148368D01*
X0222103Y0148436D01*
X0222176Y0148501D01*
X0222252Y0148563D01*
X0222331Y0148623D01*
X0222411Y0148679D01*
X0222494Y0148732D01*
X0222578Y0148781D01*
X0222665Y0148828D01*
X0222753Y0148870D01*
X0222843Y0148910D01*
X0222935Y0148945D01*
X0223027Y0148978D01*
X0223121Y0149006D01*
X0223216Y0149031D01*
X0223312Y0149052D01*
X0223409Y0149069D01*
X0223506Y0149083D01*
X0223604Y0149092D01*
X0223702Y0149098D01*
X0223800Y0149100D01*
X0223898Y0149098D01*
X0223996Y0149092D01*
X0224094Y0149083D01*
X0224191Y0149069D01*
X0224288Y0149052D01*
X0224384Y0149031D01*
X0224479Y0149006D01*
X0224573Y0148978D01*
X0224665Y0148945D01*
X0224757Y0148910D01*
X0224847Y0148870D01*
X0224935Y0148828D01*
X0225022Y0148781D01*
X0225106Y0148732D01*
X0225189Y0148679D01*
X0225269Y0148623D01*
X0225348Y0148563D01*
X0225424Y0148501D01*
X0225497Y0148436D01*
X0225568Y0148368D01*
X0225636Y0148297D01*
X0225701Y0148224D01*
X0225763Y0148148D01*
X0225823Y0148069D01*
X0225879Y0147989D01*
X0225932Y0147906D01*
X0225981Y0147822D01*
X0226028Y0147735D01*
X0226070Y0147647D01*
X0226110Y0147557D01*
X0226145Y0147465D01*
X0226178Y0147373D01*
X0226206Y0147279D01*
X0226231Y0147184D01*
X0226252Y0147088D01*
X0226269Y0146991D01*
X0226283Y0146894D01*
X0226292Y0146796D01*
X0226298Y0146698D01*
X0226300Y0146600D01*
X0226300Y0101600D01*
X0226298Y0101502D01*
X0226292Y0101404D01*
X0226283Y0101306D01*
X0226269Y0101209D01*
X0226252Y0101112D01*
X0226231Y0101016D01*
X0226206Y0100921D01*
X0226178Y0100827D01*
X0226145Y0100735D01*
X0226110Y0100643D01*
X0226070Y0100553D01*
X0226028Y0100465D01*
X0225981Y0100378D01*
X0225932Y0100294D01*
X0225879Y0100211D01*
X0225823Y0100131D01*
X0225763Y0100052D01*
X0225701Y0099976D01*
X0225636Y0099903D01*
X0225568Y0099832D01*
X0225497Y0099764D01*
X0225424Y0099699D01*
X0225348Y0099637D01*
X0225269Y0099577D01*
X0225189Y0099521D01*
X0225106Y0099468D01*
X0225022Y0099419D01*
X0224935Y0099372D01*
X0224847Y0099330D01*
X0224757Y0099290D01*
X0224665Y0099255D01*
X0224573Y0099222D01*
X0224479Y0099194D01*
X0224384Y0099169D01*
X0224288Y0099148D01*
X0224191Y0099131D01*
X0224094Y0099117D01*
X0223996Y0099108D01*
X0223898Y0099102D01*
X0223800Y0099100D01*
X0223702Y0099102D01*
X0223604Y0099108D01*
X0223506Y0099117D01*
X0223409Y0099131D01*
X0223312Y0099148D01*
X0223216Y0099169D01*
X0223121Y0099194D01*
X0223027Y0099222D01*
X0222935Y0099255D01*
X0222843Y0099290D01*
X0222753Y0099330D01*
X0222665Y0099372D01*
X0222578Y0099419D01*
X0222494Y0099468D01*
X0222411Y0099521D01*
X0222331Y0099577D01*
X0222252Y0099637D01*
X0222176Y0099699D01*
X0222103Y0099764D01*
X0222032Y0099832D01*
X0221964Y0099903D01*
X0221899Y0099976D01*
X0221837Y0100052D01*
X0221777Y0100131D01*
X0221721Y0100211D01*
X0221668Y0100294D01*
X0221619Y0100378D01*
X0221572Y0100465D01*
X0221530Y0100553D01*
X0221490Y0100643D01*
X0221455Y0100735D01*
X0221422Y0100827D01*
X0221394Y0100921D01*
X0221369Y0101016D01*
X0221348Y0101112D01*
X0221331Y0101209D01*
X0221317Y0101306D01*
X0221308Y0101404D01*
X0221302Y0101502D01*
X0221300Y0101600D01*
X0222619Y0096600D02*
X0222621Y0096669D01*
X0222627Y0096737D01*
X0222637Y0096805D01*
X0222651Y0096872D01*
X0222669Y0096939D01*
X0222690Y0097004D01*
X0222716Y0097068D01*
X0222745Y0097130D01*
X0222777Y0097190D01*
X0222813Y0097249D01*
X0222853Y0097305D01*
X0222895Y0097359D01*
X0222941Y0097410D01*
X0222990Y0097459D01*
X0223041Y0097505D01*
X0223095Y0097547D01*
X0223151Y0097587D01*
X0223209Y0097623D01*
X0223270Y0097655D01*
X0223332Y0097684D01*
X0223396Y0097710D01*
X0223461Y0097731D01*
X0223528Y0097749D01*
X0223595Y0097763D01*
X0223663Y0097773D01*
X0223731Y0097779D01*
X0223800Y0097781D01*
X0223869Y0097779D01*
X0223937Y0097773D01*
X0224005Y0097763D01*
X0224072Y0097749D01*
X0224139Y0097731D01*
X0224204Y0097710D01*
X0224268Y0097684D01*
X0224330Y0097655D01*
X0224390Y0097623D01*
X0224449Y0097587D01*
X0224505Y0097547D01*
X0224559Y0097505D01*
X0224610Y0097459D01*
X0224659Y0097410D01*
X0224705Y0097359D01*
X0224747Y0097305D01*
X0224787Y0097249D01*
X0224823Y0097190D01*
X0224855Y0097130D01*
X0224884Y0097068D01*
X0224910Y0097004D01*
X0224931Y0096939D01*
X0224949Y0096872D01*
X0224963Y0096805D01*
X0224973Y0096737D01*
X0224979Y0096669D01*
X0224981Y0096600D01*
X0224979Y0096531D01*
X0224973Y0096463D01*
X0224963Y0096395D01*
X0224949Y0096328D01*
X0224931Y0096261D01*
X0224910Y0096196D01*
X0224884Y0096132D01*
X0224855Y0096070D01*
X0224823Y0096009D01*
X0224787Y0095951D01*
X0224747Y0095895D01*
X0224705Y0095841D01*
X0224659Y0095790D01*
X0224610Y0095741D01*
X0224559Y0095695D01*
X0224505Y0095653D01*
X0224449Y0095613D01*
X0224391Y0095577D01*
X0224330Y0095545D01*
X0224268Y0095516D01*
X0224204Y0095490D01*
X0224139Y0095469D01*
X0224072Y0095451D01*
X0224005Y0095437D01*
X0223937Y0095427D01*
X0223869Y0095421D01*
X0223800Y0095419D01*
X0223731Y0095421D01*
X0223663Y0095427D01*
X0223595Y0095437D01*
X0223528Y0095451D01*
X0223461Y0095469D01*
X0223396Y0095490D01*
X0223332Y0095516D01*
X0223270Y0095545D01*
X0223209Y0095577D01*
X0223151Y0095613D01*
X0223095Y0095653D01*
X0223041Y0095695D01*
X0222990Y0095741D01*
X0222941Y0095790D01*
X0222895Y0095841D01*
X0222853Y0095895D01*
X0222813Y0095951D01*
X0222777Y0096009D01*
X0222745Y0096070D01*
X0222716Y0096132D01*
X0222690Y0096196D01*
X0222669Y0096261D01*
X0222651Y0096328D01*
X0222637Y0096395D01*
X0222627Y0096463D01*
X0222621Y0096531D01*
X0222619Y0096600D01*
X0222619Y0091600D02*
X0222621Y0091669D01*
X0222627Y0091737D01*
X0222637Y0091805D01*
X0222651Y0091872D01*
X0222669Y0091939D01*
X0222690Y0092004D01*
X0222716Y0092068D01*
X0222745Y0092130D01*
X0222777Y0092190D01*
X0222813Y0092249D01*
X0222853Y0092305D01*
X0222895Y0092359D01*
X0222941Y0092410D01*
X0222990Y0092459D01*
X0223041Y0092505D01*
X0223095Y0092547D01*
X0223151Y0092587D01*
X0223209Y0092623D01*
X0223270Y0092655D01*
X0223332Y0092684D01*
X0223396Y0092710D01*
X0223461Y0092731D01*
X0223528Y0092749D01*
X0223595Y0092763D01*
X0223663Y0092773D01*
X0223731Y0092779D01*
X0223800Y0092781D01*
X0223869Y0092779D01*
X0223937Y0092773D01*
X0224005Y0092763D01*
X0224072Y0092749D01*
X0224139Y0092731D01*
X0224204Y0092710D01*
X0224268Y0092684D01*
X0224330Y0092655D01*
X0224390Y0092623D01*
X0224449Y0092587D01*
X0224505Y0092547D01*
X0224559Y0092505D01*
X0224610Y0092459D01*
X0224659Y0092410D01*
X0224705Y0092359D01*
X0224747Y0092305D01*
X0224787Y0092249D01*
X0224823Y0092190D01*
X0224855Y0092130D01*
X0224884Y0092068D01*
X0224910Y0092004D01*
X0224931Y0091939D01*
X0224949Y0091872D01*
X0224963Y0091805D01*
X0224973Y0091737D01*
X0224979Y0091669D01*
X0224981Y0091600D01*
X0224979Y0091531D01*
X0224973Y0091463D01*
X0224963Y0091395D01*
X0224949Y0091328D01*
X0224931Y0091261D01*
X0224910Y0091196D01*
X0224884Y0091132D01*
X0224855Y0091070D01*
X0224823Y0091009D01*
X0224787Y0090951D01*
X0224747Y0090895D01*
X0224705Y0090841D01*
X0224659Y0090790D01*
X0224610Y0090741D01*
X0224559Y0090695D01*
X0224505Y0090653D01*
X0224449Y0090613D01*
X0224391Y0090577D01*
X0224330Y0090545D01*
X0224268Y0090516D01*
X0224204Y0090490D01*
X0224139Y0090469D01*
X0224072Y0090451D01*
X0224005Y0090437D01*
X0223937Y0090427D01*
X0223869Y0090421D01*
X0223800Y0090419D01*
X0223731Y0090421D01*
X0223663Y0090427D01*
X0223595Y0090437D01*
X0223528Y0090451D01*
X0223461Y0090469D01*
X0223396Y0090490D01*
X0223332Y0090516D01*
X0223270Y0090545D01*
X0223209Y0090577D01*
X0223151Y0090613D01*
X0223095Y0090653D01*
X0223041Y0090695D01*
X0222990Y0090741D01*
X0222941Y0090790D01*
X0222895Y0090841D01*
X0222853Y0090895D01*
X0222813Y0090951D01*
X0222777Y0091009D01*
X0222745Y0091070D01*
X0222716Y0091132D01*
X0222690Y0091196D01*
X0222669Y0091261D01*
X0222651Y0091328D01*
X0222637Y0091395D01*
X0222627Y0091463D01*
X0222621Y0091531D01*
X0222619Y0091600D01*
X0222619Y0086600D02*
X0222621Y0086669D01*
X0222627Y0086737D01*
X0222637Y0086805D01*
X0222651Y0086872D01*
X0222669Y0086939D01*
X0222690Y0087004D01*
X0222716Y0087068D01*
X0222745Y0087130D01*
X0222777Y0087190D01*
X0222813Y0087249D01*
X0222853Y0087305D01*
X0222895Y0087359D01*
X0222941Y0087410D01*
X0222990Y0087459D01*
X0223041Y0087505D01*
X0223095Y0087547D01*
X0223151Y0087587D01*
X0223209Y0087623D01*
X0223270Y0087655D01*
X0223332Y0087684D01*
X0223396Y0087710D01*
X0223461Y0087731D01*
X0223528Y0087749D01*
X0223595Y0087763D01*
X0223663Y0087773D01*
X0223731Y0087779D01*
X0223800Y0087781D01*
X0223869Y0087779D01*
X0223937Y0087773D01*
X0224005Y0087763D01*
X0224072Y0087749D01*
X0224139Y0087731D01*
X0224204Y0087710D01*
X0224268Y0087684D01*
X0224330Y0087655D01*
X0224390Y0087623D01*
X0224449Y0087587D01*
X0224505Y0087547D01*
X0224559Y0087505D01*
X0224610Y0087459D01*
X0224659Y0087410D01*
X0224705Y0087359D01*
X0224747Y0087305D01*
X0224787Y0087249D01*
X0224823Y0087190D01*
X0224855Y0087130D01*
X0224884Y0087068D01*
X0224910Y0087004D01*
X0224931Y0086939D01*
X0224949Y0086872D01*
X0224963Y0086805D01*
X0224973Y0086737D01*
X0224979Y0086669D01*
X0224981Y0086600D01*
X0224979Y0086531D01*
X0224973Y0086463D01*
X0224963Y0086395D01*
X0224949Y0086328D01*
X0224931Y0086261D01*
X0224910Y0086196D01*
X0224884Y0086132D01*
X0224855Y0086070D01*
X0224823Y0086009D01*
X0224787Y0085951D01*
X0224747Y0085895D01*
X0224705Y0085841D01*
X0224659Y0085790D01*
X0224610Y0085741D01*
X0224559Y0085695D01*
X0224505Y0085653D01*
X0224449Y0085613D01*
X0224391Y0085577D01*
X0224330Y0085545D01*
X0224268Y0085516D01*
X0224204Y0085490D01*
X0224139Y0085469D01*
X0224072Y0085451D01*
X0224005Y0085437D01*
X0223937Y0085427D01*
X0223869Y0085421D01*
X0223800Y0085419D01*
X0223731Y0085421D01*
X0223663Y0085427D01*
X0223595Y0085437D01*
X0223528Y0085451D01*
X0223461Y0085469D01*
X0223396Y0085490D01*
X0223332Y0085516D01*
X0223270Y0085545D01*
X0223209Y0085577D01*
X0223151Y0085613D01*
X0223095Y0085653D01*
X0223041Y0085695D01*
X0222990Y0085741D01*
X0222941Y0085790D01*
X0222895Y0085841D01*
X0222853Y0085895D01*
X0222813Y0085951D01*
X0222777Y0086009D01*
X0222745Y0086070D01*
X0222716Y0086132D01*
X0222690Y0086196D01*
X0222669Y0086261D01*
X0222651Y0086328D01*
X0222637Y0086395D01*
X0222627Y0086463D01*
X0222621Y0086531D01*
X0222619Y0086600D01*
X0222619Y0151600D02*
X0222621Y0151669D01*
X0222627Y0151737D01*
X0222637Y0151805D01*
X0222651Y0151872D01*
X0222669Y0151939D01*
X0222690Y0152004D01*
X0222716Y0152068D01*
X0222745Y0152130D01*
X0222777Y0152190D01*
X0222813Y0152249D01*
X0222853Y0152305D01*
X0222895Y0152359D01*
X0222941Y0152410D01*
X0222990Y0152459D01*
X0223041Y0152505D01*
X0223095Y0152547D01*
X0223151Y0152587D01*
X0223209Y0152623D01*
X0223270Y0152655D01*
X0223332Y0152684D01*
X0223396Y0152710D01*
X0223461Y0152731D01*
X0223528Y0152749D01*
X0223595Y0152763D01*
X0223663Y0152773D01*
X0223731Y0152779D01*
X0223800Y0152781D01*
X0223869Y0152779D01*
X0223937Y0152773D01*
X0224005Y0152763D01*
X0224072Y0152749D01*
X0224139Y0152731D01*
X0224204Y0152710D01*
X0224268Y0152684D01*
X0224330Y0152655D01*
X0224390Y0152623D01*
X0224449Y0152587D01*
X0224505Y0152547D01*
X0224559Y0152505D01*
X0224610Y0152459D01*
X0224659Y0152410D01*
X0224705Y0152359D01*
X0224747Y0152305D01*
X0224787Y0152249D01*
X0224823Y0152190D01*
X0224855Y0152130D01*
X0224884Y0152068D01*
X0224910Y0152004D01*
X0224931Y0151939D01*
X0224949Y0151872D01*
X0224963Y0151805D01*
X0224973Y0151737D01*
X0224979Y0151669D01*
X0224981Y0151600D01*
X0224979Y0151531D01*
X0224973Y0151463D01*
X0224963Y0151395D01*
X0224949Y0151328D01*
X0224931Y0151261D01*
X0224910Y0151196D01*
X0224884Y0151132D01*
X0224855Y0151070D01*
X0224823Y0151009D01*
X0224787Y0150951D01*
X0224747Y0150895D01*
X0224705Y0150841D01*
X0224659Y0150790D01*
X0224610Y0150741D01*
X0224559Y0150695D01*
X0224505Y0150653D01*
X0224449Y0150613D01*
X0224391Y0150577D01*
X0224330Y0150545D01*
X0224268Y0150516D01*
X0224204Y0150490D01*
X0224139Y0150469D01*
X0224072Y0150451D01*
X0224005Y0150437D01*
X0223937Y0150427D01*
X0223869Y0150421D01*
X0223800Y0150419D01*
X0223731Y0150421D01*
X0223663Y0150427D01*
X0223595Y0150437D01*
X0223528Y0150451D01*
X0223461Y0150469D01*
X0223396Y0150490D01*
X0223332Y0150516D01*
X0223270Y0150545D01*
X0223209Y0150577D01*
X0223151Y0150613D01*
X0223095Y0150653D01*
X0223041Y0150695D01*
X0222990Y0150741D01*
X0222941Y0150790D01*
X0222895Y0150841D01*
X0222853Y0150895D01*
X0222813Y0150951D01*
X0222777Y0151009D01*
X0222745Y0151070D01*
X0222716Y0151132D01*
X0222690Y0151196D01*
X0222669Y0151261D01*
X0222651Y0151328D01*
X0222637Y0151395D01*
X0222627Y0151463D01*
X0222621Y0151531D01*
X0222619Y0151600D01*
X0222619Y0156600D02*
X0222621Y0156669D01*
X0222627Y0156737D01*
X0222637Y0156805D01*
X0222651Y0156872D01*
X0222669Y0156939D01*
X0222690Y0157004D01*
X0222716Y0157068D01*
X0222745Y0157130D01*
X0222777Y0157190D01*
X0222813Y0157249D01*
X0222853Y0157305D01*
X0222895Y0157359D01*
X0222941Y0157410D01*
X0222990Y0157459D01*
X0223041Y0157505D01*
X0223095Y0157547D01*
X0223151Y0157587D01*
X0223209Y0157623D01*
X0223270Y0157655D01*
X0223332Y0157684D01*
X0223396Y0157710D01*
X0223461Y0157731D01*
X0223528Y0157749D01*
X0223595Y0157763D01*
X0223663Y0157773D01*
X0223731Y0157779D01*
X0223800Y0157781D01*
X0223869Y0157779D01*
X0223937Y0157773D01*
X0224005Y0157763D01*
X0224072Y0157749D01*
X0224139Y0157731D01*
X0224204Y0157710D01*
X0224268Y0157684D01*
X0224330Y0157655D01*
X0224390Y0157623D01*
X0224449Y0157587D01*
X0224505Y0157547D01*
X0224559Y0157505D01*
X0224610Y0157459D01*
X0224659Y0157410D01*
X0224705Y0157359D01*
X0224747Y0157305D01*
X0224787Y0157249D01*
X0224823Y0157190D01*
X0224855Y0157130D01*
X0224884Y0157068D01*
X0224910Y0157004D01*
X0224931Y0156939D01*
X0224949Y0156872D01*
X0224963Y0156805D01*
X0224973Y0156737D01*
X0224979Y0156669D01*
X0224981Y0156600D01*
X0224979Y0156531D01*
X0224973Y0156463D01*
X0224963Y0156395D01*
X0224949Y0156328D01*
X0224931Y0156261D01*
X0224910Y0156196D01*
X0224884Y0156132D01*
X0224855Y0156070D01*
X0224823Y0156009D01*
X0224787Y0155951D01*
X0224747Y0155895D01*
X0224705Y0155841D01*
X0224659Y0155790D01*
X0224610Y0155741D01*
X0224559Y0155695D01*
X0224505Y0155653D01*
X0224449Y0155613D01*
X0224391Y0155577D01*
X0224330Y0155545D01*
X0224268Y0155516D01*
X0224204Y0155490D01*
X0224139Y0155469D01*
X0224072Y0155451D01*
X0224005Y0155437D01*
X0223937Y0155427D01*
X0223869Y0155421D01*
X0223800Y0155419D01*
X0223731Y0155421D01*
X0223663Y0155427D01*
X0223595Y0155437D01*
X0223528Y0155451D01*
X0223461Y0155469D01*
X0223396Y0155490D01*
X0223332Y0155516D01*
X0223270Y0155545D01*
X0223209Y0155577D01*
X0223151Y0155613D01*
X0223095Y0155653D01*
X0223041Y0155695D01*
X0222990Y0155741D01*
X0222941Y0155790D01*
X0222895Y0155841D01*
X0222853Y0155895D01*
X0222813Y0155951D01*
X0222777Y0156009D01*
X0222745Y0156070D01*
X0222716Y0156132D01*
X0222690Y0156196D01*
X0222669Y0156261D01*
X0222651Y0156328D01*
X0222637Y0156395D01*
X0222627Y0156463D01*
X0222621Y0156531D01*
X0222619Y0156600D01*
X0222619Y0161600D02*
X0222621Y0161669D01*
X0222627Y0161737D01*
X0222637Y0161805D01*
X0222651Y0161872D01*
X0222669Y0161939D01*
X0222690Y0162004D01*
X0222716Y0162068D01*
X0222745Y0162130D01*
X0222777Y0162190D01*
X0222813Y0162249D01*
X0222853Y0162305D01*
X0222895Y0162359D01*
X0222941Y0162410D01*
X0222990Y0162459D01*
X0223041Y0162505D01*
X0223095Y0162547D01*
X0223151Y0162587D01*
X0223209Y0162623D01*
X0223270Y0162655D01*
X0223332Y0162684D01*
X0223396Y0162710D01*
X0223461Y0162731D01*
X0223528Y0162749D01*
X0223595Y0162763D01*
X0223663Y0162773D01*
X0223731Y0162779D01*
X0223800Y0162781D01*
X0223869Y0162779D01*
X0223937Y0162773D01*
X0224005Y0162763D01*
X0224072Y0162749D01*
X0224139Y0162731D01*
X0224204Y0162710D01*
X0224268Y0162684D01*
X0224330Y0162655D01*
X0224390Y0162623D01*
X0224449Y0162587D01*
X0224505Y0162547D01*
X0224559Y0162505D01*
X0224610Y0162459D01*
X0224659Y0162410D01*
X0224705Y0162359D01*
X0224747Y0162305D01*
X0224787Y0162249D01*
X0224823Y0162190D01*
X0224855Y0162130D01*
X0224884Y0162068D01*
X0224910Y0162004D01*
X0224931Y0161939D01*
X0224949Y0161872D01*
X0224963Y0161805D01*
X0224973Y0161737D01*
X0224979Y0161669D01*
X0224981Y0161600D01*
X0224979Y0161531D01*
X0224973Y0161463D01*
X0224963Y0161395D01*
X0224949Y0161328D01*
X0224931Y0161261D01*
X0224910Y0161196D01*
X0224884Y0161132D01*
X0224855Y0161070D01*
X0224823Y0161009D01*
X0224787Y0160951D01*
X0224747Y0160895D01*
X0224705Y0160841D01*
X0224659Y0160790D01*
X0224610Y0160741D01*
X0224559Y0160695D01*
X0224505Y0160653D01*
X0224449Y0160613D01*
X0224391Y0160577D01*
X0224330Y0160545D01*
X0224268Y0160516D01*
X0224204Y0160490D01*
X0224139Y0160469D01*
X0224072Y0160451D01*
X0224005Y0160437D01*
X0223937Y0160427D01*
X0223869Y0160421D01*
X0223800Y0160419D01*
X0223731Y0160421D01*
X0223663Y0160427D01*
X0223595Y0160437D01*
X0223528Y0160451D01*
X0223461Y0160469D01*
X0223396Y0160490D01*
X0223332Y0160516D01*
X0223270Y0160545D01*
X0223209Y0160577D01*
X0223151Y0160613D01*
X0223095Y0160653D01*
X0223041Y0160695D01*
X0222990Y0160741D01*
X0222941Y0160790D01*
X0222895Y0160841D01*
X0222853Y0160895D01*
X0222813Y0160951D01*
X0222777Y0161009D01*
X0222745Y0161070D01*
X0222716Y0161132D01*
X0222690Y0161196D01*
X0222669Y0161261D01*
X0222651Y0161328D01*
X0222637Y0161395D01*
X0222627Y0161463D01*
X0222621Y0161531D01*
X0222619Y0161600D01*
X0221300Y0166600D02*
X0221302Y0166502D01*
X0221308Y0166404D01*
X0221317Y0166306D01*
X0221331Y0166209D01*
X0221348Y0166112D01*
X0221369Y0166016D01*
X0221394Y0165921D01*
X0221422Y0165827D01*
X0221455Y0165735D01*
X0221490Y0165643D01*
X0221530Y0165553D01*
X0221572Y0165465D01*
X0221619Y0165378D01*
X0221668Y0165294D01*
X0221721Y0165211D01*
X0221777Y0165131D01*
X0221837Y0165052D01*
X0221899Y0164976D01*
X0221964Y0164903D01*
X0222032Y0164832D01*
X0222103Y0164764D01*
X0222176Y0164699D01*
X0222252Y0164637D01*
X0222331Y0164577D01*
X0222411Y0164521D01*
X0222494Y0164468D01*
X0222578Y0164419D01*
X0222665Y0164372D01*
X0222753Y0164330D01*
X0222843Y0164290D01*
X0222935Y0164255D01*
X0223027Y0164222D01*
X0223121Y0164194D01*
X0223216Y0164169D01*
X0223312Y0164148D01*
X0223409Y0164131D01*
X0223506Y0164117D01*
X0223604Y0164108D01*
X0223702Y0164102D01*
X0223800Y0164100D01*
X0223898Y0164102D01*
X0223996Y0164108D01*
X0224094Y0164117D01*
X0224191Y0164131D01*
X0224288Y0164148D01*
X0224384Y0164169D01*
X0224479Y0164194D01*
X0224573Y0164222D01*
X0224665Y0164255D01*
X0224757Y0164290D01*
X0224847Y0164330D01*
X0224935Y0164372D01*
X0225022Y0164419D01*
X0225106Y0164468D01*
X0225189Y0164521D01*
X0225269Y0164577D01*
X0225348Y0164637D01*
X0225424Y0164699D01*
X0225497Y0164764D01*
X0225568Y0164832D01*
X0225636Y0164903D01*
X0225701Y0164976D01*
X0225763Y0165052D01*
X0225823Y0165131D01*
X0225879Y0165211D01*
X0225932Y0165294D01*
X0225981Y0165378D01*
X0226028Y0165465D01*
X0226070Y0165553D01*
X0226110Y0165643D01*
X0226145Y0165735D01*
X0226178Y0165827D01*
X0226206Y0165921D01*
X0226231Y0166016D01*
X0226252Y0166112D01*
X0226269Y0166209D01*
X0226283Y0166306D01*
X0226292Y0166404D01*
X0226298Y0166502D01*
X0226300Y0166600D01*
X0226300Y0211600D01*
X0226298Y0211698D01*
X0226292Y0211796D01*
X0226283Y0211894D01*
X0226269Y0211991D01*
X0226252Y0212088D01*
X0226231Y0212184D01*
X0226206Y0212279D01*
X0226178Y0212373D01*
X0226145Y0212465D01*
X0226110Y0212557D01*
X0226070Y0212647D01*
X0226028Y0212735D01*
X0225981Y0212822D01*
X0225932Y0212906D01*
X0225879Y0212989D01*
X0225823Y0213069D01*
X0225763Y0213148D01*
X0225701Y0213224D01*
X0225636Y0213297D01*
X0225568Y0213368D01*
X0225497Y0213436D01*
X0225424Y0213501D01*
X0225348Y0213563D01*
X0225269Y0213623D01*
X0225189Y0213679D01*
X0225106Y0213732D01*
X0225022Y0213781D01*
X0224935Y0213828D01*
X0224847Y0213870D01*
X0224757Y0213910D01*
X0224665Y0213945D01*
X0224573Y0213978D01*
X0224479Y0214006D01*
X0224384Y0214031D01*
X0224288Y0214052D01*
X0224191Y0214069D01*
X0224094Y0214083D01*
X0223996Y0214092D01*
X0223898Y0214098D01*
X0223800Y0214100D01*
X0223702Y0214098D01*
X0223604Y0214092D01*
X0223506Y0214083D01*
X0223409Y0214069D01*
X0223312Y0214052D01*
X0223216Y0214031D01*
X0223121Y0214006D01*
X0223027Y0213978D01*
X0222935Y0213945D01*
X0222843Y0213910D01*
X0222753Y0213870D01*
X0222665Y0213828D01*
X0222578Y0213781D01*
X0222494Y0213732D01*
X0222411Y0213679D01*
X0222331Y0213623D01*
X0222252Y0213563D01*
X0222176Y0213501D01*
X0222103Y0213436D01*
X0222032Y0213368D01*
X0221964Y0213297D01*
X0221899Y0213224D01*
X0221837Y0213148D01*
X0221777Y0213069D01*
X0221721Y0212989D01*
X0221668Y0212906D01*
X0221619Y0212822D01*
X0221572Y0212735D01*
X0221530Y0212647D01*
X0221490Y0212557D01*
X0221455Y0212465D01*
X0221422Y0212373D01*
X0221394Y0212279D01*
X0221369Y0212184D01*
X0221348Y0212088D01*
X0221331Y0211991D01*
X0221317Y0211894D01*
X0221308Y0211796D01*
X0221302Y0211698D01*
X0221300Y0211600D01*
X0221300Y0166600D01*
X0222619Y0216600D02*
X0222621Y0216669D01*
X0222627Y0216737D01*
X0222637Y0216805D01*
X0222651Y0216872D01*
X0222669Y0216939D01*
X0222690Y0217004D01*
X0222716Y0217068D01*
X0222745Y0217130D01*
X0222777Y0217190D01*
X0222813Y0217249D01*
X0222853Y0217305D01*
X0222895Y0217359D01*
X0222941Y0217410D01*
X0222990Y0217459D01*
X0223041Y0217505D01*
X0223095Y0217547D01*
X0223151Y0217587D01*
X0223209Y0217623D01*
X0223270Y0217655D01*
X0223332Y0217684D01*
X0223396Y0217710D01*
X0223461Y0217731D01*
X0223528Y0217749D01*
X0223595Y0217763D01*
X0223663Y0217773D01*
X0223731Y0217779D01*
X0223800Y0217781D01*
X0223869Y0217779D01*
X0223937Y0217773D01*
X0224005Y0217763D01*
X0224072Y0217749D01*
X0224139Y0217731D01*
X0224204Y0217710D01*
X0224268Y0217684D01*
X0224330Y0217655D01*
X0224390Y0217623D01*
X0224449Y0217587D01*
X0224505Y0217547D01*
X0224559Y0217505D01*
X0224610Y0217459D01*
X0224659Y0217410D01*
X0224705Y0217359D01*
X0224747Y0217305D01*
X0224787Y0217249D01*
X0224823Y0217190D01*
X0224855Y0217130D01*
X0224884Y0217068D01*
X0224910Y0217004D01*
X0224931Y0216939D01*
X0224949Y0216872D01*
X0224963Y0216805D01*
X0224973Y0216737D01*
X0224979Y0216669D01*
X0224981Y0216600D01*
X0224979Y0216531D01*
X0224973Y0216463D01*
X0224963Y0216395D01*
X0224949Y0216328D01*
X0224931Y0216261D01*
X0224910Y0216196D01*
X0224884Y0216132D01*
X0224855Y0216070D01*
X0224823Y0216009D01*
X0224787Y0215951D01*
X0224747Y0215895D01*
X0224705Y0215841D01*
X0224659Y0215790D01*
X0224610Y0215741D01*
X0224559Y0215695D01*
X0224505Y0215653D01*
X0224449Y0215613D01*
X0224391Y0215577D01*
X0224330Y0215545D01*
X0224268Y0215516D01*
X0224204Y0215490D01*
X0224139Y0215469D01*
X0224072Y0215451D01*
X0224005Y0215437D01*
X0223937Y0215427D01*
X0223869Y0215421D01*
X0223800Y0215419D01*
X0223731Y0215421D01*
X0223663Y0215427D01*
X0223595Y0215437D01*
X0223528Y0215451D01*
X0223461Y0215469D01*
X0223396Y0215490D01*
X0223332Y0215516D01*
X0223270Y0215545D01*
X0223209Y0215577D01*
X0223151Y0215613D01*
X0223095Y0215653D01*
X0223041Y0215695D01*
X0222990Y0215741D01*
X0222941Y0215790D01*
X0222895Y0215841D01*
X0222853Y0215895D01*
X0222813Y0215951D01*
X0222777Y0216009D01*
X0222745Y0216070D01*
X0222716Y0216132D01*
X0222690Y0216196D01*
X0222669Y0216261D01*
X0222651Y0216328D01*
X0222637Y0216395D01*
X0222627Y0216463D01*
X0222621Y0216531D01*
X0222619Y0216600D01*
X0222619Y0221600D02*
X0222621Y0221669D01*
X0222627Y0221737D01*
X0222637Y0221805D01*
X0222651Y0221872D01*
X0222669Y0221939D01*
X0222690Y0222004D01*
X0222716Y0222068D01*
X0222745Y0222130D01*
X0222777Y0222190D01*
X0222813Y0222249D01*
X0222853Y0222305D01*
X0222895Y0222359D01*
X0222941Y0222410D01*
X0222990Y0222459D01*
X0223041Y0222505D01*
X0223095Y0222547D01*
X0223151Y0222587D01*
X0223209Y0222623D01*
X0223270Y0222655D01*
X0223332Y0222684D01*
X0223396Y0222710D01*
X0223461Y0222731D01*
X0223528Y0222749D01*
X0223595Y0222763D01*
X0223663Y0222773D01*
X0223731Y0222779D01*
X0223800Y0222781D01*
X0223869Y0222779D01*
X0223937Y0222773D01*
X0224005Y0222763D01*
X0224072Y0222749D01*
X0224139Y0222731D01*
X0224204Y0222710D01*
X0224268Y0222684D01*
X0224330Y0222655D01*
X0224390Y0222623D01*
X0224449Y0222587D01*
X0224505Y0222547D01*
X0224559Y0222505D01*
X0224610Y0222459D01*
X0224659Y0222410D01*
X0224705Y0222359D01*
X0224747Y0222305D01*
X0224787Y0222249D01*
X0224823Y0222190D01*
X0224855Y0222130D01*
X0224884Y0222068D01*
X0224910Y0222004D01*
X0224931Y0221939D01*
X0224949Y0221872D01*
X0224963Y0221805D01*
X0224973Y0221737D01*
X0224979Y0221669D01*
X0224981Y0221600D01*
X0224979Y0221531D01*
X0224973Y0221463D01*
X0224963Y0221395D01*
X0224949Y0221328D01*
X0224931Y0221261D01*
X0224910Y0221196D01*
X0224884Y0221132D01*
X0224855Y0221070D01*
X0224823Y0221009D01*
X0224787Y0220951D01*
X0224747Y0220895D01*
X0224705Y0220841D01*
X0224659Y0220790D01*
X0224610Y0220741D01*
X0224559Y0220695D01*
X0224505Y0220653D01*
X0224449Y0220613D01*
X0224391Y0220577D01*
X0224330Y0220545D01*
X0224268Y0220516D01*
X0224204Y0220490D01*
X0224139Y0220469D01*
X0224072Y0220451D01*
X0224005Y0220437D01*
X0223937Y0220427D01*
X0223869Y0220421D01*
X0223800Y0220419D01*
X0223731Y0220421D01*
X0223663Y0220427D01*
X0223595Y0220437D01*
X0223528Y0220451D01*
X0223461Y0220469D01*
X0223396Y0220490D01*
X0223332Y0220516D01*
X0223270Y0220545D01*
X0223209Y0220577D01*
X0223151Y0220613D01*
X0223095Y0220653D01*
X0223041Y0220695D01*
X0222990Y0220741D01*
X0222941Y0220790D01*
X0222895Y0220841D01*
X0222853Y0220895D01*
X0222813Y0220951D01*
X0222777Y0221009D01*
X0222745Y0221070D01*
X0222716Y0221132D01*
X0222690Y0221196D01*
X0222669Y0221261D01*
X0222651Y0221328D01*
X0222637Y0221395D01*
X0222627Y0221463D01*
X0222621Y0221531D01*
X0222619Y0221600D01*
X0222619Y0226600D02*
X0222621Y0226669D01*
X0222627Y0226737D01*
X0222637Y0226805D01*
X0222651Y0226872D01*
X0222669Y0226939D01*
X0222690Y0227004D01*
X0222716Y0227068D01*
X0222745Y0227130D01*
X0222777Y0227190D01*
X0222813Y0227249D01*
X0222853Y0227305D01*
X0222895Y0227359D01*
X0222941Y0227410D01*
X0222990Y0227459D01*
X0223041Y0227505D01*
X0223095Y0227547D01*
X0223151Y0227587D01*
X0223209Y0227623D01*
X0223270Y0227655D01*
X0223332Y0227684D01*
X0223396Y0227710D01*
X0223461Y0227731D01*
X0223528Y0227749D01*
X0223595Y0227763D01*
X0223663Y0227773D01*
X0223731Y0227779D01*
X0223800Y0227781D01*
X0223869Y0227779D01*
X0223937Y0227773D01*
X0224005Y0227763D01*
X0224072Y0227749D01*
X0224139Y0227731D01*
X0224204Y0227710D01*
X0224268Y0227684D01*
X0224330Y0227655D01*
X0224390Y0227623D01*
X0224449Y0227587D01*
X0224505Y0227547D01*
X0224559Y0227505D01*
X0224610Y0227459D01*
X0224659Y0227410D01*
X0224705Y0227359D01*
X0224747Y0227305D01*
X0224787Y0227249D01*
X0224823Y0227190D01*
X0224855Y0227130D01*
X0224884Y0227068D01*
X0224910Y0227004D01*
X0224931Y0226939D01*
X0224949Y0226872D01*
X0224963Y0226805D01*
X0224973Y0226737D01*
X0224979Y0226669D01*
X0224981Y0226600D01*
X0224979Y0226531D01*
X0224973Y0226463D01*
X0224963Y0226395D01*
X0224949Y0226328D01*
X0224931Y0226261D01*
X0224910Y0226196D01*
X0224884Y0226132D01*
X0224855Y0226070D01*
X0224823Y0226009D01*
X0224787Y0225951D01*
X0224747Y0225895D01*
X0224705Y0225841D01*
X0224659Y0225790D01*
X0224610Y0225741D01*
X0224559Y0225695D01*
X0224505Y0225653D01*
X0224449Y0225613D01*
X0224391Y0225577D01*
X0224330Y0225545D01*
X0224268Y0225516D01*
X0224204Y0225490D01*
X0224139Y0225469D01*
X0224072Y0225451D01*
X0224005Y0225437D01*
X0223937Y0225427D01*
X0223869Y0225421D01*
X0223800Y0225419D01*
X0223731Y0225421D01*
X0223663Y0225427D01*
X0223595Y0225437D01*
X0223528Y0225451D01*
X0223461Y0225469D01*
X0223396Y0225490D01*
X0223332Y0225516D01*
X0223270Y0225545D01*
X0223209Y0225577D01*
X0223151Y0225613D01*
X0223095Y0225653D01*
X0223041Y0225695D01*
X0222990Y0225741D01*
X0222941Y0225790D01*
X0222895Y0225841D01*
X0222853Y0225895D01*
X0222813Y0225951D01*
X0222777Y0226009D01*
X0222745Y0226070D01*
X0222716Y0226132D01*
X0222690Y0226196D01*
X0222669Y0226261D01*
X0222651Y0226328D01*
X0222637Y0226395D01*
X0222627Y0226463D01*
X0222621Y0226531D01*
X0222619Y0226600D01*
D11*
X0223800Y0226600D03*
X0223800Y0221600D03*
X0223800Y0216600D03*
X0223800Y0161600D03*
X0223800Y0156600D03*
X0223800Y0151600D03*
X0223800Y0096600D03*
X0223800Y0091600D03*
X0223800Y0086600D03*
D12*
X0066300Y0058096D03*
X0066300Y0045104D03*
X0066300Y0033096D03*
X0066300Y0020104D03*
X0381300Y0255104D03*
X0381300Y0268096D03*
X0381300Y0280104D03*
X0381300Y0293096D03*
D13*
X0355400Y0254400D03*
X0346300Y0254400D03*
X0337200Y0254400D03*
X0110400Y0058800D03*
X0101300Y0058800D03*
X0092200Y0058800D03*
D14*
X0101300Y0034399D03*
X0346300Y0278801D03*
D15*
X0411202Y0266683D03*
X0411202Y0246683D03*
X0411202Y0226683D03*
X0411202Y0206683D03*
X0411202Y0186683D03*
X0411202Y0166683D03*
X0036398Y0146517D03*
X0036398Y0126517D03*
X0036398Y0106517D03*
X0036398Y0086517D03*
X0036398Y0066517D03*
X0036398Y0046517D03*
D16*
X0127206Y0077624D03*
X0127206Y0095576D03*
X0127206Y0122624D03*
X0127206Y0140576D03*
X0127206Y0167624D03*
X0127206Y0185576D03*
X0320394Y0190576D03*
X0320394Y0172624D03*
X0320394Y0145576D03*
X0320394Y0127624D03*
X0320394Y0217624D03*
X0320394Y0235576D03*
D17*
X0347552Y0226600D03*
X0347552Y0181600D03*
X0347552Y0136600D03*
X0100048Y0131600D03*
X0100048Y0176600D03*
X0100048Y0086600D03*
D18*
X0142757Y0219100D03*
X0149843Y0219100D03*
X0149843Y0230350D03*
X0142757Y0230350D03*
X0142757Y0237850D03*
X0149843Y0237850D03*
X0149843Y0252850D03*
X0142757Y0252850D03*
X0142757Y0260350D03*
X0149843Y0260350D03*
X0059843Y0254100D03*
X0052757Y0254100D03*
X0052757Y0269100D03*
X0059843Y0269100D03*
X0059843Y0237850D03*
X0052757Y0237850D03*
X0052757Y0229100D03*
X0059843Y0229100D03*
X0059843Y0221600D03*
X0052757Y0221600D03*
X0297757Y0094100D03*
X0304843Y0094100D03*
X0304843Y0082850D03*
X0297757Y0082850D03*
X0297757Y0075350D03*
X0304843Y0075350D03*
X0304843Y0060350D03*
X0297757Y0060350D03*
X0297757Y0052850D03*
X0304843Y0052850D03*
X0387757Y0059100D03*
X0394843Y0059100D03*
X0394843Y0044100D03*
X0387757Y0044100D03*
X0387757Y0075350D03*
X0394843Y0075350D03*
X0394843Y0084100D03*
X0387757Y0084100D03*
X0387757Y0091600D03*
X0394843Y0091600D03*
D19*
X0306300Y0119600D03*
X0306300Y0153600D03*
X0306300Y0164600D03*
X0306300Y0198600D03*
X0306300Y0209600D03*
X0306300Y0243600D03*
X0141300Y0193600D03*
X0141300Y0159600D03*
X0141300Y0148600D03*
X0141300Y0114600D03*
X0141300Y0103600D03*
X0141300Y0069600D03*
D20*
X0141300Y0082563D03*
X0141300Y0090637D03*
X0141300Y0127563D03*
X0141300Y0135637D03*
X0141300Y0172563D03*
X0141300Y0180637D03*
X0306300Y0177563D03*
X0306300Y0185637D03*
X0306300Y0222563D03*
X0306300Y0230637D03*
X0306300Y0140637D03*
X0306300Y0132563D03*
D21*
X0280906Y0136443D03*
X0280906Y0116757D03*
X0231694Y0116757D03*
X0215906Y0111757D03*
X0215906Y0131443D03*
X0231694Y0136443D03*
X0215906Y0176757D03*
X0231694Y0181757D03*
X0215906Y0196443D03*
X0231694Y0201443D03*
X0280906Y0201443D03*
X0280906Y0181757D03*
X0215906Y0241757D03*
X0231694Y0246757D03*
X0215906Y0261443D03*
X0231694Y0266443D03*
X0280906Y0266443D03*
X0280906Y0246757D03*
X0166694Y0241757D03*
X0166694Y0261443D03*
X0166694Y0196443D03*
X0166694Y0176757D03*
X0166694Y0131443D03*
X0166694Y0111757D03*
X0166694Y0066443D03*
X0166694Y0046757D03*
X0215906Y0046757D03*
X0231694Y0051757D03*
X0215906Y0066443D03*
X0231694Y0071443D03*
X0280906Y0071443D03*
X0280906Y0051757D03*
D22*
X0241300Y0021600D03*
X0206300Y0021600D03*
X0036300Y0021600D03*
X0411300Y0021600D03*
X0411300Y0291600D03*
X0241300Y0291600D03*
X0206300Y0291600D03*
X0036300Y0291600D03*
D23*
X0038900Y0206600D02*
X0033700Y0206600D01*
X0033700Y0196600D02*
X0038900Y0196600D01*
X0038900Y0186600D02*
X0033700Y0186600D01*
X0033700Y0176600D02*
X0038900Y0176600D01*
X0038900Y0166600D02*
X0033700Y0166600D01*
X0408700Y0146600D02*
X0413900Y0146600D01*
X0413900Y0136600D02*
X0408700Y0136600D01*
X0408700Y0126600D02*
X0413900Y0126600D01*
X0413900Y0116600D02*
X0408700Y0116600D01*
X0408700Y0106600D02*
X0413900Y0106600D01*
D24*
X0375828Y0099002D03*
X0375828Y0091128D03*
X0375828Y0083254D03*
X0375828Y0075380D03*
X0375828Y0067506D03*
X0375828Y0059631D03*
X0375828Y0051757D03*
X0375828Y0043883D03*
X0316772Y0043883D03*
X0316772Y0051757D03*
X0316772Y0059631D03*
X0316772Y0067506D03*
X0316772Y0075380D03*
X0316772Y0083254D03*
X0316772Y0091128D03*
X0316772Y0099002D03*
X0130828Y0214198D03*
X0130828Y0222072D03*
X0130828Y0229946D03*
X0130828Y0237820D03*
X0130828Y0245694D03*
X0130828Y0253569D03*
X0130828Y0261443D03*
X0130828Y0269317D03*
X0071772Y0269317D03*
X0071772Y0261443D03*
X0071772Y0253569D03*
X0071772Y0245694D03*
X0071772Y0237820D03*
X0071772Y0229946D03*
X0071772Y0222072D03*
X0071772Y0214198D03*
M02*
